<?xml version="1.0" standalone="no"?>
<!DOCTYPE svg PUBLIC "-//W3C//DTD SVG 1.1//EN" "http://www.w3.org/Graphics/SVG/1.1/DTD/svg11.dtd" >
<svg xmlns="http://www.w3.org/2000/svg">
<metadata></metadata>
<defs>
<font id="filosofiaregularregular" horiz-adv-x="0" >
<font-face units-per-em="2048" ascent="1501" descent="-547" />
<missing-glyph horiz-adv-x="375" />
<glyph />
<glyph unicode="&#xd;" />
<glyph />
<glyph />
<glyph unicode="&#x9;" />
<glyph unicode="&#xa;" />
<glyph />
<glyph />
<glyph />
<glyph />
<glyph />
<glyph />
<glyph />
<glyph unicode=" "  horiz-adv-x="375" />
<glyph unicode="&#x09;" horiz-adv-x="375" />
<glyph unicode="&#xa0;" horiz-adv-x="375" />
<glyph unicode="!" horiz-adv-x="641" d="M205 90q0 45 31.5 77t76.5 32t76 -32t31 -77t-31 -75.5t-76 -30.5q-44 0 -76 31t-32 75zM215 1249q0 40 28 69.5t68 29.5q41 0 70 -29t29 -70q0 -45 -16 -127l-26 -128q-32 -200 -32 -615q0 -27 -25 -27q-26 0 -26 27q0 412 -30 619q-2 14 -24 125q-16 78 -16 126z" />
<glyph unicode="&#x22;" horiz-adv-x="844" d="M154 1249q0 40 28 69.5t68 29.5q41 0 69.5 -29t28.5 -70q0 -22 -26 -95q-31 -88 -34 -101q-16 -62 -16 -162q0 -25 -22 -25q-25 0 -25 25q0 130 -31 228q-40 125 -40 130zM496 1249q0 40 27 69.5t67 29.5q41 0 70.5 -29.5t29.5 -69.5q0 -22 -26 -95q-31 -88 -34 -101 q-16 -62 -16 -162q0 -25 -22 -25q-25 0 -25 25q0 130 -31 228q-40 125 -40 130z" />
<glyph unicode="#" horiz-adv-x="891" d="M51 664q0 47 39 47q27 0 71 -4q55 -4 72 -5q5 15 20 106l30 175q-37 -1 -95 -5q-28 -3 -38 -3q-39 0 -39 45q0 47 39 47q25 0 74.5 -4t72.5 -4q0 -9 4 23l2 12v6q21 107 31 217q6 31 51 31q41 -7 41 -48q-9 -29 -24 -87q-8 -33 -25 -128l-4 -26h219q3 14 8 41 q7 75 31 217q3 31 51 31q39 -7 39 -48q-9 -29 -24 -87q-8 -33 -25 -128l-4 -26q22 0 69 4q44 4 68 4q39 0 39 -47q0 -45 -39 -45q-15 0 -41 2q-32 3 -42 3q-24 1 -69 1l-47 -279q17 1 69 5q43 4 68 4q41 0 41 -47q0 -46 -41 -46q36 0 -38 4t-113 5q-16 -92 -33 -242 q-8 -31 -51 -31q-41 7 -41 49l27 105q7 30 24 119h-221q-6 -32 -35 -242q-4 -31 -51 -31q-39 8 -39 49q30 116 49 224q-15 -1 -66 -5q-41 -4 -65 -4q-39 0 -39 46zM311 702h217l52 281h-222z" />
<glyph unicode="$" horiz-adv-x="979" d="M123 346q0 100 98 100q41 0 67 -42q11 -18 11 -33q0 -66 -59 -82q32 -62 116 -95q41 -16 84 -20v379l-16 6q-172 65 -213 113q-59 69 -59 166q0 119 85 202q82 80 203 93q0 112 -5 202l-3 43q0 39 45 39q47 0 47 -39q0 -22 -3 -62q-4 -44 -4 -62q-1 -41 -1 -121 q90 -8 165 -51q93 -54 93 -134q0 -106 -92 -106q-32 0 -57 25t-25 57q0 57 55 75q-26 55 -139 68v-365l12 -2q299 -77 299 -294q0 -170 -152 -253q-71 -39 -159 -47v-34q0 -97 4 -160l4 -62q0 -38 -47 -38q-45 0 -45 38q0 22 3 61q4 43 4 61q1 36 1 100v34q-186 12 -277 137 q-40 54 -40 103zM262 881q0 -109 156 -152l22 -6v344q-178 -21 -178 -186zM516 174q88 8 141 55q58 51 58 136q0 119 -197 167h-2v-358z" />
<glyph unicode="%" horiz-adv-x="1739" d="M170 952q0 235 130 344q59 50 128 50q151 0 224 -190q34 -91 34 -204q0 -172 -74.5 -281.5t-183.5 -109.5q-107 0 -182.5 112t-75.5 279zM299 952q0 -331 129 -331q131 0 131 331q0 334 -131 334q-129 0 -129 -334zM553 31q33 65 94 198l348 822q34 90 107 268 q10 22 37 22q47 0 47 -57q-42 -87 -121 -262l-348 -821q-14 -33 -44 -114l-34 -93q-11 -23 -37 -23q-13 0 -22 4q-27 12 -27 56zM1055 360q0 235 130 344q59 50 128 50q149 0 223 -190q35 -90 35 -204q0 -170 -75 -280.5t-183 -110.5q-107 0 -182.5 112t-75.5 279zM1184 360 q0 -237 57 -299q28 -32 72 -32q129 0 129 331q0 332 -129 332t-129 -332z" />
<glyph unicode="&#x26;" horiz-adv-x="1296" d="M125 365q0 172 119 289q53 52 121 89q-115 156 -115 295q0 174 146 265q73 45 177 45q123 0 205 -66q88 -72 88 -192q0 -146 -142 -250q-69 -50 -163 -80l-4 -2l358 -479q50 114 50 266v41h-99q-13 -1 -41 -2q-30 -1 -30 37q0 34 30 34q14 0 39 -3l40 -4q48 -3 97 -3 q38 0 113.5 5t65.5 5q30 0 30 -34q0 -38 -30 -37q-64 2 -140 2v-41q0 -187 -75 -334l108 -148l117 3q31 0 31 -37q0 -35 -31 -35q10 0 -67 7q-33 3 -76 3q-14 0 -30 -1l-32 -4q-16 -1 -27 -1q-33 0 -98 80q-121 -113 -291 -113q-274 0 -392 209q-52 91 -52 191zM272 383 q0 -146 84 -240q87 -98 232 -98q133 0 229 90l-407 547q-138 -112 -138 -299zM397 1102q0 -103 55 -194q21 -36 66 -101q217 71 217 299q0 186 -162 186q-176 0 -176 -190z" />
<glyph unicode="'" horiz-adv-x="502" d="M154 1249q0 40 28 69.5t68 29.5q41 0 69.5 -29t28.5 -70q0 -22 -26 -95q-31 -88 -34 -101q-16 -62 -16 -162q0 -25 -22 -25q-25 0 -25 25q0 130 -31 228q-40 125 -40 130z" />
<glyph unicode="(" horiz-adv-x="733" d="M170 604q0 353 288 658q84 89 187 174q6 6 19 6q22 0 22 -25q0 -13 -10 -24q-210 -231 -302 -458q-61 -152 -61 -331q0 -319 200 -588q77 -104 163 -200q10 -11 10 -27q0 -25 -20 -25q-5 0 -19 9q-304 251 -415 519q-62 149 -62 312z" />
<glyph unicode=")" horiz-adv-x="733" d="M47 -209q0 14 10 25q178 194 262 359q103 204 103 429t-103 429q-84 167 -262 360q-10 13 -10 24q0 27 23 27q10 0 18 -8q217 -177 337 -367q138 -221 138 -465t-137 -461q-121 -190 -338 -370q-9 -6 -18 -6q-23 0 -23 24z" />
<glyph unicode="*" horiz-adv-x="834" d="M104 881q0 52 46 77q24 13 49 13q37 0 63 -25l103 58l-103 57q-26 -25 -61 -25q-27 0 -51 13q-46 25 -46 77q0 22 15 48q27 47 80 47q21 0 45 -13q45 -25 45 -102l102 -59v120q-67 22 -67 88q0 39 26.5 66t65.5 27q40 0 66 -26.5t26 -66.5q0 -68 -66 -88v-118l105 61 q-4 16 -4 27q0 51 47 75q20 13 45 13q51 0 78 -47q14 -24 14 -50q0 -51 -45 -77q-19 -11 -47 -11q-37 0 -64 25l-104 -61l104 -62q29 27 64 27q25 0 47 -13q45 -26 45 -77q0 -26 -14 -50q-27 -47 -78 -47q-23 0 -45 13q-47 28 -47 75q0 11 4 27l-105 61v-118q66 -16 66 -88 q0 -40 -26 -66.5t-66 -26.5q-39 0 -65.5 27t-26.5 66q0 71 67 88v121l-102 -60q0 -76 -45 -102q-22 -13 -45 -13q-52 0 -80 48q-15 26 -15 47z" />
<glyph unicode="+" horiz-adv-x="938" d="M104 510q0 47 39 47q21 0 56 -3q43 -3 57 -3q38 -2 109 -2h71v72q0 142 -7 192q-3 16 -3 27q0 39 47 39q45 0 45 -39q0 -20 -3 -54q-3 -40 -3 -54q-2 -39 -2 -111v-72h72q105 0 181 6q34 2 40 2q39 0 39 -47q0 -45 -39 -45q-21 0 -55 3q-42 3 -55 4q-38 1 -111 1h-72v-72 q0 -109 4 -167l4 -54q0 -39 -45 -39q-47 0 -47 39q0 17 3 45q4 34 5 45q2 46 2 131v72h-71q-105 0 -183 -5l-39 -3q-39 0 -39 45z" />
<glyph unicode="," horiz-adv-x="547" d="M154 84q0 106 110 106q84 0 116 -72q15 -34 15 -67q0 -119 -114 -266q-12 -10 -21 -10q-18 0 -18 18q0 13 10 27q78 107 78 207q0 24 -6 41q0 -74 -80 -74q-34 0 -62 28t-28 62z" />
<glyph unicode="-" horiz-adv-x="938" d="M193 510q0 47 38 47q21 0 56 -3q42 -3 56 -3q38 -2 110 -2h32q107 0 182 6q32 2 38 2q38 0 38 -47q0 -45 -38 -45q-20 0 -55 3q-41 3 -54 4q-38 1 -111 1h-32q-104 0 -182 -5q-34 -3 -40 -3q-38 0 -38 45z" />
<glyph unicode="." horiz-adv-x="547" d="M170 86q0 44 29 73t73 29q62 0 90 -50q13 -24 13 -52q0 -62 -50 -89q-24 -13 -53 -13q-44 0 -73 29t-29 73z" />
<glyph unicode="/" horiz-adv-x="713" d="M39 31q33 65 94 198l348 822q42 117 107 268q11 22 37 22q12 0 20 -4q27 -10 27 -53q-42 -87 -121 -262l-348 -821q-14 -33 -44 -114l-34 -93q-11 -23 -37 -23q-12 0 -20 4q-29 11 -29 56z" />
<glyph unicode="0" horiz-adv-x="1102" d="M117 401q0 180 127.5 307.5t306.5 127.5q183 0 309.5 -126.5t126.5 -308.5q0 -250 -216 -377q-101 -59 -220 -59q-249 0 -376 217q-58 99 -58 219zM221 401q0 -189 164 -286q76 -45 166 -45q191 0 288 167q44 77 44 164q0 140 -98 236t-234 96q-190 0 -286 -165 q-44 -76 -44 -167z" />
<glyph unicode="1" horiz-adv-x="776" d="M145 29q0 37 31 37q7 0 43 -1l88 -2v676q-55 0 -102 -4q-24 -2 -29 -2q-31 0 -31 37q0 35 31 35q-1 0 131 -2q23 0 66.5 4t64.5 4q31 0 31 -37v-711l131 3q31 0 31 -37q0 -35 -31 -35q-14 0 -38 3q-29 4 -38 5q-42 2 -123 2h-26q-135 0 -177 -8q-14 -2 -22 -2 q-31 0 -31 35z" />
<glyph unicode="2" horiz-adv-x="938" d="M92 31q0 16 17 28l256 179q278 194 278 329q0 101 -70 155q-63 48 -167 48q-60 0 -116 -22q-67 -27 -87 -74q26 -6 45.5 -30.5t19.5 -53.5q0 -37 -25.5 -62.5t-62.5 -25.5q-86 0 -86 104q0 131 184 200q81 30 168 30q361 0 361 -250q0 -98 -111 -198q-61 -55 -194 -136 l-203 -123l406 4q19 0 57 4t57 4q31 0 31 -35q0 -1 -14 -69q-23 -112 -23 -215q0 -31 -33 -31q-35 0 -35 31q0 85 27 178h-645q-35 0 -35 31z" />
<glyph unicode="3" horiz-adv-x="944" d="M59 213q0 42 23.5 73t64.5 31q86 0 86 -86q0 -72 -65 -86q68 -112 229 -112q265 0 265 325q0 214 -137 291q-62 35 -130 35q-77 0 -123 -4l-45 -4q-37 0 -37 43t37 43q16 0 45.5 -3.5t42.5 -3.5q27 -1 80 -1q107 0 164 80q51 70 51 182q0 266 -215 266q-133 0 -178 -98 q28 -3 48 -28t20 -54q0 -35 -25.5 -61.5t-60.5 -26.5q-40 0 -65 33q-23 29 -23 71q0 133 147 200q67 30 145 30q227 0 325 -158q46 -75 46 -174q0 -128 -118 -228q-54 -45 -113 -65q166 -59 243 -203q39 -74 39 -162q0 -247 -209 -346q-98 -47 -219 -47q-183 0 -290 127 q-48 57 -48 121z" />
<glyph unicode="4" horiz-adv-x="1061" d="M45 23q0 6 8 22l541 866q24 39 47 39q31 0 31 -55v-819h219v99q-1 13 -2 40q-1 31 37 31q35 0 35 -31q-11 -113 -11 -178q0 -64 6 -125l5 -51q0 -31 -35 -31q-38 0 -37 31q2 64 2 139h-219v-449l131 3q31 0 31 -37q0 -35 -31 -35q-14 0 -39 3q-29 4 -39 4q-43 3 -123 3 h-8q-137 0 -177 -8q-14 -2 -22 -2q-30 0 -30 35q0 37 30 37q22 0 65.5 -1.5t65.5 -1.5v449h-442q-39 0 -39 23zM162 76h364v586z" />
<glyph unicode="5" horiz-adv-x="924" d="M61 -295q0 100 89 100q38 0 63 -25t25 -63q0 -28 -20.5 -53.5t-47.5 -30.5q62 -112 215 -112q262 0 262 360q0 361 -282 361q-89 0 -164 -43q-32 -19 -39 -19q-37 0 -37 43q0 32 53 56v464q0 60 51 60h340q86 0 114 28.5t28 114.5q0 31 32 31q33 0 33 -31q0 -19 -18 -85 q-20 -73 -23 -95q-7 -50 -13 -65q-13 -34 -45 -42.5t-97 -7.5l-328 4v-354q70 8 113 8q234 0 349 -141q97 -120 97 -287q0 -250 -203 -371q-97 -57 -223 -57q-176 0 -278 129q-46 59 -46 123z" />
<glyph unicode="6" horiz-adv-x="1069" d="M125 500q0 183 102 380q95 183 241 315q154 138 316 161q45 0 45 -27q0 -30 -36 -37q-160 -29 -294 -205q-138 -183 -194 -477q95 123 252 123q173 0 284 -107t111 -276q0 -165 -126 -277q-122 -108 -287 -108q-159 0 -274 111q-140 134 -140 424zM289 401 q0 -368 250 -368q185 0 230 161q19 70 19 158q0 125 -52 212q-62 104 -179 104q-170 0 -237 -136q-31 -61 -31 -131z" />
<glyph unicode="7" horiz-adv-x="870" d="M61 446q0 -57 13.5 75.5t13.5 170.5v88q0 35 31 35q19 0 57.5 -4t56.5 -4l521 -2v4q12 27 34 27q33 0 33 -33q0 -5 -4 -19l-387 -858q-86 -191 -86 -274q0 -106 66 -113q0 113 88 113q40 0 66 -26t26 -66q0 -49 -39.5 -79t-89.5 -30q-96 0 -152 90q-28 45 -28 111 q0 101 90 301l317 704h-534q-25 -125 -25 -211q0 -30 -35 -30q-33 0 -33 30z" />
<glyph unicode="8" horiz-adv-x="1008" d="M117 354q0 130 72.5 226t197.5 129q-109 29 -170 109.5t-61 193.5q0 206 173 295q79 41 175 41q205 0 302 -158q46 -76 46 -178q0 -156 -112 -243q-53 -42 -119 -60q125 -33 197.5 -129t72.5 -226q0 -229 -193 -338q-90 -51 -194 -51q-223 0 -335 189q-52 88 -52 200z M281 354q0 -225 95 -288q49 -33 128 -33q135 0 186 101q37 72 37 220t-38 220q-52 98 -185 98t-185 -98q-38 -72 -38 -220zM303 1012q0 -193 86 -243q43 -26 115 -26q141 0 180 110q21 58 21 159q0 131 -35 191q-46 79 -166 79q-119 0 -166 -79q-35 -61 -35 -191z" />
<glyph unicode="9" horiz-adv-x="1069" d="M117 453q0 118 73 216q70 95 182 138q74 29 156 29q237 0 352 -214q64 -120 64 -319q0 -270 -203 -541q-210 -280 -456 -315q-45 0 -45 27q0 30 36 37q165 33 297 207q140 186 191 472q-95 -122 -252 -122q-171 0 -283 107.5t-112 277.5zM281 451q0 -125 52 -212 q62 -104 179 -104q170 0 238 137q30 61 30 129q0 164 -53 259q-63 110 -199 110q-247 0 -247 -319z" />
<glyph unicode=":" horiz-adv-x="547" d="M170 86q0 44 29 73t73 29q62 0 90 -50q13 -24 13 -52q0 -62 -50 -89q-24 -13 -53 -13q-44 0 -73 29t-29 73zM170 498q0 44 29 73t73 29q62 0 90 -50q13 -24 13 -52q0 -63 -50 -90q-24 -13 -53 -13q-45 0 -73.5 29t-28.5 74z" />
<glyph unicode=";" horiz-adv-x="547" d="M154 84q0 106 110 106q84 0 116 -72q15 -34 15 -67q0 -119 -114 -266q-12 -10 -21 -10q-18 0 -18 18q0 13 10 27q78 107 78 207q0 24 -6 41q0 -74 -80 -74q-34 0 -62 28t-28 62zM154 498q0 44 29 73t73 29t73 -29.5t29 -72.5q0 -62 -50 -90q-24 -13 -52 -13 q-45 0 -73.5 29t-28.5 74z" />
<glyph unicode="&#x3c;" horiz-adv-x="1024" d="M195 549q0 13 20 29l631 415q17 11 26 11q19 0 19 -19q0 -12 -14 -27l-478 -409l478 -410q18 -15 18 -30q0 -17 -18 -17q-16 0 -31 10l-631 416q-20 13 -20 31z" />
<glyph unicode="=" horiz-adv-x="938" d="M193 383q0 45 38 45q21 0 56 -3q42 -3 56 -3q38 -2 110 -2h32q107 0 182 6q32 2 38 2q38 0 38 -45q0 -47 -38 -47q-20 0 -55 3q-41 3 -54 4q-38 1 -111 1h-32q-104 0 -182 -5q-34 -3 -40 -3q-38 0 -38 47zM193 639q0 45 38 45q21 0 56 -3q42 -3 56 -3q38 -2 110 -2h32 q107 0 182 6q32 2 38 2q38 0 38 -45q0 -47 -38 -47q-20 0 -55 3q-41 3 -54 4q-38 1 -111 1h-32q-104 0 -182 -5q-34 -3 -40 -3q-38 0 -38 47z" />
<glyph unicode="&#x3e;" horiz-adv-x="1024" d="M129 109q0 12 21 30l475 410l-475 409q-17 12 -17 27q0 19 19 19q11 0 28 -11l629 -415q20 -16 20 -29q0 -18 -20 -31l-629 -416q-15 -10 -30 -10q-21 0 -21 17z" />
<glyph unicode="?" horiz-adv-x="956" d="M141 1087q0 146 152 225q69 36 147 36q212 0 302 -151q40 -68 40 -146q0 -104 -47 -186q-38 -65 -125.5 -146t-110.5 -110q-54 -69 -53 -142q0 -14 1.5 -43.5t1.5 -44.5q0 -27 -25 -27q-27 0 -27 27q0 32 -1 86q-1 63 -1 86q-1 89 30 152q27 55 96 124q126 126 126 263 q0 85 -60 140q-59 52 -145 52q-75 0 -133 -34q-68 -38 -80 -107q40 0 69.5 -25.5t29.5 -64.5q0 -35 -25.5 -61.5t-60.5 -26.5q-47 0 -75 40q-26 35 -26 84zM317 90q0 46 31.5 77.5t77.5 31.5q45 0 75.5 -32t30.5 -77q0 -44 -31 -75t-75 -31q-46 0 -77.5 30t-31.5 76z" />
<glyph unicode="@" horiz-adv-x="1483" d="M76 608q0 303 218 523q215 217 521 217q256 0 423 -154t167 -401q0 -139 -68 -271q-70 -136 -186 -206q-71 -44 -137 -44q-112 0 -142 111q-31 -45 -91 -80q-63 -37 -115 -37q-115 0 -176 88q-54 77 -54 197q0 46 10 102q40 221 221 335q82 52 169 52q71 0 135 -34h119 l-95 -529q-6 -33 -6 -51q0 -76 74 -76q86 0 178 132q96 139 96 306q0 298 -247 422q-114 56 -242 56q-266 0 -450.5 -196t-184.5 -456q0 -357 271 -507q128 -72 290 -72q249 0 445 135q9 6 16 6q18 0 18 -22q0 -15 -10 -23q-144 -109 -327 -150q-85 -18 -162 -18 q-281 0 -479.5 185.5t-198.5 459.5zM571 547q0 -195 131 -195q69 0 126 65q50 58 63 130l65 371q-39 55 -131 55q-119 0 -195 -160q-34 -73 -50 -160q-9 -50 -9 -106z" />
<glyph unicode="A" horiz-adv-x="1190" d="M-76 29q0 37 31 37q117 -3 121 -3h12l481 1266q9 23 37 23q27 0 35 -23l463 -1266l92 2l43 1q31 0 31 -37q0 -35 -31 -35q-15 0 -42 3q-31 4 -41 5q-45 2 -126 2h-24q-137 0 -186 -8q-17 -2 -23 -2q-31 0 -31 35q0 38 31 37l135 -3l-127 351h-502l-133 -351h14 q94 0 112 3h15q31 0 31 -37q0 -35 -31 -35q-12 0 -33 3q-26 4 -34 5q-35 2 -105 2h-10q-115 0 -154 -8q-13 -2 -20 -2q-31 0 -31 35zM332 487h446l-219 605z" />
<glyph unicode="B" horiz-adv-x="1143" d="M102 29q0 37 31 37q7 0 46 -1l93 -2v1188h-98q-13 -1 -41 -2q-31 -1 -31 37q0 35 31 35q35 0 104.5 -5t104.5 -5q36 0 108.5 2t108.5 2q215 0 332 -90q108 -85 108 -226q0 -100 -71 -183q-67 -78 -166 -107q136 -25 226 -119q95 -99 95 -234q0 -186 -136 -279 q-117 -81 -312 -81q-49 0 -146.5 4t-146.5 4q-139 0 -185 -8q-16 -2 -24 -2q-31 0 -31 35zM436 76h191q200 0 250 114q26 60 26 166q0 140 -76.5 216.5t-216.5 76.5h-174v-573zM436 723h88q153 0 221 61q72 64 72 215q0 138 -71 192q-61 48 -205 48h-105v-516z" />
<glyph unicode="C" horiz-adv-x="1161" d="M98 657q0 184 65 338q73 171 212 266q128 87 274 87q145 0 243 -67q42 -30 85 -73q41 41 41 97q0 34 29 34q32 0 32 -32v-426q0 -33 -30 -33q-31 0 -31 33q0 167 -101 277t-251 110q-250 0 -334 -251q-45 -135 -45 -360q0 -431 173 -552q83 -58 206 -58q112 0 199 64.5 t126 170.5q27 73 27 152q0 33 31 33q30 0 30 -33v-426q0 -35 -32 -35q-29 0 -29 37q0 62 -41 96q-95 -95 -189 -124q-59 -17 -139 -17q-226 0 -387 193q-164 196 -164 499z" />
<glyph unicode="D" horiz-adv-x="1348" d="M102 29q0 37 31 37q7 0 46 -1l93 -2v1188h-98q-13 -1 -41 -2q-31 -1 -31 37q0 35 31 35q34 0 103.5 -5t105.5 -5q1 0 120 2l169 4h69q230 0 390 -182q161 -185 161 -478q0 -177 -66 -325q-73 -162 -210 -252q-127 -84 -275 -84q-60 0 -179 4t-179 4q-139 0 -185 -8 q-16 -2 -24 -2q-31 0 -31 35zM436 80q116 -4 264 -4q220 0 304 194q57 131 57 387q0 257 -57 388q-84 194 -304 194q-83 0 -157 -1l-107 -3v-1155z" />
<glyph unicode="E" horiz-adv-x="1126" d="M102 29q0 37 31 37q7 0 46 -1l93 -2v1188h-98q-13 -1 -41 -2q-31 -1 -31 37q0 35 31 35q35 0 104.5 -5t104.5 -5q75 0 195 1q154 2 194 3h119q19 0 57.5 4t57.5 4q30 0 30 -37v-61q0 -25 6 -135l5 -113q0 -31 -33 -31q-35 0 -35 31q0 262 -168 262h-334v-516h201 q108 0 108 158q0 30 29 30q27 0 27 -30v16l-2 -68q-2 -100 -2 -143q0 -82 2 -141l2 -53q0 -31 -27 -31q-29 0 -29 31q0 157 -108 157h-201v-573h385q168 0 168 262q0 31 35 31q33 0 33 -31q0 -41 -5 -124t-5 -124v-63q0 -35 -31 -35q-19 0 -57.5 4t-57.5 4q-38 0 -279 2 l-280 2q-139 0 -185 -8q-16 -2 -24 -2q-31 0 -31 35z" />
<glyph unicode="F" horiz-adv-x="1059" d="M102 29q0 37 31 37q7 0 46 -1l93 -2v1188h-98q-13 -1 -41 -2q-31 -1 -31 37q0 35 31 35q35 0 104.5 -5t104.5 -5q76 0 199 1q155 2 199 3h145q19 0 57 4t57 4q31 0 31 -37v-61q0 -41 5 -124t5 -124q0 -31 -32 -31q-35 0 -35 31q0 262 -168 262h-369v-516h236 q108 0 108 158q0 30 27 30q29 0 29 -30q0 -32 -2.5 -97t-2.5 -98q0 -32 2.5 -97t2.5 -97q0 -31 -29 -31q-27 0 -27 31q0 157 -108 157h-236v-586l139 3q31 0 31 -37q0 -35 -31 -35q-15 0 -41 3q-31 4 -41 5q-45 2 -126 2h-25q-139 0 -185 -8q-16 -2 -24 -2q-31 0 -31 35z " />
<glyph unicode="G" horiz-adv-x="1280" d="M98 657q0 183 63 336q71 173 208 268q125 87 272 87q192 0 350 -154q43 35 43 111q0 34 29 34q33 0 33 -32v-426q0 -33 -31 -33t-31 33q0 165 -112.5 276t-264.5 111q-278 0 -345 -322q-25 -121 -25 -289q0 -332 97 -476q90 -134 273 -134q212 0 279 193q29 85 29 178v28 h-99q-13 -1 -41 -2q-30 -1 -30 35q0 37 30 37q34 0 103 -5t104 -5h27q88 0 147 5l60 5q30 0 30 -37q0 -36 -30 -35q-68 2 -140 2v-20q0 -216 -140 -341q-136 -120 -345 -120q-225 0 -382 192q-161 197 -161 500z" />
<glyph unicode="H" horiz-adv-x="1417" d="M102 29q0 37 31 37q7 0 46 -1l93 -2v1188h-98q-13 -1 -41 -2q-31 -1 -31 37q0 35 31 35q35 0 104.5 -5t104.5 -5h25q87 0 147 5l61 5q31 0 31 -35q0 -38 -31 -37q-62 2 -139 2v-528h545v528h-99q-13 -1 -40 -2q-31 -1 -31 37q0 35 31 35q122 -10 209 -10h24q87 0 148 5 l61 5q31 0 31 -35q0 -38 -31 -37q-62 2 -141 2v-1188l141 3q31 0 31 -37q0 -35 -31 -35q-15 0 -42 3q-31 4 -41 5q-45 2 -126 2h-24q-137 0 -186 -8q-17 -2 -23 -2q-31 0 -31 35q0 38 31 37l139 -3v586h-545v-586l139 3q31 0 31 -37q0 -35 -31 -35q-15 0 -41 3q-31 4 -41 5 q-45 2 -126 2h-25q-139 0 -185 -8q-16 -2 -24 -2q-31 0 -31 35z" />
<glyph unicode="I" horiz-adv-x="709" d="M102 29q0 37 31 37q7 0 46 -1l93 -2v1188h-98q-13 -1 -41 -2q-31 -1 -31 37q0 35 31 35q35 0 104.5 -5t104.5 -5h25q87 0 147 5l61 5q31 0 31 -35q0 -38 -31 -37q-62 2 -139 2v-1188l139 3q31 0 31 -37q0 -35 -31 -35q-15 0 -41 3q-31 4 -41 5q-45 2 -126 2h-25 q-139 0 -185 -8q-16 -2 -24 -2q-31 0 -31 35z" />
<glyph unicode="J" horiz-adv-x="682" d="M16 -180q0 92 82 92q34 0 58 -25t24 -59q0 -65 -61 -80q19 -22 59 -22q94 0 94 135v1390h-98q-13 -1 -41 -2q-31 -1 -31 37q0 35 31 35q35 0 104.5 -5t104.5 -5h25q87 0 147 5l61 5q31 0 31 -35q0 -38 -31 -37q-62 2 -139 2v-1200q0 -230 -114 -323q-57 -45 -134 -45 q-72 0 -118 32q-54 36 -54 105z" />
<glyph unicode="K" horiz-adv-x="1212" d="M102 29q0 37 31 37q7 0 46 -1l93 -2v1188h-98q-13 -1 -41 -2q-31 -1 -31 37q0 35 31 35q35 0 104.5 -5t104.5 -5h25q87 0 147 5l61 5q31 0 31 -35q0 -38 -31 -37q-62 2 -139 2v-604l506 604h-4q-65 0 -121 -2q-31 -1 -31 37q0 35 31 35q28 0 85.5 -5t86.5 -5h10 q76 0 124 5l51 5q30 0 30 -35q0 -38 -30 -37q-58 2 -127 2h-7l-456 -546l540 -642l117 3q31 0 31 -37q0 -35 -31 -35q-15 0 -42 3q-31 4 -41 5q-45 2 -126 2h-24q-137 0 -186 -8q-17 -2 -23 -2q-31 0 -31 35q0 37 31 37q6 0 38 -1l76 -2l-477 568v-568l139 3q31 0 31 -37 q0 -35 -31 -35q-15 0 -41 3q-31 4 -41 5q-45 2 -126 2h-25q-139 0 -185 -8q-16 -2 -24 -2q-31 0 -31 35z" />
<glyph unicode="L" horiz-adv-x="1049" d="M102 29q0 37 31 37q7 0 46 -1l93 -2v1188h-98q-13 -1 -41 -2q-31 -1 -31 37q0 35 31 35q35 0 104.5 -5t104.5 -5h25q87 0 147 5l61 5q31 0 31 -35q0 -38 -31 -37q-62 2 -139 2v-1175h369q168 0 168 262q0 31 35 31q32 0 32 -31q0 -41 -5 -124t-5 -124v-63q0 -35 -31 -35 q-19 0 -57 4t-57 4h2l-429 4h-116q-139 0 -185 -8q-16 -2 -24 -2q-31 0 -31 35z" />
<glyph unicode="M" horiz-adv-x="1645" d="M102 29q0 37 31 37q7 0 46 -1l93 -2v1188h-98q-13 -1 -41 -2q-31 -1 -31 37q0 35 31 35q15 0 40 -3q31 -3 41 -4q48 -3 97 -3h88q33 0 41 -33q2 -11 6 -27l371 -1028l391 1028q6 21 21 52q8 8 22 8h52q89 0 148 5l60 5q31 0 31 -35q0 -38 -31 -37q-62 2 -141 2v-1188 l141 3q31 0 31 -37q0 -35 -31 -35q-15 0 -41 3q-31 4 -42 5q-44 2 -125 2h-27q-139 0 -184 -8q-15 -2 -23 -2q-31 0 -31 35q0 37 31 37q7 0 46 -1l93 -2v977l-401 -1056q-8 -21 -35 -21q-25 0 -35 21l-389 1063v-984l139 3q31 0 31 -37q0 -35 -31 -35q-14 0 -38 3 q-30 3 -39 4q-48 3 -99 3q-85 0 -152 -8q-22 -2 -26 -2q-31 0 -31 35z" />
<glyph unicode="N" horiz-adv-x="1358" d="M86 29q0 38 31 37l139 -3v1188h-99q-13 -1 -40 -2q-31 -1 -31 37q0 35 31 35q50 -5 79 -7q36 -2 97 -3q14 0 41.5 2t40.5 2q30 0 78 -76l575 -920v932h-100q-14 -1 -41 -2q-31 -1 -31 37q0 35 31 35q15 0 40 -3q32 -3 41 -4q48 -3 97 -3q38 0 113 5q66 4 66 5h-1 q31 0 31 -35q0 -38 -31 -37q-62 2 -141 2v-1220q0 -58 -29 -58q-21 0 -47 41l-694 1114v-1065l139 3q31 0 31 -37q0 -35 -31 -35q-96 10 -178 10q-83 0 -152 -8l-24 -2q-31 0 -31 35z" />
<glyph unicode="O" horiz-adv-x="1315" d="M98 657q0 303 163 499q160 192 396 192t395 -189q165 -197 165 -502t-165 -501q-161 -191 -395 -191q-233 0 -396 195.5t-163 496.5zM287 657q0 -336 92 -476q88 -134 278 -134q191 0 279 134q92 140 92 476q0 337 -92 479q-86 132 -279 132q-192 0 -277 -132 q-93 -142 -93 -479z" />
<glyph unicode="P" horiz-adv-x="1083" d="M102 29q0 37 31 37q7 0 46 -1l93 -2v1188h-98q-13 -1 -41 -2q-31 -1 -31 37q0 35 31 35q34 0 103.5 -5t105.5 -5q35 0 116 2q75 2 117 2q294 0 405 -181q52 -87 52 -202q0 -242 -208 -337q-104 -48 -249 -48h-139v-484l139 3q31 0 31 -37q0 -35 -31 -35q-15 0 -41 3 q-31 4 -41 5q-45 2 -126 2h-25q-139 0 -185 -8q-16 -2 -24 -2q-31 0 -31 35zM436 621h139q201 0 251 126q26 67 26 185q0 224 -114 278q-61 29 -163 29h-139v-618z" />
<glyph unicode="Q" horiz-adv-x="1315" d="M98 657q0 303 163 499q160 192 396 192t395 -189q165 -197 165 -502q0 -374 -236 -571q-110 -92 -244 -113v-129q0 -245 219 -245q122 0 203 112q30 41 51 41q29 0 29 -31q0 -53 -108 -125q-95 -63 -197 -63q-171 0 -265 92.5t-94 263.5v84q-205 33 -339 219 q-138 191 -138 465zM287 657q0 -336 92 -476q88 -134 278 -134q191 0 279 134q92 140 92 476q0 337 -92 479q-86 132 -279 132q-192 0 -277 -132q-93 -142 -93 -479z" />
<glyph unicode="R" horiz-adv-x="1178" d="M102 29q0 37 31 37q7 0 46 -1l93 -2v1188h-98q-13 -1 -41 -2q-31 -1 -31 37q0 35 31 35q34 0 103.5 -5t105.5 -5q34 1 98 2h119q287 0 392 -151q48 -71 48 -163q0 -151 -136 -241q-61 -40 -122 -51q174 -38 250 -208q33 -76 33 -145q0 -91 -8 -193q-2 -18 -2 -44 q0 -80 51 -80q65 0 65 59q0 35 33 35t33 -33q0 -52 -39 -85t-92 -33q-155 0 -193 158q-20 79 -20 216q0 147 -52 216q-59 79 -200 79h-164v-586l139 3q31 0 31 -37q0 -35 -31 -35q-15 0 -41 3q-31 4 -41 5q-45 2 -126 2h-25q-139 0 -185 -8q-16 -2 -24 -2q-31 0 -31 35z M436 723h123q258 0 258 276q0 173 -99 216q-56 24 -159 24h-123v-516z" />
<glyph unicode="S" horiz-adv-x="989" d="M104 989q0 213 196 315q85 44 177 44q170 0 254 -93q28 21 36 61q5 30 28 30q32 0 32 -31v-332q0 -33 -30 -33q-31 0 -31 33q0 132 -75.5 207.5t-207.5 75.5q-149 0 -215 -115q-32 -56 -32 -129q0 -174 210 -238l99 -30q175 -53 272 -145q101 -96 101 -253 q0 -175 -123.5 -283t-300.5 -108q-156 0 -283 113q-39 -20 -39 -72q0 -35 -29 -35q-32 0 -32 33v381q0 33 30 33q31 0 31 -33q0 -205 156 -289q74 -41 174 -41q153 0 233 113q39 56 39 133q0 135 -124 208q-52 31 -118 50l-79 23q-172 50 -260.5 156.5t-88.5 250.5z" />
<glyph unicode="T" horiz-adv-x="1081" d="M27 977q0 5 2 29l3 62q5 86 5 157v61q0 37 31 37q19 0 56.5 -4t55.5 -4l400 -4l319 4q19 0 57 4t58 4q30 0 30 -37v-61q0 -25 6 -135l5 -113q0 -31 -33 -31t-33 31q0 262 -170 262h-198v-1176l141 3q31 0 31 -37q0 -35 -31 -35q-15 0 -42 3q-31 4 -41 5q-45 2 -126 2h-25 q-139 0 -185 -8q-16 -2 -24 -2q-30 0 -30 35q0 37 30 37q7 0 46 -1l94 -2v1176h-197q-170 0 -170 -262q0 -31 -35 -31q-30 0 -30 31z" />
<glyph unicode="U" horiz-adv-x="1296" d="M59 1286q0 35 31 35q35 0 104.5 -5t104.5 -5h25q87 0 147 5l61 5q31 0 31 -35q0 -38 -31 -37q-64 2 -139 2v-944q0 -126 91 -196q82 -64 212 -64q191 0 269 146q36 69 36 153v905h-98q-13 -1 -41 -2q-31 -1 -31 37q0 35 31 35q15 0 40 -3q31 -3 41 -4q48 -3 97 -3 q38 0 112 5q66 4 66 5h-1q30 0 30 -35q0 -38 -30 -37q-66 2 -140 2v-905q0 -242 -210 -337q-96 -44 -214 -44q-183 0 -299 98q-123 104 -123 283v905h-100q-13 -1 -41 -2q-31 -1 -31 37z" />
<glyph unicode="V" horiz-adv-x="1155" d="M-76 1286q0 35 31 35q122 -10 209 -10h26q88 0 147 5l60 5q31 0 31 -35q0 -38 -31 -37q-64 2 -135 2l354 -1020l373 1020h-12h-93q-12 -1 -34 -2q-31 -1 -31 37q0 35 31 35q28 0 85.5 -5t86.5 -5h10q78 0 125 5l47 5q31 0 31 -35q0 -38 -31 -37q-56 2 -119 2h-14 l-465 -1267q-8 -21 -37 -21q-25 0 -32 21l-449 1267h-94q-13 -1 -39 -2q-31 -1 -31 37z" />
<glyph unicode="W" horiz-adv-x="1626" d="M-76 1286q0 35 31 35q122 -10 209 -10h14q26 0 78 5t78 5q31 0 31 -35q0 -38 -31 -37q-60 2 -84 2l360 -1038l160 436l-213 602q-24 0 -82 -2q-31 -1 -31 37q0 35 31 35q26 0 78 -5t78 -5h401q27 0 80.5 5t79.5 5q31 0 31 -35q0 -38 -31 -37q-52 2 -107 2h-14l-182 -495 l188 -543l381 1038h-14q-59 0 -113 -2q-31 -1 -31 37q0 35 31 35q26 0 79.5 -5t80.5 -5h10q75 0 123 5l49 5q31 0 31 -35q0 -38 -31 -37q-54 2 -121 2h-14l-465 -1267q-8 -21 -35 -21q-24 0 -34 21l-195 555l-203 -555q-8 -21 -37 -21q-25 0 -32 21l-449 1267h-94 q-13 -1 -39 -2q-31 -1 -31 37zM717 1251l133 -383l139 383h-272z" />
<glyph unicode="X" horiz-adv-x="1090" d="M-39 29q0 37 31 37q117 -3 119 -3h8l358 562l-338 626q-69 0 -131 -2q-31 -1 -31 37q0 35 31 35q35 0 104.5 -5t104.5 -5h25q87 0 147 5l62 5q30 0 30 -35q0 -38 -30 -37q-64 2 -127 2l254 -469l299 469h-9h-91q-12 -1 -34 -2q-30 -1 -30 37q0 35 30 35q28 0 85.5 -5 t86.5 -5h11q77 0 124 5l48 5q30 0 30 -35q0 -38 -30 -37q-56 2 -119 2h-8l-350 -549l348 -639l131 3q30 0 30 -37q0 -35 -30 -35q-15 0 -42 3q-31 4 -41 5q-45 2 -126 2h-25q-139 0 -185 -8q-16 -2 -24 -2q-30 0 -30 35q0 38 30 37l127 -3l-264 486l-309 -486h10q7 0 85 2 l40 1q31 0 31 -37q0 -35 -31 -35q-12 0 -34 3q-26 4 -34 5q-35 2 -104 2h-10q-118 0 -152 -8q-12 -2 -20 -2q-31 0 -31 35z" />
<glyph unicode="Y" horiz-adv-x="1010" d="M-82 1286q0 35 31 35q122 -10 209 -10h24q87 0 148 5l61 5q31 0 31 -35q0 -38 -31 -37q-60 2 -129 2l293 -553l291 553h-10h-93q-12 -1 -34 -2q-31 -1 -31 37q0 35 31 35q28 0 85.5 -5t86.5 -5h10q77 0 124 5l48 5q31 0 31 -35q0 -38 -31 -37q-58 2 -119 2h-10l-334 -628 v-560l139 3q31 0 31 -37q0 -35 -31 -35q-15 0 -42 3q-31 4 -41 5q-45 2 -126 2h-24q-137 0 -186 -8q-17 -2 -23 -2q-31 0 -31 35q0 38 31 37l139 -3v512l-358 676q-67 0 -129 -2q-31 -1 -31 37z" />
<glyph unicode="Z" horiz-adv-x="922" d="M45 977q0 5 2 29l3 62q5 86 5 157v61q0 37 31 37q19 0 57.5 -4t57.5 -4h469q21 0 64 1t65 1q65 0 65 -27q-3 -11 -18 -51l-598 -1163h403q170 0 170 262q0 31 35 31q31 0 31 -31q0 -41 -5 -124t-5 -124v-63q0 -35 -31 -35q-19 0 -56.5 4t-56.5 4h-452q-52 0 -115 -5 l-66 -5q-32 0 -43 10q-4 4 -4 18q5 39 15 58l598 1163h-385q-170 0 -170 -262q0 -31 -33 -31t-33 31z" />
<glyph unicode="[" horiz-adv-x="733" d="M231 -139q0 18 4.5 55.5t4.5 56.5v1262q0 19 -4.5 57t-4.5 56q0 30 35 30h121q53 0 158 5.5t90 5.5q31 0 31 -31q0 -35 -31 -35h-262v-1438h262q31 0 31 -35q0 -30 -31 -30q26 0 -107 7q-57 3 -141 3h-121q-35 0 -35 31z" />
<glyph unicode="\" horiz-adv-x="713" d="M27 1284q0 42 28 53q8 4 21 4q24 0 37 -22q18 -29 54 -129q46 -124 52 -139l348 -822q32 -75 95 -198q0 -43 -29 -56q-9 -4 -21 -4q-24 0 -37 23q-24 70 -77 207l-348 821q-42 100 -85 188l-23 46q-7 13 -15 28z" />
<glyph unicode="]" horiz-adv-x="733" d="M68 -150q0 35 30 35h264v1438h-264q-30 0 -30 35q0 31 30 31q20 0 54 -4q41 -4 54 -4q45 -3 140 -3h121q37 0 37 -30q0 -19 -4 -56.5t-4 -56.5v-1262q0 -19 4 -56t4 -56q0 -31 -37 -31h-121q-166 0 -221 -8q-19 -2 -27 -2q-30 0 -30 30z" />
<glyph unicode="^" horiz-adv-x="993" d="M94 743q0 12 10 27l365 561q14 21 29 21q16 0 30 -21l365 -561q10 -15 10 -31q0 -18 -16 -18q-15 0 -31 18l-358 408l-359 -408q-11 -16 -26 -16q-19 0 -19 20z" />
<glyph unicode="_" horiz-adv-x="733" d="M-2 0h737v-90h-737v90z" />
<glyph unicode="`" horiz-adv-x="827" d="M90 1307q0 25 14 41q22 26 56 26q22 0 43 -16q44 -58 113 -144q39 -45 110 -104q6 -6 6 -16q0 -25 -22 -25q-8 0 -15 6q-93 81 -219 143q-51 24 -61 33q-25 23 -25 56z" />
<glyph unicode="a" horiz-adv-x="854" d="M78 162q0 181 234 245q105 29 229 29v201q0 137 -133 137q-96 0 -132 -49q37 -23 37 -70q0 -35 -24.5 -60.5t-59.5 -25.5t-59.5 25.5t-24.5 60.5q0 99 140 157q60 24 123 24q278 0 278 -277v-448q0 -74 39 -74q17 0 35.5 25.5t36.5 25.5q14 0 26 -12q4 -4 4 -17 q0 -23 -14 -34q-61 -48 -139 -48q-109 0 -129 119q-135 -123 -269 -123q-87 0 -142.5 51.5t-55.5 137.5zM231 188q0 -50 30 -86q32 -39 81 -39q87 0 199 99v215q-310 0 -310 -189z" />
<glyph unicode="b" horiz-adv-x="1032" d="M39 31q0 37 31 37q21 0 65 -4.5t66 -4.5v1192q-54 0 -103 -4q-24 -2 -28 -2q-31 0 -31 37q0 35 31 35q1 0 131 -2q20 0 58 4t56 4q31 0 31 -37v-598q88 148 244 148q209 0 301 -208q43 -100 43 -227q0 -265 -165 -381q-79 -55 -179 -55q-160 0 -244 150v-88 q0 -37 -31 -37q-2 0 -49 5q-41 5 -65 5q-54 0 -103 -4q-24 -2 -28 -2q-31 0 -31 37zM346 401q0 -140 50 -239q64 -127 190 -127q184 0 184 366q0 367 -184 367q-127 0 -190 -128q-50 -99 -50 -239z" />
<glyph unicode="c" horiz-adv-x="836" d="M98 401q0 183 92 303q101 132 279 132q170 0 255 -113q40 -53 40 -115q0 -106 -94 -106q-38 0 -64 26t-26 64q0 79 73 90q-42 88 -159 88q-157 0 -206 -155q-26 -82 -26 -214q0 -364 234 -364q160 0 215 170q11 33 32 33q31 0 31 -31q0 -20 -8 -39q-87 -205 -297 -205 q-228 0 -324 210q-47 100 -47 226z" />
<glyph unicode="d" horiz-adv-x="1032" d="M98 401q0 267 167 381q79 54 179 54q156 0 242 -148v563q-55 0 -102 -4q-24 -2 -29 -2q-31 0 -31 37q0 35 31 35q-1 0 131 -2q20 0 58.5 4t56.5 4q30 0 30 -37v-1227q22 0 66 4.5t66 4.5q30 0 30 -37t-30 -37h4q0 1 -78 5q-19 1 -58 1q-42 0 -114 -10q-31 0 -31 37v88 q-86 -150 -242 -150q-210 0 -302 210q-44 100 -44 226zM262 401q0 -366 184 -366q127 0 191 127q49 98 49 239t-49 240q-64 127 -191 127q-184 0 -184 -367z" />
<glyph unicode="e" horiz-adv-x="897" d="M98 401q0 189 115 315q110 120 262 120q202 0 288 -156q40 -73 40 -162q0 -26 -2 -41h-537q-2 -22 -2 -76q0 -242 109 -325q52 -41 127 -41q186 0 245 172q17 33 33 33q33 0 33 -31q0 -20 -8 -39q-87 -205 -328 -205q-99 0 -187 60q-83 56 -133 147q-55 99 -55 229z M274 549h363q12 36 12 69q0 152 -155 152q-184 0 -220 -221z" />
<glyph unicode="f" horiz-adv-x="641" d="M43 770q0 35 31 35q63 0 166 -2v221q0 221 125 292q58 32 139 32q116 0 170 -83q24 -37 24 -77q0 -42 -23 -71q-24 -32 -65 -32q-38 0 -65 27.5t-27 65.5q0 67 68 88q-28 34 -80 34q-121 0 -121 -126v-371q102 2 182 2q31 0 31 -35t-31 -35q-18 0 -60 2l-51 2h-71v-676 l131 3q31 0 31 -37q0 -35 -31 -35q-14 0 -39 3q-29 4 -39 5q-43 2 -123 2h-8q-134 0 -177 -8q-15 -2 -21 -2q-31 0 -31 35q0 37 31 37q7 0 42 -1l89 -2v676h-72l-44 -2q-34 -2 -50 -2q-31 0 -31 35z" />
<glyph unicode="g" horiz-adv-x="883" d="M66 -274q0 147 165 227q-145 29 -145 172q0 68 50 114q46 42 116 54q-139 86 -139 248q0 170 151 256q69 39 154 39q149 0 237 -107q8 103 78 143q30 17 62 17q48 0 85.5 -29t37.5 -76q0 -34 -20.5 -59t-53.5 -25q-31 0 -53.5 21.5t-22.5 52.5q0 29 20 49q-86 0 -86 -118 q0 -25 10.5 -79.5t10.5 -84.5q0 -126 -89 -211q-88 -84 -213 -84h-3q-25 2 -74 6h-31q-137 0 -137 -86q0 -50 71 -59q35 -5 91 -5h186q196 0 269 -142q34 -65 34 -146q0 -221 -200 -315q-92 -42 -203 -42q-138 0 -239 64q-119 74 -119 205zM174 -264q0 -101 76 -162 q70 -57 174 -57q195 0 277 128q36 58 36 117q0 183 -223 183h-211q-129 -72 -129 -209zM262 541q0 -238 156 -238q155 0 155 238q0 239 -155 239q-156 0 -156 -239z" />
<glyph unicode="h" horiz-adv-x="1065" d="M39 29q0 38 31 37l131 -3v1188q-54 0 -103 -4q-24 -2 -28 -2q-31 0 -31 37q0 35 31 35q1 0 131 -2q20 0 58 4t56 4q31 0 31 -37v-682q36 93 116 160q87 72 181 72q254 0 254 -304v-469l133 3q31 0 31 -37q0 -35 -31 -35q-14 0 -39 3q-29 4 -39 5q-43 2 -123 2h-8 q-136 0 -179 -8q-15 -2 -21 -2q-31 0 -31 35q0 38 31 37l133 -3v539q0 78 -22 113q-28 43 -101 43q-109 0 -197 -118t-88 -269v-308l131 3q31 0 31 -37q0 -35 -31 -35q-14 0 -38 3q-28 4 -38 5q-41 2 -122 2h-9q-136 0 -179 -8q-15 -2 -21 -2q-31 0 -31 35z" />
<glyph unicode="i" horiz-adv-x="586" d="M78 29q0 37 31 37q7 0 42 -1l89 -2v676q-56 0 -103 -4q-23 -2 -28 -2q-31 0 -31 37q0 35 31 35q-1 0 131 -2q20 0 58 4t56 4q31 0 31 -37v-711l131 3q31 0 31 -37q0 -35 -31 -35q-14 0 -39 3q-29 4 -39 5q-43 2 -123 2h-8q-134 0 -177 -8q-15 -2 -21 -2q-31 0 -31 35z M221 1137q0 38 26 64t64 26t64 -26t26 -64q0 -37 -26.5 -63.5t-63.5 -26.5t-63.5 26.5t-26.5 63.5z" />
<glyph unicode="j" horiz-adv-x="559" d="M-16 -391q0 92 82 92q81 0 81 -84q0 -60 -61 -80q19 -22 57 -22q97 0 97 135v1089q-56 0 -103 -4q-23 -2 -28 -2q-31 0 -31 37q0 35 31 35q-1 0 131 -2q20 0 58 4t56 4q31 0 31 -37v-983q0 -133 -48 -216q-60 -103 -183 -103q-66 0 -115 35q-55 38 -55 102zM221 1196 q0 38 26 64t64 26t64 -26t26 -64t-26 -64t-64 -26t-64 26t-26 64z" />
<glyph unicode="k" horiz-adv-x="989" d="M39 29q0 37 31 37q22 0 65.5 -2.5t65.5 -2.5v1190q-54 0 -103 -4q-24 -2 -28 -2q-31 0 -31 37q0 35 31 35q1 0 131 -2q20 0 58 4t56 4q31 0 31 -37v-840l375 293h-21q-18 0 -53 -2t-53 -2q-31 0 -31 37q0 35 31 35h-4q0 -1 79 -9q32 -3 99 -3h12q102 0 150 9q16 3 24 3 q31 0 31 -35q0 -37 -31 -37q-18 0 -53 2t-53 2h-33l-323 -252l409 -428q14 0 42 2t42 2q31 0 31 -36q0 -35 -31 -35q-11 0 -37 4q-30 4 -37 5q-34 3 -100 3h-6q-98 0 -149 -9q-17 -3 -25 -3q-31 0 -31 35q0 36 31 36q12 0 35.5 -2t35.5 -2l-356 375v-373q22 0 65.5 2.5 t65.5 2.5q31 0 31 -37q0 -35 -31 -35q-11 0 -39 4q-33 4 -40 5q-38 3 -119 3h-9q-124 0 -176 -9q-18 -3 -24 -3q-31 0 -31 35z" />
<glyph unicode="l" horiz-adv-x="549" d="M39 29q0 38 31 37l131 -3v1188q-54 0 -103 -4q-24 -2 -28 -2q-31 0 -31 37q0 35 31 35q1 0 131 -2q20 0 58 4t56 4q31 0 31 -37v-1223l131 3q31 0 31 -37q0 -35 -31 -35q-14 0 -38 3q-28 4 -38 5q-41 2 -122 2h-9q-136 0 -179 -8q-15 -2 -21 -2q-31 0 -31 35z" />
<glyph unicode="m" horiz-adv-x="1593" d="M78 29q0 37 31 37q7 0 42 -1l89 -2v676q-56 0 -103 -4q-23 -2 -28 -2q-31 0 -31 37q0 35 31 35q-1 0 131 -2q20 0 58 4t56 4q31 0 31 -37v-170q33 91 108 158q83 74 173 74q143 0 200 -112q27 -53 35 -126q36 94 110 162q83 76 175 76q239 0 239 -304v-469l131 3 q31 0 31 -37q0 -35 -31 -35q-14 0 -38 3q-29 4 -38 5q-42 2 -122 2h-10q-131 0 -167 -8q-12 -2 -18 -2q-30 0 -30 35q0 37 30 37q19 0 58 -1.5t59 -1.5v537q0 156 -115 156q-137 0 -221 -202q-39 -93 -39 -192v-299l117 3q31 0 31 -37q0 -35 -31 -35q-12 0 -34 3 q-25 4 -34 5q-37 2 -118 2h-9q-132 0 -166 -8q-12 -2 -20 -2q-31 0 -31 35q0 37 31 37q20 0 59.5 -1.5t59.5 -1.5v537q0 156 -115 156q-137 0 -221 -202q-39 -93 -39 -192v-299q85 0 103 3h14q30 0 30 -37q0 -35 -30 -35q-12 0 -34 3q-25 4 -34 5q-38 2 -119 2h-8 q-134 0 -177 -8q-15 -2 -21 -2q-31 0 -31 35z" />
<glyph unicode="n" horiz-adv-x="1102" d="M78 29q0 37 31 37q7 0 42 -1l89 -2v676q-56 0 -103 -4q-23 -2 -28 -2q-31 0 -31 37q0 35 31 35q-1 0 131 -2q20 0 58 4t56 4q31 0 31 -37v-170q36 93 116 160q87 72 181 72q254 0 254 -304v-469l131 3q31 0 31 -37q0 -35 -31 -35q-14 0 -39 3q-29 4 -39 5q-43 2 -123 2 h-8q-135 0 -177 -8q-14 -2 -22 -2q-30 0 -30 35q0 37 30 37q7 0 43 -1l89 -2v539q0 78 -22 113q-28 43 -101 43q-77 0 -147 -65q-59 -54 -95 -133q-41 -91 -41 -189v-308l131 3q31 0 31 -37q0 -35 -31 -35q-14 0 -39 3q-29 4 -39 5q-43 2 -123 2h-8q-134 0 -177 -8 q-15 -2 -21 -2q-31 0 -31 35z" />
<glyph unicode="o" horiz-adv-x="973" d="M98 401q0 262 194 381q89 54 195 54q224 0 335 -208q52 -99 52 -227q0 -260 -193 -381q-88 -55 -194 -55q-226 0 -336 210q-53 99 -53 226zM262 401q0 -262 97 -332q49 -36 128 -36q140 0 191 123q33 80 33 245t-33 246q-51 123 -191 123q-156 0 -201 -153 q-24 -82 -24 -216z" />
<glyph unicode="p" horiz-adv-x="1032" d="M39 -483q0 38 31 37l131 -3v1192q-59 0 -95 -4l-36 -4q-31 0 -31 37t31 35l36 -2q36 -2 95 -2q19 0 57 5t57 5q31 0 31 -37v-88q88 148 244 148q209 0 301 -208q43 -100 43 -227q0 -265 -165 -381q-79 -55 -179 -55q-160 0 -244 150v-564l131 3q31 0 31 -37 q0 -35 -31 -35q-14 0 -38 3q-28 4 -38 4q-41 3 -122 3h-9q-136 0 -179 -8q-15 -2 -21 -2q-31 0 -31 35zM346 401q0 -140 50 -239q64 -127 190 -127q184 0 184 366q0 367 -184 367q-127 0 -190 -128q-50 -99 -50 -239z" />
<glyph unicode="q" horiz-adv-x="1032" d="M98 401q0 267 167 381q79 54 179 54q156 0 242 -148v88q0 37 31 37q19 0 57 -5t57 -5q59 0 95 2l37 2q30 0 30 -35q0 -37 -30 -37q-74 8 -132 8v-1192l132 3q30 0 30 -37q0 -35 -30 -35q-14 0 -39 3q-29 4 -38 4q-42 3 -122 3h-10q-135 0 -177 -8q-14 -2 -22 -2 q-31 0 -31 35q0 38 31 37l131 -3v564q-86 -150 -242 -150q-210 0 -302 210q-44 100 -44 226zM262 401q0 -366 184 -366q127 0 191 127q49 98 49 239t-49 240q-64 127 -191 127q-184 0 -184 -367z" />
<glyph unicode="r" horiz-adv-x="774" d="M78 29q0 37 31 37q7 0 42 -1l89 -2v676q-56 0 -103 -4q-23 -2 -28 -2q-31 0 -31 37q0 35 31 35q-1 0 131 -2q20 0 58 4t56 4q31 0 31 -37v-102q63 164 229 164q61 0 103 -28q49 -33 49 -91q0 -44 -23 -74q-26 -33 -69 -33q-38 0 -65 27t-27 65t24 62q-16 4 -28 4 q-107 0 -164 -158q-29 -80 -29 -194v-353l131 3q31 0 31 -37q0 -35 -31 -35q-14 0 -39 3q-29 4 -39 5q-43 2 -123 2h-8q-134 0 -177 -8q-15 -2 -21 -2q-31 0 -31 35z" />
<glyph unicode="s" horiz-adv-x="795" d="M78 184q0 92 90 92q25 0 48.5 -22t23.5 -47q0 -58 -56 -76q28 -48 98 -76q60 -24 124 -24q79 0 137 37q67 43 67 118q0 83 -172 133l-86 25q-146 42 -198 102q-48 54 -48 140q0 163 157 226q67 26 136 26q90 0 172 -39q101 -48 101 -129q0 -97 -84 -97q-28 0 -51 23 t-23 51q0 47 45 66q-41 61 -153 61q-79 0 -132 -34q-63 -40 -63 -115q0 -80 137 -119l101 -29q101 -29 151 -56q121 -67 121 -198q0 -120 -93 -190t-229 -70q-186 0 -280 123q-41 52 -41 98z" />
<glyph unicode="t" horiz-adv-x="604" d="M10 770q0 35 31 35q141 0 177 56q22 32 34 97q25 132 55 132q27 0 27 -60v-227l201 2q30 0 30 -35t-30 -35q-20 0 -70 2l-59 2h-72v-616q0 -82 61 -82q74 0 86 88q5 39 35 39q29 0 29 -33q0 -69 -61 -112q-54 -39 -126 -39q-168 0 -168 174v581q-59 0 -104 -2l-45 -2 q-31 0 -31 35z" />
<glyph unicode="u" horiz-adv-x="999" d="M6 772q0 35 31 35q72 -4 131 -4q19 0 57.5 5t57.5 5q30 0 30 -37v-573q0 -156 113 -156q139 0 224 204q38 92 38 191v301q-58 0 -94 -4l-37 -4q-31 0 -31 37q0 35 31 35q74 -4 131 -4q19 0 57.5 5t57.5 5q31 0 31 -37v-665q0 -74 38 -74q14 0 28 17q21 24 24 26q8 8 20 8 q13 0 25 -12q4 -4 4 -19q0 -24 -15 -32q-61 -48 -137 -48q-64 0 -100 48q-33 44 -33 110v66q-33 -90 -109 -158q-84 -74 -173 -74q-238 0 -238 303v471q-60 0 -95 -4l-36 -4q-31 0 -31 37z" />
<glyph unicode="v" horiz-adv-x="848" d="M-27 774q0 35 33 35q27 0 81.5 -5t82.5 -5h6q28 0 83.5 5t82.5 5q31 0 31 -35q0 -38 -31 -37q-48 2 -86 2l205 -530l213 530q-34 0 -94 -2q-31 -1 -31 37q0 35 31 35q21 0 65 -5t66 -5t65 5t64 5q30 0 30 -35q0 -38 -30 -37q-58 2 -92 2l-297 -737q-12 -29 -33 -29 q-22 0 -33 29l-287 737q-42 0 -92 -2q-33 -1 -33 37z" />
<glyph unicode="w" horiz-adv-x="1225" d="M-16 774q0 35 30 35q27 0 82.5 -5t83.5 -5h8q29 0 84.5 5t81.5 5q31 0 31 -35q0 -38 -31 -37q-52 2 -86 2l168 -514l182 543q12 35 39 35q24 0 35 -35l174 -541l172 512q-34 0 -86 -2q-30 -1 -30 37q0 35 30 35q21 0 64 -5t65 -5t65 5t64 5q31 0 31 -35q0 -38 -31 -37 q-62 2 -108 2l-248 -735q-10 -31 -31 -31q-20 0 -30 29l-187 537l-182 -537q-10 -29 -31 -29t-31 29l-256 737q-38 0 -92 -2q-30 -1 -30 37z" />
<glyph unicode="x" horiz-adv-x="860" d="M0 29q0 37 31 37q7 0 36 -1l56 -2l242 316l-230 360q-30 0 -92 -2q-31 -1 -31 37q0 35 31 35q27 0 82.5 -5t83.5 -5h16q29 0 84.5 5t81.5 5q31 0 31 -35q0 -38 -31 -37q-52 2 -86 2l152 -239l184 239q-30 0 -86 -2q-31 -1 -31 37q0 35 31 35q21 0 63 -5t64 -5t66 5t65 5 q31 0 31 -35q0 -38 -31 -37q-56 2 -92 2l-227 -295l241 -381l58 2q28 1 34 1q31 0 31 -37q0 -35 -31 -35q-12 0 -33 3q-25 4 -33 5q-34 2 -99 2h-17q-106 0 -145 -8q-13 -2 -21 -2q-30 0 -30 35q0 37 30 37q9 0 35 -1l51 -2l-164 259l-198 -259l52 2q26 1 34 1q30 0 30 -37 q0 -35 -30 -35q-10 0 -27 3q-21 4 -27 5q-26 2 -75 2q-71 0 -111 -8q-10 -2 -18 -2q-31 0 -31 35z" />
<glyph unicode="y" horiz-adv-x="831" d="M-55 -426q0 88 82 88q33 0 56 -23.5t23 -56.5q0 -52 -40 -69q7 -11 30 -11q82 0 156 189l121 311l-273 737q-36 0 -92 -2q-31 -1 -31 37q0 35 31 35q27 0 82.5 -5t83.5 -5h6q28 0 82.5 5t81.5 5q31 0 31 -35q0 -38 -31 -37q-52 2 -84 2l191 -528l200 528q-36 0 -94 -2 q-31 -1 -31 37q0 35 31 35q21 0 63 -5t64 -5t66 5t65 5q31 0 31 -35q0 -38 -31 -37q-48 2 -92 2l-348 -919q-104 -275 -189 -336q-44 -31 -96 -31q-56 0 -98 32q-47 35 -47 89z" />
<glyph unicode="z" horiz-adv-x="743" d="M68 20q0 14 12 35l401 688h-200q-109 0 -125 -68q-9 -39 -9 -116q0 -31 -34 -31q-33 0 -33 31q0 27 4 81t4 81v55q0 37 31 37q19 0 57 -4t57 -4l398 -2q24 0 24 -21q0 -13 -12 -34l-401 -691h239q107 0 126 89q9 45 9 124q0 31 35 31q31 0 31 -31t-5 -94t-5 -94v-55 q0 -37 -31 -37q-19 0 -56.5 4t-56.5 4l-434 2q-26 0 -26 20z" />
<glyph unicode="{" horiz-adv-x="733" d="M63 604q0 27 35 27q185 0 185 348q0 189 110 293q50 48 123 90l129 74q7 4 19 4q16 0 16 -17q0 -16 -14 -24q-90 -65 -127 -100q-63 -62 -88 -132.5t-25 -183.5q0 -262 -87 -325q-42 -31 -126 -52q84 -21 121 -48q47 -35 69.5 -109t22.5 -220q0 -155 55 -244 q47 -77 185 -171q12 -10 12 -21q0 -20 -19 -20q-7 0 -14 4q-116 64 -134 75q-78 47 -122 90q-106 104 -106 291q0 260 -89 320q-41 27 -96 27q-35 0 -35 24z" />
<glyph unicode="|" horiz-adv-x="553" d="M236 0v1450h90v-1450h-90z" />
<glyph unicode="}" horiz-adv-x="733" d="M53 1423q0 19 19 19q5 0 16 -6l168 -94q117 -69 167 -187q30 -71 30 -176q0 -348 184 -348q33 0 33 -27q0 -24 -33 -24q-184 0 -184 -347q0 -187 -108 -292q-56 -54 -257 -164q-7 -4 -12 -4q-21 0 -21 20q0 12 13 21q90 63 126 98q60 59 86.5 131t26.5 186q0 262 87 326 q42 30 126 51q-84 21 -121 48q-47 35 -69.5 109t-22.5 220q0 204 -95 300q-47 46 -144 116q-15 8 -15 24z" />
<glyph unicode="~" horiz-adv-x="866" d="M90 412q0 159 88 231q41 33 88 33q57 0 184 -78q114 -70 160 -70q47 0 81 42q30 37 38 87q4 25 25 25q18 0 18 -25q0 -107 -40 -179q-50 -91 -148 -91q-52 0 -178 79q-118 73 -158 73q-80 0 -115 -127q-7 -25 -27 -25q-16 0 -16 25z" />
<glyph />
<glyph unicode="&#xa1;" horiz-adv-x="641" d="M205 729q0 44 32 75.5t76 31.5t75.5 -31.5t31.5 -75.5q0 -45 -31 -76.5t-76 -31.5q-44 0 -76 32t-32 76zM215 -430q0 48 16 126q22 114 24 126q30 205 30 618q0 29 26 29q25 0 25 -29q0 -418 32 -613q13 -64 26 -129q16 -81 16 -128q0 -40 -29.5 -69t-69.5 -29 q-39 0 -67.5 29.5t-28.5 68.5z" />
<glyph unicode="&#xa2;" horiz-adv-x="938" d="M141 621q0 240 163 361q76 57 175 69v39q0 106 -4 199l-4 89q0 39 47 39q45 0 45 -39q0 69 -4 -81t-4 -207v-37q103 -8 180 -65q86 -65 86 -163q0 -104 -88 -104q-34 0 -60 26t-26 60q0 33 22.5 59.5t55.5 28.5q-48 94 -170 94v-735q157 0 215 172q10 31 33 31 q33 0 33 -31q0 -11 -11 -37q-83 -195 -270 -205v-112q0 -104 6 -183q2 -33 2 -39q0 -38 -45 -38q-47 0 -47 38q0 21 3 57q3 43 4 57q1 38 1 108v116q-160 19 -253 149q-85 118 -85 284zM305 621q0 -300 174 -357v715q-114 -32 -153 -173q-21 -74 -21 -185z" />
<glyph unicode="&#xa3;" horiz-adv-x="1030" d="M51 29q0 37 31 37q103 0 136 73q21 48 38 144l72 407q-48 0 -94 -2l-48 -2q-24 0 -24 35q6 33 37 33h141l25 137q58 316 174 406q67 51 172 51q118 0 172 -83q24 -37 24 -77q0 -103 -88 -103q-38 0 -64 27.5t-26 65.5q0 68 66 88q-19 34 -93 34q-121 0 -149 -161 l-68 -385h244q25 0 25 -33q-6 -35 -37 -35q-194 4 -244 4l-35 -194q-60 -332 -192 -433l489 13q170 5 170 262q0 31 33 31t33 -31q0 -41 -5 -124t-5 -124v-63q0 -35 -31 -35q-19 0 -57.5 4t-57.5 4q-115 0 -257 2q-237 2 -214 2h-53q-137 0 -186 -8q-17 -2 -23 -2 q-31 0 -31 35z" />
<glyph unicode="&#xa4;" horiz-adv-x="1024" d="M129 88l121 121q-72 88 -72 205q0 115 70 204l-119 119l53 56l121 -121q91 71 205 71q113 0 205 -71l118 121l56 -56q-75 -75 -123 -119q72 -91 72 -204q0 -117 -72 -205l121 -121l-54 -53l-120 121q-87 -70 -203 -70t-205 70l-121 -121zM262 414q0 -101 72.5 -172.5 t173.5 -71.5q139 0 211 122q33 56 33 122q0 139 -122 210q-57 33 -122 33q-101 0 -173.5 -71t-72.5 -172z" />
<glyph unicode="&#xa5;" horiz-adv-x="1010" d="M-82 1286q0 35 31 35q122 -10 209 -10h24q87 0 148 5l61 5q31 0 31 -35q0 -38 -31 -37q-60 2 -129 2l293 -553l291 553h-10h-93q-12 -1 -34 -2q-31 -1 -31 37q0 35 31 35q28 0 85.5 -5t86.5 -5h10q77 0 124 5l48 5q31 0 31 -35q0 -38 -31 -37q-58 2 -119 2h-10l-334 -622 q106 0 183 6l38 2q39 0 39 -47q0 -45 -39 -45q-20 0 -55 3q-40 3 -54 4q-40 1 -112 1v-147q94 0 156 5l65 5q39 0 39 -47q0 -45 -39 -45q-20 0 -55 3q-40 3 -54 4q-40 1 -112 1v-269l139 3q31 0 31 -37q0 -35 -31 -35q-15 0 -42 3q-31 4 -41 5q-45 2 -126 2h-24 q-137 0 -186 -8q-17 -2 -23 -2q-31 0 -31 35q0 38 31 37l139 -3v269q-104 0 -179 -5l-38 -3q-39 0 -39 45q0 47 39 47q36 0 108.5 -5t108.5 -5v147q-104 0 -179 -5l-38 -3q-39 0 -39 45q0 47 39 47q33 0 94 -4q65 -4 95 -4l-330 622q-67 0 -129 -2q-31 -1 -31 37z" />
<glyph unicode="&#xa6;" horiz-adv-x="432" d="M170 0v614h92v-614h-92zM170 836v614h92v-614h-92z" />
<glyph unicode="&#xa7;" horiz-adv-x="862" d="M70 692q0 125 88 205q-49 59 -49 156q0 184 174 262q75 33 147 33q167 0 259 -91q42 -43 42 -94q0 -66 -46 -93q-22 -13 -48 -13q-32 0 -56 25t-24 57q0 57 57 75q-18 32 -80 53q-53 17 -98 17q-96 0 -155 -45q-64 -50 -64 -143q0 -110 158 -152l110 -29 q299 -79 299 -294q0 -121 -86 -205q47 -60 47 -154q0 -186 -174 -264q-75 -33 -147 -33q-167 0 -258 94q-43 43 -43 93q0 106 94 106q33 0 56.5 -24.5t23.5 -57.5q0 -57 -57 -78q19 -32 80 -51q50 -16 96 -16q97 0 156 44q65 50 65 144q0 112 -158 152l-110 28 q-143 36 -223 112q-76 70 -76 181zM182 733q0 -113 197 -166l96 -26q97 -26 164 -70q33 48 33 109q0 115 -197 168l-96 26q-105 29 -164 70q-33 -48 -33 -111z" />
<glyph unicode="&#xa8;" horiz-adv-x="635" d="M66 1411q0 34 22.5 57t56.5 23t57 -23t23 -57q0 -33 -23.5 -56.5t-56.5 -23.5t-56 23.5t-23 56.5zM406 1411q0 34 22.5 57t56.5 23q80 0 80 -80q0 -33 -23.5 -56.5t-56.5 -23.5t-56 23.5t-23 56.5z" />
<glyph unicode="&#xa9;" horiz-adv-x="1483" d="M55 659q0 286 202 486.5t486 200.5q285 0 486 -201t201 -486t-201.5 -486.5t-485.5 -201.5q-208 0 -380.5 115.5t-253.5 306.5q-54 126 -54 266zM123 659q0 -258 181 -439t439 -181q167 0 308.5 82.5t225 226.5t83.5 311q0 166 -82.5 308t-225.5 225.5t-309 83.5 t-309 -82t-227 -224.5t-84 -310.5zM350 659q0 260 196 380q89 55 197 55q131 0 220 -78q18 9 18 33q0 38 33 38q35 0 35 -36v-256q0 -39 -33 -39q-35 0 -35 39q0 98 -64.5 165.5t-162.5 67.5q-240 0 -240 -369q0 -368 240 -368q134 0 198 116q29 53 29 115q0 39 35 39 q33 0 33 -39v-254q0 -37 -35 -37q-33 0 -33 39q0 17 -16 33q-98 -80 -222 -80q-177 0 -289 133q-104 124 -104 303z" />
<glyph unicode="&#xaa;" horiz-adv-x="743" d="M68 770q0 157 199 214q90 26 194 26v172q0 114 -107 114q-77 0 -104 -36q33 -25 33 -66q0 -33 -23.5 -55.5t-56.5 -22.5q-32 0 -55 23t-23 55q0 86 122 134q53 20 107 20q246 0 246 -242v-393q0 -54 25 -54q16 0 26 19q14 24 17 27q8 8 20 8q13 0 25 -13q6 -6 6 -16 q0 -20 -17 -37q-42 -41 -120 -41q-95 0 -115 94q-113 -98 -223 -98q-78 0 -127 45.5t-49 122.5zM211 791q0 -40 24.5 -69.5t63.5 -29.5q86 0 162 66v203q-250 -2 -250 -170z" />
<glyph unicode="&#xab;" horiz-adv-x="1366" d="M195 549q0 13 20 29l631 415q17 11 26 11q19 0 19 -19q0 -12 -14 -27l-478 -409l478 -410q18 -15 18 -30q0 -17 -18 -17q-16 0 -31 10l-631 416q-20 13 -20 31zM629 549q0 12 22 29l527 313q17 10 26 10q21 0 21 -18q0 -13 -17 -27l-372 -307l372 -307q19 -16 19 -31 q0 -16 -19 -16q-13 0 -30 10l-527 313q-22 16 -22 31z" />
<glyph unicode="&#xac;" horiz-adv-x="1167" d="M170 559q0 45 39 45q21 0 56 -3q42 -3 56 -3q38 -2 107 -2h432q51 0 63.5 -12.5t12.5 -63.5v-12q0 -114 4 -165q4 -66 4 -56q0 -39 -47 -39q-45 0 -45 39q0 21 3 56l4 56q1 39 1 109v12h-432q-106 0 -181 -5l-38 -3q-39 0 -39 47z" />
<glyph unicode="&#xad;" horiz-adv-x="938" d="M193 510q0 47 38 47q21 0 56 -3q42 -3 56 -3q38 -2 110 -2h32q107 0 182 6q32 2 38 2q38 0 38 -47q0 -45 -38 -45q-20 0 -55 3q-41 3 -54 4q-38 1 -111 1h-32q-104 0 -182 -5q-34 -3 -40 -3q-38 0 -38 45z" />
<glyph unicode="&#xae;" horiz-adv-x="1483" d="M55 659q0 286 202 486.5t486 200.5q285 0 486 -201t201 -486t-201.5 -486.5t-485.5 -201.5q-208 0 -380.5 115.5t-253.5 306.5q-54 126 -54 266zM123 659q0 -258 181 -439t439 -181q167 0 308.5 82.5t225 226.5t83.5 311q0 166 -82.5 308t-225.5 225.5t-309 83.5 t-309 -82t-227 -224.5t-84 -310.5zM350 289q0 35 31 35h131v675h-95q-12 -1 -36 -2q-31 -1 -31 35q0 37 31 37q109 -10 188 -10q28 0 84 2t84 2q208 0 284 -92q34 -43 34 -99q0 -89 -99 -147q-45 -26 -96 -37q195 -49 195 -219q0 -16 -4 -82q-2 -33 -2 -47q0 -53 36 -53 q31 0 31 43q0 32 31 32q33 0 33 -30q0 -40 -31 -67t-72 -27q-114 0 -148 86q-20 50 -20 145q0 138 -61 166q-37 16 -111 16h-80v-327h131q31 0 31 -35q0 -37 -31 -37q-14 0 -38 3q-29 4 -38 5q-42 2 -122 2h-10q-135 0 -177 -7q-14 -3 -22 -3q-31 0 -31 37zM657 711h45 q100 0 144 27q57 35 57 128q0 83 -55 113q-40 22 -133 22h-58v-290z" />
<glyph unicode="&#xaf;" horiz-adv-x="528" d="M45 1272v47h371v-47h-371z" />
<glyph unicode="&#xb0;" horiz-adv-x="819" d="M100 1040q0 177 155 267q71 41 153 41q130 0 218.5 -90.5t88.5 -217.5q0 -175 -153 -265q-71 -42 -154 -42q-93 0 -170.5 52.5t-113.5 137.5q-24 57 -24 117zM193 1040q0 -90 63.5 -152.5t153.5 -62.5q89 0 153 63t64 152q0 90 -63.5 153.5t-153.5 63.5q-91 0 -154 -63 t-63 -154z" />
<glyph unicode="&#xb1;" horiz-adv-x="938" d="M109 37q0 47 38 47q21 0 55 -3q42 -3 56 -3q38 -2 109 -2h219q108 0 166 4l53 4q41 0 41 -47q0 -45 -41 -45q4 0 -54 4q-46 4 -165 4h-219q-108 0 -183 -6l-37 -2q-38 0 -38 45zM109 510q0 47 38 47q21 0 55 -3q42 -3 56 -3q38 -2 109 -2h71v72q0 105 -5 181q-3 32 -3 38 q0 39 47 39q45 0 45 -39q0 -20 -3 -54q-3 -40 -3 -54q-2 -39 -2 -111v-72h72q108 0 166 4l53 4q41 0 41 -47q0 -45 -41 -45q4 0 -54 5q-46 3 -165 3h-72v-72q0 -109 4 -167l4 -54q0 -39 -45 -39q-47 0 -47 39q0 21 3 56q3 43 4 57q1 38 1 108v72h-71q-108 0 -183 -5l-37 -3 q-38 0 -38 45z" />
<glyph unicode="&#xb2;" horiz-adv-x="684" d="M76 590q0 12 12 26l256 299q96 112 96 201q0 158 -139 158q-99 0 -125 -60q60 -11 60 -71q0 -29 -21.5 -49.5t-50.5 -20.5q-34 0 -57 27t-23 61q0 79 78 128q67 42 151 42q107 0 175 -43q81 -52 81 -153q0 -105 -155 -261l-191 -192h295q25 71 25 131q0 27 30 27 q29 0 29 -27q0 -22 -12 -89t-12 -103v-35q0 -31 -29 -31q19 0 -76 6h-27l-337 2q-33 0 -33 27z" />
<glyph unicode="&#xb3;" horiz-adv-x="684" d="M72 702q0 80 69 80q68 0 68 -69q0 -27 -33 -58q33 -55 129 -55q141 0 141 174q0 113 -75 154q-34 18 -74 18q-49 0 -78 -4l-29 -4q-36 0 -36 35q0 37 36 37q-26 0 29 -5.5t78 -5.5q57 0 89 42q30 38 30 96q0 139 -123 139q-77 0 -94 -39q41 -19 41 -61q0 -26 -20 -46 t-46 -20q-70 0 -70 84q0 65 69 104q58 33 128 33q150 0 213 -92q29 -44 29 -102q0 -99 -117 -162q149 -64 149 -201q0 -111 -85 -172q-75 -53 -191 -53q-121 0 -194 79q-33 35 -33 74z" />
<glyph unicode="&#xb4;" horiz-adv-x="465" d="M61 1229q0 11 9 16q95 80 158 165l41 55q32 44 67 44q70 0 70 -67q0 -33 -25 -53q-6 -5 -102 -54.5t-181 -122.5q-7 -6 -14 -6q-23 0 -23 23z" />
<glyph unicode="&#xb6;" horiz-adv-x="1051" d="M78 -403q0 106 96 106q40 0 69 -28t29 -68q0 -62 -55 -86q12 -10 41 -10q134 0 181 315q26 181 26 493v302q-134 15 -222.5 113t-88.5 233q0 143 102.5 245.5t245.5 102.5h297q14 0 42 1t42 1q30 0 30 -35q0 -37 -30 -37q-13 0 -36 2q-28 3 -36 3q-20 1 -59 1v-774 q0 -534 -120 -783q-117 -241 -360 -241q-73 0 -129 34q-65 41 -65 110zM395 -467q144 59 212 268q69 213 69 645v805h-137v-901q0 -468 -55 -656q-31 -106 -89 -161z" />
<glyph unicode="&#xb7;" horiz-adv-x="598" d="M160 512q0 39 28.5 68.5t67.5 29.5q40 0 69 -29t29 -69t-29 -69t-69 -29q-39 0 -67.5 29.5t-28.5 68.5z" />
<glyph unicode="&#xb8;" horiz-adv-x="446" d="M115 -465q0 18 26 25q156 45 156 145q0 98 -117 98q-28 0 -28 47l32 162h52v-151q103 -15 150 -73q24 -30 24 -71q0 -152 -269 -196q-26 0 -26 14z" />
<glyph unicode="&#xb9;" horiz-adv-x="684" d="M109 1286q0 33 28 33q24 0 142 -2q1 0 61 4l23 2h18q27 0 27 -31v-671h120q27 0 27 -31q0 -33 -27 -33q-13 0 -35 3q-27 4 -36 5q-38 2 -111 2h-6q-122 0 -161 -7q-13 -3 -19 -3q-29 0 -29 33q0 31 29 31h119v639q-64 0 -102 -2l-40 -3q-28 0 -28 31z" />
<glyph unicode="&#xba;" horiz-adv-x="844" d="M86 973q0 162 101 272q95 103 235 103q198 0 292 -181q44 -86 44 -194q0 -225 -167 -329q-78 -48 -169 -48q-139 0 -235 105q-101 109 -101 272zM240 973q0 -221 78 -284q39 -32 104 -32q115 0 157 109q27 69 27 207q0 139 -27 206q-42 107 -157 107q-128 0 -163 -133 q-19 -69 -19 -180z" />
<glyph unicode="&#xbb;" horiz-adv-x="1366" d="M139 211q0 14 21 31l372 307l-372 307q-17 10 -17 27q0 18 19 18q11 0 28 -10l527 -313q20 -16 20 -29q0 -19 -20 -31l-527 -313q-17 -10 -30 -10q-21 0 -21 16zM473 109q0 14 19 30l477 410l-477 409q-17 12 -17 27q0 19 21 19q9 0 26 -11l631 -415q21 -14 21 -29 q0 -17 -21 -31l-631 -416q-15 -10 -30 -10q-19 0 -19 17z" />
<glyph unicode="&#xbc;" horiz-adv-x="1688" d="M127 1286q0 33 27 33q21 0 141 -2q1 0 61 4l23 2h18q29 0 29 -31v-671h119q26 0 26 -31q0 -33 -26 -33q-12 0 -35 3q-26 4 -34 5q-38 2 -111 2h-9q-123 0 -159 -7q-12 -3 -19 -3q-28 0 -28 33q0 31 28 31h117v639q-64 0 -102 -2l-39 -3q-27 0 -27 31zM545 31 q33 65 94 198l348 822q39 93 72 180l3 9q28 76 30 79q15 22 36 22q14 0 23 -4q27 -12 27 -53q-47 -92 -69 -141q-10 -22 -52 -121l-348 -821q-24 -70 -78 -207q-15 -23 -37 -23q-49 0 -49 60zM1026 244q0 11 8 22l340 477q18 25 41 25q33 0 33 -43v-442q19 0 57.5 3t57.5 3 q34 0 34 -35q0 -34 -34 -33q-56 2 -115 2v-168l71 2h46q28 0 28 -32q0 -33 -28 -33q-11 0 -32 3q-24 4 -32 4q-35 3 -108 3h-13q-119 0 -153 -8q-12 -2 -19 -2q-26 0 -26 33q0 32 26 32q35 0 119 -2v168h-272q-29 0 -29 21zM1116 283h211v292z" />
<glyph unicode="&#xbd;" horiz-adv-x="1688" d="M109 1286q0 33 28 33q24 0 142 -2q1 0 61 4l23 2h18q27 0 27 -31v-671h120q27 0 27 -31q0 -33 -27 -33q-13 0 -35 3q-27 4 -36 5q-38 2 -111 2h-6q-122 0 -161 -7q-13 -3 -19 -3q-29 0 -29 33q0 31 29 31h119v639q-64 0 -102 -2l-40 -3q-28 0 -28 31zM528 31l31 61 q29 59 62 137l348 822q44 120 106 268q11 22 37 22q49 0 49 -57q-23 -45 -66 -135q-12 -26 -55 -127l-348 -821q-24 -70 -80 -207q-11 -23 -37 -23q-47 0 -47 60zM1079 25q0 14 13 26l256 299q96 112 96 201q0 158 -139 158q-99 0 -125 -60q59 -11 59 -69q0 -29 -21.5 -50.5 t-50.5 -21.5q-34 0 -57 27t-23 61q0 79 79 128q67 42 151 42q107 0 175 -44q81 -52 81 -153q0 -104 -156 -260l-190 -190h295q24 64 24 129q0 26 31 26q29 0 29 -26q0 -25 -12.5 -91t-12.5 -102v-35q0 -30 -29 -30q19 0 -75 5q-8 1 -27 1l-338 2q-33 0 -33 27z" />
<glyph unicode="&#xbe;" horiz-adv-x="1688" d="M88 702q0 80 72 80q65 0 65 -69q0 -32 -32 -58q35 -55 131 -55q141 0 141 174q0 76 -38 122q-40 50 -114 50q-37 0 -104 -8q-39 0 -39 35q0 37 39 37q-25 0 28 -5.5t76 -5.5q57 0 89 42q30 38 30 96q0 139 -121 139q-80 0 -96 -39q41 -16 41 -61q0 -26 -20 -46t-46 -20 q-69 0 -69 84q0 64 69 104q58 33 127 33q152 0 213 -93q29 -44 29 -101q0 -102 -117 -162q150 -65 150 -201q0 -111 -86 -172q-75 -53 -191 -53q-74 0 -144 39q-83 46 -83 114zM545 31q33 65 94 198l348 822q39 93 72 180l3 9q28 76 30 79q15 22 36 22q14 0 23 -4 q27 -12 27 -53q-47 -92 -69 -141q-10 -22 -52 -121l-348 -821q-24 -70 -78 -207q-15 -23 -37 -23q-49 0 -49 60zM1010 244q0 11 8 22l340 477q18 25 41 25q31 0 31 -43v-442q19 0 57 3t57 3q37 0 37 -35q0 -34 -37 -33q-56 2 -114 2v-168l73 2h45q27 0 27 -32q0 -33 -27 -33 q-11 0 -32 3q-24 4 -32 4q-36 3 -108 3h-12q-119 0 -155 -8q-12 -2 -17 -2q-29 0 -29 33q0 32 29 32q22 0 119 -2v168h-273q-28 0 -28 21zM1100 283h211v292z" />
<glyph unicode="&#xbf;" horiz-adv-x="956" d="M180 -231q0 105 48 187q37 63 128 148q89 82 110 108q52 66 52 140q0 15 -2 44t-2 44q0 29 27 29q24 0 24 -29q0 -15 2 -87l2 -85q0 -90 -31 -153q-26 -52 -96.5 -123.5t-94.5 -116.5q-32 -59 -32 -145t59 -139.5t146 -53.5q77 0 134 33q67 38 79 108q-41 0 -69.5 25.5 t-28.5 65.5q0 37 25.5 62.5t62.5 25.5q61 0 87 -63q11 -28 11 -62q0 -148 -151 -225q-69 -35 -148 -35q-140 0 -237 77q-105 83 -105 220zM430 729q0 44 32.5 75.5t76.5 31.5t75 -31.5t31 -75.5t-31 -76t-75 -32q-45 0 -77 31.5t-32 76.5z" />
<glyph unicode="&#xc0;" horiz-adv-x="1190" d="M-76 29q0 37 31 37q117 -3 121 -3h12l481 1266q9 23 37 23q27 0 35 -23l463 -1266l92 2l43 1q31 0 31 -37q0 -35 -31 -35q-15 0 -42 3q-31 4 -41 5q-45 2 -126 2h-24q-137 0 -186 -8q-17 -2 -23 -2q-31 0 -31 35q0 38 31 37l135 -3l-127 351h-502l-133 -351h14 q94 0 112 3h15q31 0 31 -37q0 -35 -31 -35q-12 0 -33 3q-26 4 -34 5q-35 2 -105 2h-10q-115 0 -154 -8q-13 -2 -20 -2q-31 0 -31 35zM332 487h446l-219 605zM362 1669q0 25 14 41q22 26 56 26q22 0 43 -16q44 -58 113 -144q39 -45 110 -104q6 -6 6 -16q0 -25 -22 -25 q-8 0 -15 6q-93 81 -219 143q-51 24 -61 33q-25 23 -25 56z" />
<glyph unicode="&#xc1;" horiz-adv-x="1190" d="M-76 29q0 37 31 37q117 -3 121 -3h12l481 1266q9 23 37 23q27 0 35 -23l463 -1266l92 2l43 1q31 0 31 -37q0 -35 -31 -35q-15 0 -42 3q-31 4 -41 5q-45 2 -126 2h-24q-137 0 -186 -8q-17 -2 -23 -2q-31 0 -31 35q0 38 31 37l135 -3l-127 351h-502l-133 -351h14 q94 0 112 3h15q31 0 31 -37q0 -35 -31 -35q-12 0 -33 3q-26 4 -34 5q-35 2 -105 2h-10q-115 0 -154 -8q-13 -2 -20 -2q-31 0 -31 35zM332 487h446l-219 605zM462 1454q0 11 9 16q95 80 158 165l41 55q32 44 67 44q70 0 70 -67q0 -33 -25 -53q-6 -5 -102 -54.5t-181 -122.5 q-7 -6 -14 -6q-23 0 -23 23z" />
<glyph unicode="&#xc2;" horiz-adv-x="1190" d="M-76 29q0 37 31 37q117 -3 121 -3h12l481 1266q9 23 37 23q27 0 35 -23l463 -1266l92 2l43 1q31 0 31 -37q0 -35 -31 -35q-15 0 -42 3q-31 4 -41 5q-45 2 -126 2h-24q-137 0 -186 -8q-17 -2 -23 -2q-31 0 -31 35q0 38 31 37l135 -3l-127 351h-502l-133 -351h14 q94 0 112 3h15q31 0 31 -37q0 -35 -31 -35q-12 0 -33 3q-26 4 -34 5q-35 2 -105 2h-10q-115 0 -154 -8q-13 -2 -20 -2q-31 0 -31 35zM332 487h446l-219 605zM349 1450q0 7 4 11l213 229q19 20 32 20q15 0 33 -20l211 -229q0 -25 -27 -25l-219 139l-217 -139q-30 0 -30 14z " />
<glyph unicode="&#xc3;" horiz-adv-x="1190" d="M-76 29q0 37 31 37q117 -3 121 -3h12l481 1266q9 23 37 23q27 0 35 -23l463 -1266l92 2l43 1q31 0 31 -37q0 -35 -31 -35q-15 0 -42 3q-31 4 -41 5q-45 2 -126 2h-24q-137 0 -186 -8q-17 -2 -23 -2q-31 0 -31 35q0 38 31 37l135 -3l-127 351h-502l-133 -351h14 q94 0 112 3h15q31 0 31 -37q0 -35 -31 -35q-12 0 -33 3q-26 4 -34 5q-35 2 -105 2h-10q-115 0 -154 -8q-13 -2 -20 -2q-31 0 -31 35zM332 487h446l-219 605zM346 1452q0 72 30 129q36 70 102 70q45 0 129 -59q75 -54 112 -54q72 0 88 98q2 15 17 15q16 0 16 -15 q0 -80 -30 -136q-37 -69 -111 -69q-38 0 -118 55q-85 58 -116 58q-67 0 -88 -92q-3 -14 -18 -14q-13 0 -13 14z" />
<glyph unicode="&#xc4;" horiz-adv-x="1190" d="M-76 29q0 37 31 37q117 -3 121 -3h12l481 1266q9 23 37 23q27 0 35 -23l463 -1266l92 2l43 1q31 0 31 -37q0 -35 -31 -35q-15 0 -42 3q-31 4 -41 5q-45 2 -126 2h-24q-137 0 -186 -8q-17 -2 -23 -2q-31 0 -31 35q0 38 31 37l135 -3l-127 351h-502l-133 -351h14 q94 0 112 3h15q31 0 31 -37q0 -35 -31 -35q-12 0 -33 3q-26 4 -34 5q-35 2 -105 2h-10q-115 0 -154 -8q-13 -2 -20 -2q-31 0 -31 35zM332 487h446l-219 605zM349 1511q0 34 22.5 57t56.5 23t57 -23t23 -57q0 -33 -23.5 -56.5t-56.5 -23.5t-56 23.5t-23 56.5zM689 1511 q0 34 22.5 57t56.5 23q80 0 80 -80q0 -33 -23.5 -56.5t-56.5 -23.5t-56 23.5t-23 56.5z" />
<glyph unicode="&#xc5;" horiz-adv-x="1190" d="M-76 29q0 37 31 37q117 -3 121 -3h12l481 1266q9 23 37 23q27 0 35 -23l463 -1266l92 2l43 1q31 0 31 -37q0 -35 -31 -35q-15 0 -42 3q-31 4 -41 5q-45 2 -126 2h-24q-137 0 -186 -8q-17 -2 -23 -2q-31 0 -31 35q0 38 31 37l135 -3l-127 351h-502l-133 -351h14 q94 0 112 3h15q31 0 31 -37q0 -35 -31 -35q-12 0 -33 3q-26 4 -34 5q-35 2 -105 2h-10q-115 0 -154 -8q-13 -2 -20 -2q-31 0 -31 35zM332 487h446l-219 605zM431 1601q0 99 82 148q38 22 86 22q71 0 120 -50t49 -120t-49.5 -119t-119.5 -49t-119 49t-49 119zM504 1601 q0 -39 28 -65.5t67 -26.5q38 0 66 27t28 65t-28 66t-66 28q-39 0 -67 -27.5t-28 -66.5z" />
<glyph unicode="&#xc6;" horiz-adv-x="1622" d="M-76 29q0 37 31 37q117 -3 121 -3h14l705 1213q13 23 24.5 29t50.5 6l476 4q19 0 57 4t57 4q31 0 31 -37v-61q0 -41 5 -124t5 -124q0 -31 -33 -31q-34 0 -34 31q0 262 -168 262h-336v-516h203q108 0 108 158q0 30 27 30q28 0 28 -30q0 48 -2 -52t-2 -143q0 -82 2 -141 l2 -53q0 -31 -28 -31q-27 0 -27 31q0 157 -108 157h-203v-573h387q168 0 168 262q0 31 35 31q32 0 32 -31q0 -41 -5 -124t-5 -124v-63q0 -35 -31 -35q-19 0 -57 4t-57 4q-97 0 -187 1q-274 3 -374 3q-135 0 -184 -8q-17 -2 -23 -2q-31 0 -31 35q0 38 31 37l139 -3v351h-387 l-203 -351h12q97 0 112 3h15q31 0 31 -37q0 -35 -31 -35q-12 0 -33 3q-26 4 -34 5q-35 2 -105 2h-16q-115 0 -154 -8q-13 -2 -20 -2q-31 0 -31 35zM424 487h344v596z" />
<glyph unicode="&#xc7;" horiz-adv-x="1161" d="M98 657q0 184 65 338q73 171 212 266q128 87 274 87q145 0 243 -67q42 -30 85 -73q41 41 41 97q0 34 29 34q32 0 32 -32v-426q0 -33 -30 -33q-31 0 -31 33q0 167 -101 277t-251 110q-250 0 -334 -251q-45 -135 -45 -360q0 -431 173 -552q83 -58 206 -58q112 0 199 64.5 t126 170.5q27 73 27 152q0 33 31 33q30 0 30 -33v-426q0 -35 -32 -35q-29 0 -29 37q0 62 -41 96q-78 -78 -147 -108q-73 -33 -179 -33v-104q103 -15 150 -73q24 -30 24 -71q0 -152 -266 -196q-29 0 -29 14q0 17 29 25q154 44 154 145q0 98 -115 98q-29 0 -29 47l23 119 q-209 29 -347 211q-147 192 -147 477z" />
<glyph unicode="&#xc8;" horiz-adv-x="1126" d="M102 29q0 37 31 37q7 0 46 -1l93 -2v1188h-98q-13 -1 -41 -2q-31 -1 -31 37q0 35 31 35q35 0 104.5 -5t104.5 -5q75 0 195 1q154 2 194 3h119q19 0 57.5 4t57.5 4q30 0 30 -37v-61q0 -25 6 -135l5 -113q0 -31 -33 -31q-35 0 -35 31q0 262 -168 262h-334v-516h201 q108 0 108 158q0 30 29 30q27 0 27 -30q0 48 -2 -52t-2 -143q0 -82 2 -141l2 -53q0 -31 -27 -31q-29 0 -29 31q0 157 -108 157h-201v-573h385q168 0 168 262q0 31 35 31q33 0 33 -31q0 -41 -5 -124t-5 -124v-63q0 -35 -31 -35q-19 0 -57.5 4t-57.5 4q-38 0 -279 2l-280 2 q-139 0 -185 -8q-16 -2 -24 -2q-31 0 -31 35zM387 1669q0 25 14 41q22 26 56 26q22 0 43 -16q44 -58 113 -144q39 -45 110 -104q6 -6 6 -16q0 -25 -22 -25q-8 0 -15 6q-93 81 -219 143q-51 24 -61 33q-25 23 -25 56z" />
<glyph unicode="&#xc9;" horiz-adv-x="1126" d="M102 29q0 37 31 37q7 0 46 -1l93 -2v1188h-98q-13 -1 -41 -2q-31 -1 -31 37q0 35 31 35q35 0 104.5 -5t104.5 -5q75 0 195 1q154 2 194 3h119q19 0 57.5 4t57.5 4q30 0 30 -37v-61q0 -25 6 -135l5 -113q0 -31 -33 -31q-35 0 -35 31q0 262 -168 262h-334v-516h201 q108 0 108 158q0 30 29 30q27 0 27 -30q0 48 -2 -52t-2 -143q0 -82 2 -141l2 -53q0 -31 -27 -31q-29 0 -29 31q0 157 -108 157h-201v-573h385q168 0 168 262q0 31 35 31q33 0 33 -31q0 -41 -5 -124t-5 -124v-63q0 -35 -31 -35q-19 0 -57.5 4t-57.5 4q-38 0 -279 2l-280 2 q-139 0 -185 -8q-16 -2 -24 -2q-31 0 -31 35zM497 1456q0 11 9 16q95 80 158 165l41 55q32 44 67 44q70 0 70 -67q0 -33 -25 -53q-6 -5 -102 -54.5t-181 -122.5q-7 -6 -14 -6q-23 0 -23 23z" />
<glyph unicode="&#xca;" horiz-adv-x="1126" d="M102 29q0 37 31 37q7 0 46 -1l93 -2v1188h-98q-13 -1 -41 -2q-31 -1 -31 37q0 35 31 35q35 0 104.5 -5t104.5 -5q75 0 195 1q154 2 194 3h119q19 0 57.5 4t57.5 4q30 0 30 -37v-61q0 -25 6 -135l5 -113q0 -31 -33 -31q-35 0 -35 31q0 262 -168 262h-334v-516h201 q108 0 108 158q0 30 29 30q27 0 27 -30q0 48 -2 -52t-2 -143q0 -82 2 -141l2 -53q0 -31 -27 -31q-29 0 -29 31q0 157 -108 157h-201v-573h385q168 0 168 262q0 31 35 31q33 0 33 -31q0 -41 -5 -124t-5 -124v-63q0 -35 -31 -35q-19 0 -57.5 4t-57.5 4q-38 0 -279 2l-280 2 q-139 0 -185 -8q-16 -2 -24 -2q-31 0 -31 35zM338 1450q0 7 4 11l213 229q19 20 32 20q15 0 33 -20l211 -229q0 -25 -27 -25l-219 139l-217 -139q-30 0 -30 14z" />
<glyph unicode="&#xcb;" horiz-adv-x="1126" d="M102 29q0 37 31 37q7 0 46 -1l93 -2v1188h-98q-13 -1 -41 -2q-31 -1 -31 37q0 35 31 35q35 0 104.5 -5t104.5 -5q75 0 195 1q154 2 194 3h119q19 0 57.5 4t57.5 4q30 0 30 -37v-61q0 -25 6 -135l5 -113q0 -31 -33 -31q-35 0 -35 31q0 262 -168 262h-334v-516h201 q108 0 108 158q0 30 29 30q27 0 27 -30q0 48 -2 -52t-2 -143q0 -82 2 -141l2 -53q0 -31 -27 -31q-29 0 -29 31q0 157 -108 157h-201v-573h385q168 0 168 262q0 31 35 31q33 0 33 -31q0 -41 -5 -124t-5 -124v-63q0 -35 -31 -35q-19 0 -57.5 4t-57.5 4q-38 0 -279 2l-280 2 q-139 0 -185 -8q-16 -2 -24 -2q-31 0 -31 35zM332 1511q0 34 22.5 57t56.5 23t57 -23t23 -57q0 -33 -23.5 -56.5t-56.5 -23.5t-56 23.5t-23 56.5zM672 1511q0 34 22.5 57t56.5 23q80 0 80 -80q0 -33 -23.5 -56.5t-56.5 -23.5t-56 23.5t-23 56.5z" />
<glyph unicode="&#xcc;" horiz-adv-x="709" d="M102 29q0 37 31 37q7 0 46 -1l93 -2v1188h-98q-13 -1 -41 -2q-31 -1 -31 37q0 35 31 35q35 0 104.5 -5t104.5 -5h25q87 0 147 5l61 5q31 0 31 -35q0 -38 -31 -37q-62 2 -139 2v-1188l139 3q31 0 31 -37q0 -35 -31 -35q-15 0 -41 3q-31 4 -41 5q-45 2 -126 2h-25 q-139 0 -185 -8q-16 -2 -24 -2q-31 0 -31 35zM158 1669q0 25 14 41q22 26 56 26q22 0 43 -16q44 -58 113 -144q39 -45 110 -104q6 -6 6 -16q0 -25 -22 -25q-8 0 -15 6q-93 81 -219 143q-51 24 -61 33q-25 23 -25 56z" />
<glyph unicode="&#xcd;" horiz-adv-x="709" d="M102 29q0 37 31 37q7 0 46 -1l93 -2v1188h-98q-13 -1 -41 -2q-31 -1 -31 37q0 35 31 35q35 0 104.5 -5t104.5 -5h25q87 0 147 5l61 5q31 0 31 -35q0 -38 -31 -37q-62 2 -139 2v-1188l139 3q31 0 31 -37q0 -35 -31 -35q-15 0 -41 3q-31 4 -41 5q-45 2 -126 2h-25 q-139 0 -185 -8q-16 -2 -24 -2q-31 0 -31 35zM211 1454q0 11 9 16q95 80 158 165l41 55q32 44 67 44q70 0 70 -67q0 -33 -25 -53q-6 -5 -102 -54.5t-181 -122.5q-7 -6 -14 -6q-23 0 -23 23z" />
<glyph unicode="&#xce;" horiz-adv-x="709" d="M101 1450q0 7 4 11l213 229q19 20 32 20q15 0 33 -20l211 -229q0 -25 -27 -25l-219 139l-217 -139q-30 0 -30 14zM102 29q0 37 31 37q7 0 46 -1l93 -2v1188h-98q-13 -1 -41 -2q-31 -1 -31 37q0 35 31 35q35 0 104.5 -5t104.5 -5h25q87 0 147 5l61 5q31 0 31 -35 q0 -38 -31 -37q-62 2 -139 2v-1188l139 3q31 0 31 -37q0 -35 -31 -35q-15 0 -41 3q-31 4 -41 5q-45 2 -126 2h-25q-139 0 -185 -8q-16 -2 -24 -2q-31 0 -31 35z" />
<glyph unicode="&#xcf;" horiz-adv-x="709" d="M101 1511q0 34 22.5 57t56.5 23t57 -23t23 -57q0 -33 -23.5 -56.5t-56.5 -23.5t-56 23.5t-23 56.5zM102 29q0 37 31 37q7 0 46 -1l93 -2v1188h-98q-13 -1 -41 -2q-31 -1 -31 37q0 35 31 35q35 0 104.5 -5t104.5 -5h25q87 0 147 5l61 5q31 0 31 -35q0 -38 -31 -37 q-62 2 -139 2v-1188l139 3q31 0 31 -37q0 -35 -31 -35q-15 0 -41 3q-31 4 -41 5q-45 2 -126 2h-25q-139 0 -185 -8q-16 -2 -24 -2q-31 0 -31 35zM441 1511q0 34 22.5 57t56.5 23q80 0 80 -80q0 -33 -23.5 -56.5t-56.5 -23.5t-56 23.5t-23 56.5z" />
<glyph unicode="&#xd0;" horiz-adv-x="1348" d="M41 682q0 47 39 47q33 0 97.5 -4t94.5 -4v530h-98q-13 -1 -41 -2q-31 -1 -31 37q0 35 31 35q34 0 103.5 -5t105.5 -5q1 0 120 2l169 4h69q230 0 390 -182q161 -185 161 -478q0 -177 -66 -325q-73 -162 -210 -252q-127 -84 -275 -84q-60 0 -179 4t-179 4q-139 0 -185 -8 q-16 -2 -24 -2q-31 0 -31 35q0 37 31 37q7 0 46 -1l93 -2v582q-56 0 -166 -6q-21 -2 -26 -2q-39 0 -39 45zM436 80q116 -4 264 -4q220 0 304 194q57 131 57 387q0 257 -57 388q-84 194 -304 194q-83 0 -157 -1l-107 -3v-514q29 0 93 4q60 4 92 4q41 0 41 -47q0 -45 -41 -45 q-15 0 -40 2q-30 3 -41 4q-37 1 -104 2v-565z" />
<glyph unicode="&#xd1;" horiz-adv-x="1358" d="M86 29q0 38 31 37l139 -3v1188h-99q-13 -1 -40 -2q-31 -1 -31 37q0 35 31 35q50 -5 79 -7q36 -2 97 -3q14 0 41.5 2t40.5 2q30 0 78 -76l575 -920v932h-100q-14 -1 -41 -2q-31 -1 -31 37q0 35 31 35q15 0 40 -3q32 -3 41 -4q48 -3 97 -3q38 0 113 5t65 5q31 0 31 -35 q0 -38 -31 -37q-62 2 -141 2v-1220q0 -58 -29 -58q-21 0 -47 41l-694 1114v-1065l139 3q31 0 31 -37q0 -35 -31 -35q-96 10 -178 10q-83 0 -152 -8l-24 -2q-31 0 -31 35zM436 1452q0 72 30 129q36 70 102 70q45 0 129 -59q75 -54 112 -54q72 0 88 98q2 15 17 15q16 0 16 -15 q0 -80 -30 -136q-37 -69 -111 -69q-38 0 -118 55q-85 58 -116 58q-67 0 -88 -92q-3 -14 -18 -14q-13 0 -13 14z" />
<glyph unicode="&#xd2;" horiz-adv-x="1315" d="M98 657q0 303 163 499q160 192 396 192t395 -189q165 -197 165 -502t-165 -501q-161 -191 -395 -191q-233 0 -396 195.5t-163 496.5zM287 657q0 -336 92 -476q88 -134 278 -134q191 0 279 134q92 140 92 476q0 337 -92 479q-86 132 -279 132q-192 0 -277 -132 q-93 -142 -93 -479zM442 1672q0 25 14 41q22 26 56 26q22 0 43 -16q44 -58 113 -144q39 -45 110 -104q6 -6 6 -16q0 -25 -22 -25q-8 0 -15 6q-93 81 -219 143q-51 24 -61 33q-25 23 -25 56z" />
<glyph unicode="&#xd3;" horiz-adv-x="1315" d="M98 657q0 303 163 499q160 192 396 192t395 -189q165 -197 165 -502t-165 -501q-161 -191 -395 -191q-233 0 -396 195.5t-163 496.5zM287 657q0 -336 92 -476q88 -134 278 -134q191 0 279 134q92 140 92 476q0 337 -92 479q-86 132 -279 132q-192 0 -277 -132 q-93 -142 -93 -479zM522 1454q0 11 9 16q95 80 158 165l41 55q32 44 67 44q70 0 70 -67q0 -33 -25 -53q-6 -5 -102 -54.5t-181 -122.5q-7 -6 -14 -6q-23 0 -23 23z" />
<glyph unicode="&#xd4;" horiz-adv-x="1315" d="M98 657q0 303 163 499q160 192 396 192t395 -189q165 -197 165 -502t-165 -501q-161 -191 -395 -191q-233 0 -396 195.5t-163 496.5zM287 657q0 -336 92 -476q88 -134 278 -134q191 0 279 134q92 140 92 476q0 337 -92 479q-86 132 -279 132q-192 0 -277 -132 q-93 -142 -93 -479zM410 1450q0 7 4 11l213 229q19 20 32 20q15 0 33 -20l211 -229q0 -25 -27 -25l-219 139l-217 -139q-30 0 -30 14z" />
<glyph unicode="&#xd5;" horiz-adv-x="1315" d="M98 657q0 303 163 499q160 192 396 192t395 -189q165 -197 165 -502t-165 -501q-161 -191 -395 -191q-233 0 -396 195.5t-163 496.5zM287 657q0 -336 92 -476q88 -134 278 -134q191 0 279 134q92 140 92 476q0 337 -92 479q-86 132 -279 132q-192 0 -277 -132 q-93 -142 -93 -479zM419 1452q0 72 30 129q36 70 102 70q45 0 129 -59q75 -54 112 -54q72 0 88 98q2 15 17 15q16 0 16 -15q0 -80 -30 -136q-37 -69 -111 -69q-38 0 -118 55q-85 58 -116 58q-67 0 -88 -92q-3 -14 -18 -14q-13 0 -13 14z" />
<glyph unicode="&#xd6;" horiz-adv-x="1315" d="M98 657q0 303 163 499q160 192 396 192t395 -189q165 -197 165 -502t-165 -501q-161 -191 -395 -191q-233 0 -396 195.5t-163 496.5zM287 657q0 -336 92 -476q88 -134 278 -134q191 0 279 134q92 140 92 476q0 337 -92 479q-86 132 -279 132q-192 0 -277 -132 q-93 -142 -93 -479zM410 1511q0 34 22.5 57t56.5 23t57 -23t23 -57q0 -33 -23.5 -56.5t-56.5 -23.5t-56 23.5t-23 56.5zM750 1511q0 34 22.5 57t56.5 23q80 0 80 -80q0 -33 -23.5 -56.5t-56.5 -23.5t-56 23.5t-23 56.5z" />
<glyph unicode="&#xd7;" />
<glyph unicode="&#xd8;" horiz-adv-x="1315" d="M98 657q0 303 163 499q160 192 396 192q158 0 291 -93q24 42 40 73l26 52q12 18 35 21q12 0 24 -6q25 -16 25 -39q0 -12 -6 -21q-29 -44 -84 -131q209 -196 209 -547q0 -305 -165 -501q-161 -191 -395 -191q-164 0 -305 105q-19 -44 -63 -127q-12 -19 -35 -19 q-15 0 -27 8q-24 13 -24 35q0 12 6 21q49 73 84 133q-195 206 -195 536zM287 657q0 -288 67 -432l549 951q-81 92 -246 92q-192 0 -277 -132q-93 -142 -93 -479zM397 152q88 -105 260 -105q191 0 279 134q92 140 92 476q0 301 -78 451q-61 -105 -174 -301l-245 -426 q-126 -218 -134 -229z" />
<glyph unicode="&#xd9;" horiz-adv-x="1296" d="M59 1286q0 35 31 35q35 0 104.5 -5t104.5 -5h25q87 0 147 5l61 5q31 0 31 -35q0 -38 -31 -37q-64 2 -139 2v-944q0 -126 91 -196q82 -64 212 -64q191 0 269 146q36 69 36 153v905h-98q-13 -1 -41 -2q-31 -1 -31 37q0 35 31 35q15 0 40 -3q31 -3 41 -4q48 -3 97 -3 q37 0 111.5 5t65.5 5q30 0 30 -35q0 -38 -30 -37q-66 2 -140 2v-905q0 -242 -210 -337q-96 -44 -214 -44q-183 0 -299 98q-123 104 -123 283v905h-100q-13 -1 -41 -2q-31 -1 -31 37zM424 1669q0 25 14 41q22 26 56 26q22 0 43 -16q44 -58 113 -144q39 -45 110 -104 q6 -6 6 -16q0 -25 -22 -25q-8 0 -15 6q-93 81 -219 143q-51 24 -61 33q-25 23 -25 56z" />
<glyph unicode="&#xda;" horiz-adv-x="1296" d="M59 1286q0 35 31 35q35 0 104.5 -5t104.5 -5h25q87 0 147 5l61 5q31 0 31 -35q0 -38 -31 -37q-64 2 -139 2v-944q0 -126 91 -196q82 -64 212 -64q191 0 269 146q36 69 36 153v905h-98q-13 -1 -41 -2q-31 -1 -31 37q0 35 31 35q15 0 40 -3q31 -3 41 -4q48 -3 97 -3 q37 0 111.5 5t65.5 5q30 0 30 -35q0 -38 -30 -37q-66 2 -140 2v-905q0 -242 -210 -337q-96 -44 -214 -44q-183 0 -299 98q-123 104 -123 283v905h-100q-13 -1 -41 -2q-31 -1 -31 37zM589 1454q0 11 9 16q95 80 158 165l41 55q32 44 67 44q70 0 70 -67q0 -33 -25 -53 q-6 -5 -102 -54.5t-181 -122.5q-7 -6 -14 -6q-23 0 -23 23z" />
<glyph unicode="&#xdb;" horiz-adv-x="1296" d="M59 1286q0 35 31 35q35 0 104.5 -5t104.5 -5h25q87 0 147 5l61 5q31 0 31 -35q0 -38 -31 -37q-64 2 -139 2v-944q0 -126 91 -196q82 -64 212 -64q191 0 269 146q36 69 36 153v905h-98q-13 -1 -41 -2q-31 -1 -31 37q0 35 31 35q15 0 40 -3q31 -3 41 -4q48 -3 97 -3 q37 0 111.5 5t65.5 5q30 0 30 -35q0 -38 -30 -37q-66 2 -140 2v-905q0 -242 -210 -337q-96 -44 -214 -44q-183 0 -299 98q-123 104 -123 283v905h-100q-13 -1 -41 -2q-31 -1 -31 37zM424 1450q0 7 4 11l213 229q19 20 32 20q15 0 33 -20l211 -229q0 -25 -27 -25l-219 139 l-217 -139q-30 0 -30 14z" />
<glyph unicode="&#xdc;" horiz-adv-x="1296" d="M59 1286q0 35 31 35q35 0 104.5 -5t104.5 -5h25q87 0 147 5l61 5q31 0 31 -35q0 -38 -31 -37q-64 2 -139 2v-944q0 -126 91 -196q82 -64 212 -64q191 0 269 146q36 69 36 153v905h-98q-13 -1 -41 -2q-31 -1 -31 37q0 35 31 35q15 0 40 -3q31 -3 41 -4q48 -3 97 -3 q37 0 111.5 5t65.5 5q30 0 30 -35q0 -38 -30 -37q-66 2 -140 2v-905q0 -242 -210 -337q-96 -44 -214 -44q-183 0 -299 98q-123 104 -123 283v905h-100q-13 -1 -41 -2q-31 -1 -31 37zM437 1513q0 34 22.5 57t56.5 23t57 -23t23 -57q0 -33 -23.5 -56.5t-56.5 -23.5t-56 23.5 t-23 56.5zM777 1513q0 34 22.5 57t56.5 23q80 0 80 -80q0 -33 -23.5 -56.5t-56.5 -23.5t-56 23.5t-23 56.5z" />
<glyph unicode="&#xdd;" horiz-adv-x="1010" d="M-82 1286q0 35 31 35q122 -10 209 -10h24q87 0 148 5l61 5q31 0 31 -35q0 -38 -31 -37q-60 2 -129 2l293 -553l291 553h-10h-93q-12 -1 -34 -2q-31 -1 -31 37q0 35 31 35q28 0 85.5 -5t86.5 -5h10q77 0 124 5l48 5q31 0 31 -35q0 -38 -31 -37q-58 2 -119 2h-10l-334 -628 v-560l139 3q31 0 31 -37q0 -35 -31 -35q-15 0 -42 3q-31 4 -41 5q-45 2 -126 2h-24q-137 0 -186 -8q-17 -2 -23 -2q-31 0 -31 35q0 38 31 37l139 -3v512l-358 676q-67 0 -129 -2q-31 -1 -31 37zM444 1456q0 11 9 16q95 80 158 165l41 55q32 44 67 44q70 0 70 -67 q0 -33 -25 -53q-6 -5 -102 -54.5t-181 -122.5q-7 -6 -14 -6q-23 0 -23 23z" />
<glyph unicode="&#xde;" horiz-adv-x="1032" d="M39 -483q0 38 31 37l131 -3v1704q-59 0 -95 -4l-36 -4q-31 0 -31 37t31 35l36 -2q36 -2 95 -2q19 0 57 5t57 5q31 0 31 -37v-600q88 148 244 148q209 0 301 -208q43 -100 43 -227q0 -265 -165 -381q-79 -55 -179 -55q-160 0 -244 150v-564l131 3q31 0 31 -37 q0 -35 -31 -35q-14 0 -38 3q-28 4 -38 4q-41 3 -122 3h-9q-136 0 -179 -8q-15 -2 -21 -2q-31 0 -31 35zM346 401q0 -140 50 -239q64 -127 190 -127q184 0 184 366q0 367 -184 367q-127 0 -190 -128q-50 -99 -50 -239z" />
<glyph unicode="&#xdf;" horiz-adv-x="1169" d="M39 33q0 35 31 35q22 0 65.5 -2.5t65.5 -2.5v902q0 196 101 295q90 88 230 88q160 0 235 -126q34 -58 34 -124q0 -98 -100.5 -206.5t-100.5 -184.5q0 -78 86 -137q26 -17 154 -77q123 -58 172 -100q84 -71 84 -170q0 -163 -159 -229q-75 -31 -163 -31q-187 0 -279 122 q-40 52 -40 99q0 92 88 92q26 0 48.5 -21.5t22.5 -47.5q0 -50 -45 -74q52 -102 213 -102q115 0 175 72q30 35 30 83q0 57 -182 155l-244 128q-76 51 -76 182q0 90 92 212q97 129 97 249q0 178 -146 178q-119 0 -159 -127q-23 -73 -23 -198v-938q0 -35 -31 -35q-19 0 -57 4 t-57 4q-59 0 -95 -2l-36 -2q-31 0 -31 37z" />
<glyph unicode="&#xe0;" horiz-adv-x="854" d="M78 162q0 181 234 245q105 29 229 29v201q0 137 -133 137q-96 0 -132 -49q37 -23 37 -70q0 -35 -24.5 -60.5t-59.5 -25.5t-59.5 25.5t-24.5 60.5q0 99 140 157q60 24 123 24q278 0 278 -277v-448q0 -74 39 -74q17 0 35.5 25.5t36.5 25.5q14 0 26 -12q4 -4 4 -17 q0 -23 -14 -34q-61 -48 -139 -48q-109 0 -129 119q-135 -123 -269 -123q-87 0 -142.5 51.5t-55.5 137.5zM231 188q0 -50 30 -86q32 -39 81 -39q87 0 199 99v215q-310 0 -310 -189zM237 1157q0 25 14 41q22 26 56 26q22 0 43 -16q44 -58 113 -144q39 -45 110 -104q6 -6 6 -16 q0 -25 -22 -25q-8 0 -15 6q-93 81 -219 143q-51 24 -61 33q-25 23 -25 56z" />
<glyph unicode="&#xe1;" horiz-adv-x="854" d="M78 162q0 181 234 245q105 29 229 29v201q0 137 -133 137q-96 0 -132 -49q37 -23 37 -70q0 -35 -24.5 -60.5t-59.5 -25.5t-59.5 25.5t-24.5 60.5q0 99 140 157q60 24 123 24q278 0 278 -277v-448q0 -74 39 -74q17 0 35.5 25.5t36.5 25.5q14 0 26 -12q4 -4 4 -17 q0 -23 -14 -34q-61 -48 -139 -48q-109 0 -129 119q-135 -123 -269 -123q-87 0 -142.5 51.5t-55.5 137.5zM231 188q0 -50 30 -86q32 -39 81 -39q87 0 199 99v215q-310 0 -310 -189zM258 944q0 11 9 16q95 80 158 165l41 55q32 44 67 44q70 0 70 -67q0 -33 -25 -53 q-6 -5 -102 -54.5t-181 -122.5q-7 -6 -14 -6q-23 0 -23 23z" />
<glyph unicode="&#xe2;" horiz-adv-x="854" d="M78 162q0 181 234 245q105 29 229 29v201q0 137 -133 137q-96 0 -132 -49q37 -23 37 -70q0 -35 -24.5 -60.5t-59.5 -25.5t-59.5 25.5t-24.5 60.5q0 99 140 157q60 24 123 24q278 0 278 -277v-448q0 -74 39 -74q17 0 35.5 25.5t36.5 25.5q14 0 26 -12q4 -4 4 -17 q0 -23 -14 -34q-61 -48 -139 -48q-109 0 -129 119q-135 -123 -269 -123q-87 0 -142.5 51.5t-55.5 137.5zM181 938q0 7 4 11l213 229q19 20 32 20q15 0 33 -20l211 -229q0 -25 -27 -25l-219 139l-217 -139q-30 0 -30 14zM231 188q0 -50 30 -86q32 -39 81 -39q87 0 199 99v215 q-310 0 -310 -189z" />
<glyph unicode="&#xe3;" horiz-adv-x="854" d="M78 162q0 181 234 245q105 29 229 29v201q0 137 -133 137q-96 0 -132 -49q37 -23 37 -70q0 -35 -24.5 -60.5t-59.5 -25.5t-59.5 25.5t-24.5 60.5q0 99 140 157q60 24 123 24q278 0 278 -277v-448q0 -74 39 -74q17 0 35.5 25.5t36.5 25.5q14 0 26 -12q4 -4 4 -17 q0 -23 -14 -34q-61 -48 -139 -48q-109 0 -129 119q-135 -123 -269 -123q-87 0 -142.5 51.5t-55.5 137.5zM170 942q0 72 30 129q36 70 102 70q45 0 129 -59q75 -54 112 -54q72 0 88 98q2 15 17 15q16 0 16 -15q0 -80 -30 -136q-37 -69 -111 -69q-38 0 -118 55q-85 58 -116 58 q-67 0 -88 -92q-3 -14 -18 -14q-13 0 -13 14zM231 188q0 -50 30 -86q32 -39 81 -39q87 0 199 99v215q-310 0 -310 -189z" />
<glyph unicode="&#xe4;" horiz-adv-x="854" d="M78 162q0 181 234 245q105 29 229 29v201q0 137 -133 137q-96 0 -132 -49q37 -23 37 -70q0 -35 -24.5 -60.5t-59.5 -25.5t-59.5 25.5t-24.5 60.5q0 99 140 157q60 24 123 24q278 0 278 -277v-448q0 -74 39 -74q17 0 35.5 25.5t36.5 25.5q14 0 26 -12q4 -4 4 -17 q0 -23 -14 -34q-61 -48 -139 -48q-109 0 -129 119q-135 -123 -269 -123q-87 0 -142.5 51.5t-55.5 137.5zM162 1001q0 34 22.5 57t56.5 23t57 -23t23 -57q0 -33 -23.5 -56.5t-56.5 -23.5t-56 23.5t-23 56.5zM231 188q0 -50 30 -86q32 -39 81 -39q87 0 199 99v215 q-310 0 -310 -189zM502 1001q0 34 22.5 57t56.5 23q80 0 80 -80q0 -33 -23.5 -56.5t-56.5 -23.5t-56 23.5t-23 56.5z" />
<glyph unicode="&#xe5;" horiz-adv-x="854" d="M78 162q0 181 234 245q105 29 229 29v201q0 137 -133 137q-96 0 -132 -49q37 -23 37 -70q0 -35 -24.5 -60.5t-59.5 -25.5t-59.5 25.5t-24.5 60.5q0 99 140 157q60 24 123 24q278 0 278 -277v-448q0 -74 39 -74q17 0 35.5 25.5t36.5 25.5q14 0 26 -12q4 -4 4 -17 q0 -23 -14 -34q-61 -48 -139 -48q-109 0 -129 119q-135 -123 -269 -123q-87 0 -142.5 51.5t-55.5 137.5zM231 188q0 -50 30 -86q32 -39 81 -39q87 0 199 99v215q-310 0 -310 -189zM256 1087q0 99 82 148q38 22 86 22q71 0 120 -50t49 -120t-49.5 -119t-119.5 -49t-119 49 t-49 119zM329 1087q0 -39 28 -65.5t67 -26.5q38 0 66 27t28 65t-28 66t-66 28q-39 0 -67 -27.5t-28 -66.5z" />
<glyph unicode="&#xe6;" horiz-adv-x="1325" d="M78 162q0 181 234 245q105 29 229 29v201q0 137 -133 137q-102 0 -138 -45q43 -19 43 -74q0 -35 -24.5 -60.5t-59.5 -25.5t-59.5 25.5t-24.5 60.5q0 99 140 157q60 24 123 24q174 0 241 -111q108 111 252 111q202 0 288 -156q40 -73 40 -162q0 -26 -2 -41h-535 q-2 -22 -2 -76q0 -366 236 -366q185 0 245 172q11 33 33 33q31 0 31 -31q0 -21 -8 -39q-62 -144 -200 -186q-62 -19 -128 -19q-191 0 -303 180q-166 -172 -320 -172q-87 0 -142.5 51.5t-55.5 137.5zM231 188q0 -50 30 -86q32 -39 81 -39q112 0 227 130q-28 60 -28 155v29 q-310 0 -310 -189zM702 549h361q12 27 12 69q0 152 -155 152q-116 0 -172 -88q-32 -50 -46 -133z" />
<glyph unicode="&#xe7;" horiz-adv-x="836" d="M98 401q0 183 92 303q101 132 279 132q170 0 255 -113q40 -53 40 -115q0 -106 -94 -106q-38 0 -64 26t-26 64q0 79 73 90q-42 88 -159 88q-157 0 -206 -155q-26 -82 -26 -214q0 -364 234 -364q160 0 215 170q11 33 32 33q31 0 31 -31q0 -20 -8 -39q-88 -205 -293 -205 v-104q68 -8 116 -41q58 -41 58 -103q0 -152 -268 -196q-29 0 -29 16q0 15 29 23q156 41 156 145q0 98 -117 98q-29 0 -29 47l25 119q-197 27 -277 223q-39 93 -39 209z" />
<glyph unicode="&#xe8;" horiz-adv-x="897" d="M98 401q0 189 115 315q110 120 262 120q202 0 288 -156q40 -73 40 -162q0 -26 -2 -41h-537q-2 -22 -2 -76q0 -242 109 -325q52 -41 127 -41q186 0 245 172q17 33 33 33q33 0 33 -31q0 -20 -8 -39q-87 -205 -328 -205q-99 0 -187 60q-83 56 -133 147q-55 99 -55 229z M260 1157q0 25 14 41q22 26 56 26q22 0 43 -16q44 -58 113 -144q39 -45 110 -104q6 -6 6 -16q0 -25 -22 -25q-8 0 -15 6q-93 81 -219 143q-51 24 -61 33q-25 23 -25 56zM274 549h363q12 36 12 69q0 152 -155 152q-184 0 -220 -221z" />
<glyph unicode="&#xe9;" horiz-adv-x="897" d="M98 401q0 189 115 315q110 120 262 120q202 0 288 -156q40 -73 40 -162q0 -26 -2 -41h-537q-2 -22 -2 -76q0 -242 109 -325q52 -41 127 -41q186 0 245 172q17 33 33 33q33 0 33 -31q0 -20 -8 -39q-87 -205 -328 -205q-99 0 -187 60q-83 56 -133 147q-55 99 -55 229z M274 549h363q12 36 12 69q0 152 -155 152q-184 0 -220 -221zM329 944q0 11 9 16q95 80 158 165l41 55q32 44 67 44q70 0 70 -67q0 -33 -25 -53q-6 -5 -102 -54.5t-181 -122.5q-7 -6 -14 -6q-23 0 -23 23z" />
<glyph unicode="&#xea;" horiz-adv-x="897" d="M98 401q0 189 115 315q110 120 262 120q202 0 288 -156q40 -73 40 -162q0 -26 -2 -41h-537q-2 -22 -2 -76q0 -242 109 -325q52 -41 127 -41q186 0 245 172q17 33 33 33q33 0 33 -31q0 -20 -8 -39q-87 -205 -328 -205q-99 0 -187 60q-83 56 -133 147q-55 99 -55 229z M234 938q0 7 4 11l213 229q19 20 32 20q15 0 33 -20l211 -229q0 -25 -27 -25l-219 139l-217 -139q-30 0 -30 14zM274 549h363q12 36 12 69q0 152 -155 152q-184 0 -220 -221z" />
<glyph unicode="&#xeb;" horiz-adv-x="897" d="M98 401q0 189 115 315q110 120 262 120q202 0 288 -156q40 -73 40 -162q0 -26 -2 -41h-537q-2 -22 -2 -76q0 -242 109 -325q52 -41 127 -41q186 0 245 172q17 33 33 33q33 0 33 -31q0 -20 -8 -39q-87 -205 -328 -205q-99 0 -187 60q-83 56 -133 147q-55 99 -55 229z M220 1001q0 34 22.5 57t56.5 23t57 -23t23 -57q0 -33 -23.5 -56.5t-56.5 -23.5t-56 23.5t-23 56.5zM274 549h363q12 36 12 69q0 152 -155 152q-184 0 -220 -221zM560 1001q0 34 22.5 57t56.5 23q80 0 80 -80q0 -33 -23.5 -56.5t-56.5 -23.5t-56 23.5t-23 56.5z" />
<glyph unicode="&#xec;" horiz-adv-x="586" d="M76 1157q0 25 14 41q22 26 56 26q22 0 43 -16q44 -58 113 -144q39 -45 110 -104q6 -6 6 -16q0 -25 -22 -25q-8 0 -15 6q-93 81 -219 143q-51 24 -61 33q-25 23 -25 56zM78 29q0 37 31 37q7 0 42 -1l89 -2v676q-56 0 -103 -4q-23 -2 -28 -2q-31 0 -31 37q0 35 31 35 q-1 0 131 -2q20 0 58 4t56 4q31 0 31 -37v-711l131 3q31 0 31 -37q0 -35 -31 -35q-14 0 -39 3q-29 4 -39 5q-43 2 -123 2h-8q-134 0 -177 -8q-15 -2 -21 -2q-31 0 -31 35z" />
<glyph unicode="&#xed;" horiz-adv-x="586" d="M78 29q0 37 31 37q7 0 42 -1l89 -2v676q-56 0 -103 -4q-23 -2 -28 -2q-31 0 -31 37q0 35 31 35q-1 0 131 -2q20 0 58 4t56 4q31 0 31 -37v-711l131 3q31 0 31 -37q0 -35 -31 -35q-14 0 -39 3q-29 4 -39 5q-43 2 -123 2h-8q-134 0 -177 -8q-15 -2 -21 -2q-31 0 -31 35z M100 944q0 11 9 16q95 80 158 165l41 55q32 44 67 44q70 0 70 -67q0 -33 -25 -53q-6 -5 -102 -54.5t-181 -122.5q-7 -6 -14 -6q-23 0 -23 23z" />
<glyph unicode="&#xee;" horiz-adv-x="586" d="M27 936q0 7 4 11l213 229q19 20 32 20q15 0 33 -20l211 -229q0 -25 -27 -25l-219 139l-217 -139q-30 0 -30 14zM78 29q0 37 31 37q7 0 42 -1l89 -2v676q-56 0 -103 -4q-23 -2 -28 -2q-31 0 -31 37q0 35 31 35q-1 0 131 -2q20 0 58 4t56 4q31 0 31 -37v-711l131 3 q31 0 31 -37q0 -35 -31 -35q-14 0 -39 3q-29 4 -39 5q-43 2 -123 2h-8q-134 0 -177 -8q-15 -2 -21 -2q-31 0 -31 35z" />
<glyph unicode="&#xef;" horiz-adv-x="586" d="M33 1001q0 34 22.5 57t56.5 23t57 -23t23 -57q0 -33 -23.5 -56.5t-56.5 -23.5t-56 23.5t-23 56.5zM78 29q0 37 31 37q7 0 42 -1l89 -2v676q-56 0 -103 -4q-23 -2 -28 -2q-31 0 -31 37q0 35 31 35q-1 0 131 -2q20 0 58 4t56 4q31 0 31 -37v-711l131 3q31 0 31 -37 q0 -35 -31 -35q-14 0 -39 3q-29 4 -39 5q-43 2 -123 2h-8q-134 0 -177 -8q-15 -2 -21 -2q-31 0 -31 35zM373 1001q0 34 22.5 57t56.5 23q80 0 80 -80q0 -33 -23.5 -56.5t-56.5 -23.5t-56 23.5t-23 56.5z" />
<glyph unicode="&#xf0;" horiz-adv-x="1069" d="M117 350q0 239 201 339q90 44 194 44q159 0 252 -123q-47 275 -184 463l-17 -12q-40 -28 -114 -100q-30 -29 -50 -50q-8 -8 -22 -8q-49 0 -49 51q0 21 40 48q35 23 146 116l18 15q-111 133 -249 155q-43 7 -43 39q0 29 45 29q158 -22 317 -164l8 6q32 24 97 83 q21 23 67 65q8 8 23 8q19 0 34 -15t15 -34q0 -20 -12 -29q-31 -22 -91 -66q-37 -28 -86 -69q199 -209 266 -474q21 -86 21 -167q0 -225 -93 -367q-109 -168 -323 -168q-236 0 -355 194q-56 89 -56 191zM281 352q0 -319 247 -319q252 0 252 368q0 155 -122 230 q-61 37 -146 37q-117 0 -179 -104q-52 -87 -52 -212z" />
<glyph unicode="&#xf1;" horiz-adv-x="1137" d="M78 29q0 37 31 37q7 0 42 -1l89 -2v676q-56 0 -103 -4q-23 -2 -28 -2q-31 0 -31 37q0 35 31 35q-1 0 131 -2q20 0 58 4t56 4q31 0 31 -37v-170q36 93 116 160q87 72 181 72q254 0 254 -304v-469l131 3q31 0 31 -37q0 -35 -31 -35q-14 0 -39 3q-29 4 -39 5q-43 2 -123 2 h-8q-135 0 -177 -8q-14 -2 -22 -2q-30 0 -30 35q0 37 30 37q7 0 43 -1l89 -2v539q0 78 -22 113q-28 43 -101 43q-77 0 -147 -65q-59 -54 -95 -133q-41 -91 -41 -189v-308l131 3q31 0 31 -37q0 -35 -31 -35q-14 0 -39 3q-29 4 -39 5q-43 2 -123 2h-8q-134 0 -177 -8 q-15 -2 -21 -2q-31 0 -31 35zM323 942q0 72 30 129q36 70 102 70q45 0 129 -59q75 -54 112 -54q72 0 88 98q2 15 17 15q16 0 16 -15q0 -80 -30 -136q-37 -69 -111 -69q-38 0 -118 55q-85 58 -116 58q-67 0 -88 -92q-3 -14 -18 -14q-13 0 -13 14z" />
<glyph unicode="&#xf2;" horiz-adv-x="973" d="M98 401q0 262 194 381q89 54 195 54q224 0 335 -208q52 -99 52 -227q0 -260 -193 -381q-88 -55 -194 -55q-226 0 -336 210q-53 99 -53 226zM262 401q0 -262 97 -332q49 -36 128 -36q140 0 191 123q33 80 33 245t-33 246q-51 123 -191 123q-156 0 -201 -153 q-24 -82 -24 -216zM283 1157q0 25 14 41q22 26 56 26q22 0 43 -16q44 -58 113 -144q39 -45 110 -104q6 -6 6 -16q0 -25 -22 -25q-8 0 -15 6q-93 81 -219 143q-51 24 -61 33q-25 23 -25 56z" />
<glyph unicode="&#xf3;" horiz-adv-x="973" d="M98 401q0 262 194 381q89 54 195 54q224 0 335 -208q52 -99 52 -227q0 -260 -193 -381q-88 -55 -194 -55q-226 0 -336 210q-53 99 -53 226zM262 401q0 -262 97 -332q49 -36 128 -36q140 0 191 123q33 80 33 245t-33 246q-51 123 -191 123q-156 0 -201 -153 q-24 -82 -24 -216zM344 944q0 11 9 16q95 80 158 165l41 55q32 44 67 44q70 0 70 -67q0 -33 -25 -53q-6 -5 -102 -54.5t-181 -122.5q-7 -6 -14 -6q-23 0 -23 23z" />
<glyph unicode="&#xf4;" horiz-adv-x="973" d="M98 401q0 262 194 381q89 54 195 54q224 0 335 -208q52 -99 52 -227q0 -260 -193 -381q-88 -55 -194 -55q-226 0 -336 210q-53 99 -53 226zM228 938q0 7 4 11l213 229q19 20 32 20q15 0 33 -20l211 -229q0 -25 -27 -25l-219 139l-217 -139q-30 0 -30 14zM262 401 q0 -262 97 -332q49 -36 128 -36q140 0 191 123q33 80 33 245t-33 246q-51 123 -191 123q-156 0 -201 -153q-24 -82 -24 -216z" />
<glyph unicode="&#xf5;" horiz-adv-x="973" d="M98 401q0 262 194 381q89 54 195 54q224 0 335 -208q52 -99 52 -227q0 -260 -193 -381q-88 -55 -194 -55q-226 0 -336 210q-53 99 -53 226zM251 942q0 72 30 129q36 70 102 70q45 0 129 -59q75 -54 112 -54q72 0 88 98q2 15 17 15q16 0 16 -15q0 -80 -30 -136 q-37 -69 -111 -69q-38 0 -118 55q-85 58 -116 58q-67 0 -88 -92q-3 -14 -18 -14q-13 0 -13 14zM262 401q0 -262 97 -332q49 -36 128 -36q140 0 191 123q33 80 33 245t-33 246q-51 123 -191 123q-156 0 -201 -153q-24 -82 -24 -216z" />
<glyph unicode="&#xf6;" horiz-adv-x="973" d="M98 401q0 262 194 381q89 54 195 54q224 0 335 -208q52 -99 52 -227q0 -260 -193 -381q-88 -55 -194 -55q-226 0 -336 210q-53 99 -53 226zM242 1001q0 34 22.5 57t56.5 23t57 -23t23 -57q0 -33 -23.5 -56.5t-56.5 -23.5t-56 23.5t-23 56.5zM262 401q0 -262 97 -332 q49 -36 128 -36q140 0 191 123q33 80 33 245t-33 246q-51 123 -191 123q-156 0 -201 -153q-24 -82 -24 -216zM582 1001q0 34 22.5 57t56.5 23q80 0 80 -80q0 -33 -23.5 -56.5t-56.5 -23.5t-56 23.5t-23 56.5z" />
<glyph unicode="&#xf7;" horiz-adv-x="938" d="M102 510q0 47 39 47q21 0 56 -3q43 -3 57 -3q38 -2 108 -2h218q108 0 183 6q32 2 38 2q39 0 39 -47q0 -45 -39 -45q-21 0 -55 3q-42 3 -55 4q-39 1 -111 1h-218q-109 0 -167 -4l-54 -4q-39 0 -39 45zM375 231q0 39 28.5 69t67.5 30t68.5 -30t29.5 -69t-29.5 -69.5 t-68.5 -30.5t-67.5 30.5t-28.5 69.5zM375 793q0 39 28.5 68.5t67.5 29.5q40 0 69 -29t29 -69t-29 -70.5t-69 -30.5q-39 0 -67.5 31t-28.5 70z" />
<glyph unicode="&#xf8;" horiz-adv-x="973" d="M98 401q0 262 194 381q89 54 195 54q100 0 185 -50q9 23 28 58q19 16 35 18q13 0 25 -6q24 -15 24 -39q0 -11 -6 -20.5t-39 -59.5q135 -122 135 -336q0 -260 -193 -381q-88 -55 -194 -55q-88 0 -170 41q-10 -24 -32 -65q-16 -19 -33 -19q-12 0 -29 10q-24 10 -24 35 q0 13 6 19q15 24 43 67q-150 130 -150 348zM262 401q0 -174 41 -262q14 26 21 35l272 475q23 41 39 66q-49 55 -148 55q-156 0 -201 -153q-24 -82 -24 -216zM352 74q47 -41 135 -41q140 0 191 123q33 80 33 245q0 149 -31 240q-7 -12 -18 -31l-275 -473q-5 -9 -18 -33z" />
<glyph unicode="&#xf9;" horiz-adv-x="999" d="M6 772q0 35 31 35q72 -4 131 -4q19 0 57.5 5t57.5 5q30 0 30 -37v-573q0 -156 113 -156q139 0 224 204q38 92 38 191v301q-58 0 -94 -4l-37 -4q-31 0 -31 37q0 35 31 35q74 -4 131 -4q19 0 57.5 5t57.5 5q31 0 31 -37v-665q0 -74 38 -74q14 0 28 17q21 24 24 26q8 8 20 8 q13 0 25 -12q4 -4 4 -19q0 -24 -15 -32q-61 -48 -137 -48q-64 0 -100 48q-33 44 -33 110v66q-33 -90 -109 -158q-84 -74 -173 -74q-238 0 -238 303v471q-60 0 -95 -4l-36 -4q-31 0 -31 37zM240 1157q0 25 14 41q22 26 56 26q22 0 43 -16q44 -58 113 -144q39 -45 110 -104 q6 -6 6 -16q0 -25 -22 -25q-8 0 -15 6q-93 81 -219 143q-51 24 -61 33q-25 23 -25 56z" />
<glyph unicode="&#xfa;" horiz-adv-x="999" d="M6 772q0 35 31 35q72 -4 131 -4q19 0 57.5 5t57.5 5q30 0 30 -37v-573q0 -156 113 -156q139 0 224 204q38 92 38 191v301q-58 0 -94 -4l-37 -4q-31 0 -31 37q0 35 31 35q74 -4 131 -4q19 0 57.5 5t57.5 5q31 0 31 -37v-665q0 -74 38 -74q14 0 28 17q21 24 24 26q8 8 20 8 q13 0 25 -12q4 -4 4 -19q0 -24 -15 -32q-61 -48 -137 -48q-64 0 -100 48q-33 44 -33 110v66q-33 -90 -109 -158q-84 -74 -173 -74q-238 0 -238 303v471q-60 0 -95 -4l-36 -4q-31 0 -31 37zM329 942q0 11 9 16q95 80 158 165l41 55q32 44 67 44q70 0 70 -67q0 -33 -25 -53 q-6 -5 -102 -54.5t-181 -122.5q-7 -6 -14 -6q-23 0 -23 23z" />
<glyph unicode="&#xfb;" horiz-adv-x="999" d="M6 772q0 35 31 35q72 -4 131 -4q19 0 57.5 5t57.5 5q30 0 30 -37v-573q0 -156 113 -156q139 0 224 204q38 92 38 191v301q-58 0 -94 -4l-37 -4q-31 0 -31 37q0 35 31 35q74 -4 131 -4q19 0 57.5 5t57.5 5q31 0 31 -37v-665q0 -74 38 -74q14 0 28 17q21 24 24 26q8 8 20 8 q13 0 25 -12q4 -4 4 -19q0 -24 -15 -32q-61 -48 -137 -48q-64 0 -100 48q-33 44 -33 110v66q-33 -90 -109 -158q-84 -74 -173 -74q-238 0 -238 303v471q-60 0 -95 -4l-36 -4q-31 0 -31 37zM207 938q0 7 4 11l213 229q19 20 32 20q15 0 33 -20l211 -229q0 -25 -27 -25 l-219 139l-217 -139q-30 0 -30 14z" />
<glyph unicode="&#xfc;" horiz-adv-x="999" d="M6 772q0 35 31 35q72 -4 131 -4q19 0 57.5 5t57.5 5q30 0 30 -37v-573q0 -156 113 -156q139 0 224 204q38 92 38 191v301q-58 0 -94 -4l-37 -4q-31 0 -31 37q0 35 31 35q74 -4 131 -4q19 0 57.5 5t57.5 5q31 0 31 -37v-665q0 -74 38 -74q14 0 28 17q21 24 24 26q8 8 20 8 q13 0 25 -12q4 -4 4 -19q0 -24 -15 -32q-61 -48 -137 -48q-64 0 -100 48q-33 44 -33 110v66q-33 -90 -109 -158q-84 -74 -173 -74q-238 0 -238 303v471q-60 0 -95 -4l-36 -4q-31 0 -31 37zM218 1001q0 34 22.5 57t56.5 23t57 -23t23 -57q0 -33 -23.5 -56.5t-56.5 -23.5 t-56 23.5t-23 56.5zM558 1001q0 34 22.5 57t56.5 23q80 0 80 -80q0 -33 -23.5 -56.5t-56.5 -23.5t-56 23.5t-23 56.5z" />
<glyph unicode="&#xfd;" horiz-adv-x="831" d="M-55 -426q0 88 82 88q33 0 56 -23.5t23 -56.5q0 -52 -40 -69q7 -11 30 -11q82 0 156 189l121 311l-273 737q-36 0 -92 -2q-31 -1 -31 37q0 35 31 35q27 0 82.5 -5t83.5 -5h6q28 0 82.5 5t81.5 5q31 0 31 -35q0 -38 -31 -37q-52 2 -84 2l191 -528l200 528q-36 0 -94 -2 q-31 -1 -31 37q0 35 31 35q21 0 63 -5t64 -5t66 5t65 5q31 0 31 -35q0 -38 -31 -37q-48 2 -92 2l-348 -919q-104 -275 -189 -336q-44 -31 -96 -31q-56 0 -98 32q-47 35 -47 89zM354 944q0 11 9 16q95 80 158 165l41 55q32 44 67 44q70 0 70 -67q0 -33 -25 -53 q-6 -5 -102 -54.5t-181 -122.5q-7 -6 -14 -6q-23 0 -23 23z" />
<glyph unicode="&#xfe;" horiz-adv-x="1083" d="M102 29q0 37 31 37q7 0 46 -1l93 -2v1188h-98q-13 -1 -41 -2q-31 -1 -31 37q0 35 31 35q35 0 104.5 -5t104.5 -5h25q87 0 147 5l61 5q31 0 31 -35q0 -38 -31 -37q-62 2 -139 2v-188q41 2 139 2q294 0 405 -181q52 -87 52 -202q0 -176 -117 -278q-123 -107 -340 -107h-139 v-234l139 3q31 0 31 -37q0 -35 -31 -35q-15 0 -41 3q-31 4 -41 5q-45 2 -126 2h-25q-139 0 -185 -8q-16 -2 -24 -2q-31 0 -31 35zM436 373h139q156 0 216.5 68t60.5 241q0 224 -114 278q-61 29 -163 29h-139v-616z" />
<glyph unicode="&#xff;" horiz-adv-x="831" d="M-55 -426q0 88 82 88q33 0 56 -23.5t23 -56.5q0 -52 -40 -69q7 -11 30 -11q82 0 156 189l121 311l-273 737q-36 0 -92 -2q-31 -1 -31 37q0 35 31 35q27 0 82.5 -5t83.5 -5h6q28 0 82.5 5t81.5 5q31 0 31 -35q0 -38 -31 -37q-52 2 -84 2l191 -528l200 528q-36 0 -94 -2 q-31 -1 -31 37q0 35 31 35q21 0 63 -5t64 -5t66 5t65 5q31 0 31 -35q0 -38 -31 -37q-48 2 -92 2l-348 -919q-104 -275 -189 -336q-44 -31 -96 -31q-56 0 -98 32q-47 35 -47 89zM211 1001q0 34 22.5 57t56.5 23t57 -23t23 -57q0 -33 -23.5 -56.5t-56.5 -23.5t-56 23.5 t-23 56.5zM551 1001q0 34 22.5 57t56.5 23q80 0 80 -80q0 -33 -23.5 -56.5t-56.5 -23.5t-56 23.5t-23 56.5z" />
<glyph unicode="&#x152;" horiz-adv-x="1733" d="M98 657q0 289 164 477q159 183 387 183q46 0 122 -2q35 -1 89 -2l113 -2q47 0 266 2l217 2q19 0 57.5 4t57.5 4q31 0 31 -37v-61q0 -41 5 -124t5 -124q0 -31 -33 -31q-35 0 -35 31q0 262 -168 262h-336v-516h203q109 0 109 158q0 30 26 30q29 0 29 -30q0 48 -2 -52 t-2 -143q0 -82 2 -141l2 -53q0 -31 -29 -31q-26 0 -26 31q0 157 -109 157h-203v-573h387q168 0 168 262q0 31 35 31q33 0 33 -31q0 -41 -5 -124t-5 -124v-63q0 -35 -31 -35q-19 0 -57.5 4t-57.5 4q-73 0 -192 1q-147 2 -192 3h-150q-54 0 -162 -4t-162 -4q-227 0 -386 183 q-165 189 -165 478zM287 657q0 -415 162 -526q80 -55 200 -55q146 0 230 4v1155q-96 4 -230 4q-244 0 -321 -238q-41 -128 -41 -344z" />
<glyph unicode="&#x153;" horiz-adv-x="1509" d="M98 401q0 262 194 381q89 54 195 54q124 0 223 -74q48 -36 83 -86q73 102 183 141q54 19 109 19q202 0 288 -156q40 -73 40 -162q0 -26 -2 -41h-534q-3 -22 -3 -76q0 -242 109 -325q52 -41 127 -41q188 0 246 172q11 33 33 33q30 0 30 -31q0 -21 -8 -39 q-62 -144 -200 -186q-62 -19 -128 -19q-175 0 -290 162q-117 -162 -306 -162q-226 0 -336 210q-53 99 -53 226zM262 401q0 -262 97 -332q49 -36 128 -36q140 0 191 123q33 80 33 245t-33 246q-51 123 -191 123q-156 0 -201 -153q-24 -82 -24 -216zM887 549h360q13 29 13 69 q0 152 -156 152q-179 0 -217 -221z" />
<glyph unicode="&#x178;" horiz-adv-x="1010" d="M-82 1286q0 35 31 35q122 -10 209 -10h24q87 0 148 5l61 5q31 0 31 -35q0 -38 -31 -37q-60 2 -129 2l293 -553l291 553h-10h-93q-12 -1 -34 -2q-31 -1 -31 37q0 35 31 35q28 0 85.5 -5t86.5 -5h10q77 0 124 5l48 5q31 0 31 -35q0 -38 -31 -37q-58 2 -119 2h-10l-334 -628 v-560l139 3q31 0 31 -37q0 -35 -31 -35q-15 0 -42 3q-31 4 -41 5q-45 2 -126 2h-24q-137 0 -186 -8q-17 -2 -23 -2q-31 0 -31 35q0 38 31 37l139 -3v512l-358 676q-67 0 -129 -2q-31 -1 -31 37zM322 1511q0 34 22.5 57t56.5 23t57 -23t23 -57q0 -33 -23.5 -56.5t-56.5 -23.5 t-56 23.5t-23 56.5zM662 1511q0 34 22.5 57t56.5 23q80 0 80 -80q0 -33 -23.5 -56.5t-56.5 -23.5t-56 23.5t-23 56.5z" />
<glyph unicode="&#x2c6;" horiz-adv-x="700" d="M66 1167q0 7 4 11l213 229q19 20 32 20q15 0 33 -20l211 -229q0 -25 -27 -25l-219 139l-217 -139q-30 0 -30 14z" />
<glyph unicode="&#x2dc;" horiz-adv-x="614" d="M61 1235q0 72 30 129q36 70 102 70q45 0 129 -59q75 -54 112 -54q72 0 88 98q2 15 17 15q16 0 16 -15q0 -80 -30 -136q-37 -69 -111 -69q-38 0 -118 55q-85 58 -116 58q-67 0 -88 -92q-3 -14 -18 -14q-13 0 -13 14z" />
<glyph unicode="&#x2000;" horiz-adv-x="885" />
<glyph unicode="&#x2001;" horiz-adv-x="1771" />
<glyph unicode="&#x2002;" horiz-adv-x="885" />
<glyph unicode="&#x2003;" horiz-adv-x="1771" />
<glyph unicode="&#x2004;" horiz-adv-x="590" />
<glyph unicode="&#x2005;" horiz-adv-x="442" />
<glyph unicode="&#x2006;" horiz-adv-x="295" />
<glyph unicode="&#x2007;" horiz-adv-x="295" />
<glyph unicode="&#x2008;" horiz-adv-x="221" />
<glyph unicode="&#x2009;" horiz-adv-x="354" />
<glyph unicode="&#x200a;" horiz-adv-x="98" />
<glyph unicode="&#x2010;" horiz-adv-x="938" d="M193 510q0 47 38 47q21 0 56 -3q42 -3 56 -3q38 -2 110 -2h32q107 0 182 6q32 2 38 2q38 0 38 -47q0 -45 -38 -45q-20 0 -55 3q-41 3 -54 4q-38 1 -111 1h-32q-104 0 -182 -5q-34 -3 -40 -3q-38 0 -38 45z" />
<glyph unicode="&#x2011;" horiz-adv-x="938" d="M193 510q0 47 38 47q21 0 56 -3q42 -3 56 -3q38 -2 110 -2h32q107 0 182 6q32 2 38 2q38 0 38 -47q0 -45 -38 -45q-20 0 -55 3q-41 3 -54 4q-38 1 -111 1h-32q-104 0 -182 -5q-34 -3 -40 -3q-38 0 -38 45z" />
<glyph unicode="&#x2012;" horiz-adv-x="938" d="M193 510q0 47 38 47q21 0 56 -3q42 -3 56 -3q38 -2 110 -2h32q107 0 182 6q32 2 38 2q38 0 38 -47q0 -45 -38 -45q-20 0 -55 3q-41 3 -54 4q-38 1 -111 1h-32q-104 0 -182 -5q-34 -3 -40 -3q-38 0 -38 45z" />
<glyph unicode="&#x2013;" horiz-adv-x="1366" d="M-2 473v76h1368v-76h-1368z" />
<glyph unicode="&#x2014;" horiz-adv-x="1075" d="M-2 473v76h1077v-76h-1077z" />
<glyph unicode="&#x2018;" horiz-adv-x="510" d="M133 1208q0 59 36.5 99.5t94.5 40.5q111 0 111 -107q0 -34 -28 -62t-62 -28q-32 0 -56 21t-24 53q-6 -16 -6 -39q0 -93 80 -207q10 -14 10 -29q0 -18 -19 -18q-10 0 -20 10q-117 151 -117 266z" />
<glyph unicode="&#x2019;" horiz-adv-x="510" d="M135 1241q0 107 111 107q82 0 116 -72q15 -33 15 -68q0 -118 -115 -266q-10 -10 -20 -10q-21 0 -21 20q0 13 10 27q80 111 80 207q0 22 -6 39q0 -74 -80 -74q-34 0 -62 28t-28 62z" />
<glyph unicode="&#x201a;" horiz-adv-x="598" d="M152 74q0 48 31 77t79 29q83 0 118 -72q15 -32 15 -67q0 -120 -116 -266q-13 -11 -21 -11q-18 0 -18 19q0 13 10 27q80 114 80 208q0 24 -6 39q0 -73 -82 -73q-34 0 -62 28t-28 62z" />
<glyph unicode="&#x201c;" horiz-adv-x="856" d="M133 1208q0 59 36.5 99.5t94.5 40.5q111 0 111 -107q0 -34 -28 -62t-62 -28q-32 0 -56 21t-24 53q-6 -16 -6 -39q0 -93 80 -207q10 -14 10 -29q0 -18 -19 -18q-10 0 -20 10q-117 151 -117 266zM477 1208q0 59 37.5 99.5t95.5 40.5q111 0 111 -107q0 -34 -28 -62t-62 -28 q-33 0 -57.5 20.5t-24.5 53.5q-6 -16 -6 -39q0 -93 80 -207q10 -14 10 -29q0 -18 -19 -18q-10 0 -20 10q-117 151 -117 266z" />
<glyph unicode="&#x201d;" horiz-adv-x="856" d="M135 1241q0 107 111 107q82 0 116 -72q15 -33 15 -68q0 -118 -115 -266q-10 -10 -20 -10q-21 0 -21 20q0 13 10 27q80 111 80 207q0 22 -6 39q0 -74 -80 -74q-34 0 -62 28t-28 62zM479 1241q0 49 31 78t80 29q83 0 118 -72q15 -32 15 -68q0 -115 -117 -266 q-10 -10 -20 -10q-19 0 -19 20q0 15 11 27q79 110 79 207q0 22 -6 39q0 -33 -24.5 -53.5t-57.5 -20.5q-34 0 -62 28t-28 62z" />
<glyph unicode="&#x201e;" horiz-adv-x="856" d="M135 74q0 106 111 106q84 0 116 -72q15 -34 15 -67q0 -121 -115 -266q-11 -11 -22 -11q-19 0 -19 19q0 13 10 27q80 113 80 208q0 24 -6 39q0 -73 -80 -73q-34 0 -62 28t-28 62zM479 74q0 106 111 106q83 0 118 -72q15 -32 15 -67q0 -118 -117 -266q-11 -11 -20 -11 q-19 0 -19 19q0 14 11 27q79 113 79 208q0 24 -6 39q0 -73 -82 -73q-34 0 -62 28t-28 62z" />
<glyph unicode="&#x2022;" horiz-adv-x="553" d="M119 518q0 65 46 110.5t111 45.5q92 0 137 -78q21 -37 21 -78q0 -66 -46 -112t-112 -46q-64 0 -110.5 47t-46.5 111z" />
<glyph unicode="&#x2026;" horiz-adv-x="1921" d="M205 90q0 45 31.5 77t76.5 32t76 -32t31 -77t-31 -75.5t-76 -30.5q-44 0 -76 31t-32 75zM846 90q0 45 30.5 77t75.5 32t77 -32t32 -77t-32 -75.5t-77 -30.5q-44 0 -75 31t-31 75zM1485 90q0 45 31.5 77t76.5 32t76 -32t31 -77t-31 -75.5t-76 -30.5q-44 0 -76 31t-32 75z " />
<glyph unicode="&#x202f;" horiz-adv-x="354" />
<glyph unicode="&#x2039;" horiz-adv-x="1024" d="M195 549q0 13 20 29l631 415q17 11 26 11q19 0 19 -19q0 -12 -14 -27l-478 -409l478 -410q18 -15 18 -30q0 -17 -18 -17q-16 0 -31 10l-631 416q-20 13 -20 31z" />
<glyph unicode="&#x203a;" horiz-adv-x="1024" d="M129 109q0 12 21 30l475 410l-475 409q-17 12 -17 27q0 19 19 19q11 0 28 -11l629 -415q20 -16 20 -29q0 -18 -20 -31l-629 -416q-15 -10 -30 -10q-21 0 -21 17z" />
<glyph unicode="&#x205f;" horiz-adv-x="442" />
<glyph unicode="&#x2122;" horiz-adv-x="1903" d="M63 1087q0 1 5 82q2 34 2 64v49q0 33 28 33q17 0 51.5 -4t51.5 -4h399q17 0 51 4t51 4q27 0 27 -33v-49q0 -47 4 -95l4 -51q0 -26 -28 -26q-31 0 -31 26q0 91 -23 124q-29 42 -114 42h-74v-612l71 2h46q26 0 26 -33q0 -30 -26 -30q-12 0 -34 3q-26 4 -35 5q-37 2 -109 2 h-11q-122 0 -158 -7q-12 -3 -20 -3q-27 0 -27 30q0 33 27 33q22 0 117 -2v612h-74q-85 0 -114 -42q-23 -33 -23 -124q0 -26 -31 -26q-29 0 -29 26zM831 614q0 33 27 33q22 0 103 -2v608q-51 0 -103 -2q-27 -1 -27 33q0 33 27 33q22 0 66 -5t67 -5h4q9 0 28 1t28 1 q26 0 43 -39l227 -535l225 531q17 41 39 41h33q81 0 131 5l51 5q29 0 29 -33q0 -34 -29 -33q-58 2 -119 2v-608l73 2h46q29 0 29 -33q0 -32 -29 -32q-59 5 -90 6.5t-90 1.5q-64 0 -99 -4l-34 -4q-27 0 -27 32q0 33 27 33q28 0 72 -2v485l-234 -548q-10 -23 -39 -23 q-27 0 -35 25l-225 534v-473q32 2 55 2q29 0 29 -33q0 -32 -29 -32q-14 0 -42.5 4t-43.5 4h-4q-63 0 -99 -4l-34 -4q-27 0 -27 32z" />
<glyph unicode="&#xe000;" horiz-adv-x="810" d="M0 0v810h810v-810h-810z" />
</font>
</defs>
</svg>
