<?xml version="1.0" standalone="no"?>
<!DOCTYPE svg PUBLIC "-//W3C//DTD SVG 1.1//EN" "http://www.w3.org/Graphics/SVG/1.1/DTD/svg11.dtd" >
<svg xmlns="http://www.w3.org/2000/svg">
<metadata></metadata>
<defs>
<font id="filosofiaromanitalic" horiz-adv-x="854" >
<font-face units-per-em="2048" ascent="1638" descent="-410" />
<missing-glyph horiz-adv-x="358" />
<glyph horiz-adv-x="2048" />
<glyph horiz-adv-x="2048" />
<glyph unicode="&#xd;" horiz-adv-x="2048" />
<glyph unicode=" "  horiz-adv-x="358" />
<glyph unicode="&#x09;" horiz-adv-x="358" />
<glyph unicode="&#xa0;" horiz-adv-x="358" />
<glyph unicode="!" horiz-adv-x="569" d="M74 63q0 -35 23.5 -57t58.5 -22q41 0 74.5 28.5t39.5 65.5v8q2 6 2 8q0 35 -23.5 58.5t-58.5 23.5q-41 0 -73.5 -28.5t-40.5 -69.5v-8q-2 -2 -2 -7zM199 379q0 -25 22 -25q23 0 29 25q29 166 57.5 302t52 223t40 140.5t36.5 110.5q25 72 31 105q0 2 2 8v8 q0 31 -21.5 51.5t-52.5 20.5q-37 0 -65.5 -25.5t-36.5 -62.5q-4 -31 -6 -101q0 -51 -2 -108.5t-10.5 -143.5t-27 -219t-48.5 -309z" />
<glyph unicode="&#x22;" horiz-adv-x="751" d="M238 897q0 -23 20 -23q23 0 27 23q16 96 41.5 162.5t60.5 134.5q25 49 27 66v6l2 8q0 31 -21.5 52.5t-54.5 21.5q-35 0 -64.5 -26.5t-35.5 -61.5v-7v-8q0 -14 4 -49q8 -74 8 -129q0 -80 -14 -170zM539 897q0 -23 20 -23q23 0 29 23q16 98 40.5 164.5t59.5 134.5 q25 47 27 64v8l2 6q0 31 -21.5 52.5t-54.5 21.5q-35 0 -64.5 -26.5t-35.5 -61.5v-7v-8q0 -12 4 -49q10 -72 10 -129q0 -78 -16 -170z" />
<glyph unicode="#" horiz-adv-x="827" d="M80 664q0 -20 12 -33t27 -13q10 0 28 3q45 4 105 6q-16 -94 -45 -197q-6 -23 -6 -27q0 -41 41 -49q43 0 51 31q2 8 2 27q4 35 10 85t21 130h168q-18 -90 -39 -178q-8 -37 -11 -46q0 -41 39 -49q43 0 52 31q2 6 2 27q6 49 12 94t20 121q47 0 77 -2t50 -4q14 -2 25 -3 q39 0 39 46q0 47 -39 47q-6 0 -25 -2q-18 -2 -40.5 -3t-73.5 -4l49 279q53 0 81.5 -1t45.5 -3q14 -2 22 -2q39 0 39 45q0 47 -39 47q-6 0 -24 -2t-40 -3t-73 -3l6 26q14 76 23.5 118t17.5 73l6 24q0 41 -39 48q-45 0 -51 -31q-2 -8 -4 -29q-2 -27 -7 -69.5t-20 -118.5 q-4 -16 -6 -41h-10h-158l5 26q16 90 25 130t18 67q6 14 6 18q0 41 -39 48q-47 0 -51 -31q-2 -8 -5 -29q-2 -27 -7 -69.5t-19 -118.5q-2 -10 -5 -24.5t-3 -16.5q-45 0 -75 2t-48 4q-14 2 -23 2q-41 0 -41 -47q0 -45 41 -45q8 0 27 2q43 4 106 6q-2 -18 -18 -107.5t-25 -131.5 l-8 -42q-43 0 -70.5 2.5t-48.5 4.5q-16 2 -24 2q-14 0 -26.5 -13.5t-12.5 -33.5zM340 702l47 281h168l-49 -281h-166z" />
<glyph unicode="$" horiz-adv-x="872" d="M23 322q0 -82 69.5 -159t186.5 -95q-12 -68 -21.5 -110t-15.5 -69q-6 -31 -9 -39q0 -39 39 -38q23 0 37.5 12t16.5 26q2 8 2 27q4 39 10 82t16 102q141 4 242.5 91.5t101.5 234.5q0 111 -63.5 187t-167.5 133l68 383v4q4 16 4 24q94 -20 114 -86q-35 -8 -56.5 -31.5 t-23.5 -52.5q0 -29 18.5 -48t49.5 -19q41 0 71.5 30.5t30.5 81.5q0 68 -51 122t-139 69q14 74 33 155q8 37 8 39q0 39 -39 39q-45 0 -53 -39q0 -4 -4 -35q-8 -78 -21 -153q-51 -2 -106.5 -21.5t-103.5 -58.5t-77.5 -96.5t-29.5 -132.5q0 -102 56 -176t153 -125l-76 -441 q-137 23 -184 146q37 2 66.5 29.5t29.5 62.5q0 29 -21.5 49t-52.5 20q-45 0 -76.5 -32.5t-31.5 -91.5zM272 928q0 80 53.5 134t141.5 60q-4 -12 -8 -32l-62 -347q-61 39 -93 83t-32 102zM367 135l69 404q70 -43 108 -91.5t38 -105.5q0 -90 -63.5 -146.5t-151.5 -60.5z" />
<glyph unicode="%" horiz-adv-x="1671" d="M209 844q0 -129 55 -206t144 -77q109 0 201.5 109.5t123.5 281.5q10 59 10 113q0 127 -54 204t-142 77q-109 0 -202 -111t-126 -283q-10 -57 -10 -108zM328 768q0 72 18 184q33 182 78 258t113 76q45 0 67.5 -33.5t22.5 -111.5q-1 -74 -21 -189q-31 -180 -77 -255.5 t-111 -75.5q-45 0 -67.5 34.5t-22.5 112.5zM399 10q0 -27 25 -35q8 -4 20 -4q27 0 39 23q4 8 17 31q51 96 100 176l492 821q70 119 147 231q19 27 21 31q6 10 6 21q0 23 -25 32q-10 4 -20 4q-25 0 -41 -22q-4 -8 -25 -43q-68 -125 -127 -225l-493 -822q-43 -70 -103 -157 q-23 -33 -26 -41q-6 -10 -7 -21zM920 252q0 -129 56 -206t144 -77q106 0 200.5 110.5t125.5 280.5q10 57 10 111q0 127 -55 205t-144 78q-106 0 -201 -111t-126 -283q-10 -55 -10 -108zM1038 174q0 72 21 186q31 182 77 257t111 75q45 0 67.5 -33.5t22.5 -109.5 q0 -74 -20 -189q-31 -182 -76 -256.5t-111 -74.5q-45 0 -68.5 33.5t-23.5 111.5z" />
<glyph unicode="&#x26;" horiz-adv-x="1263" d="M51 293q0 -137 86 -232.5t248 -95.5q84 0 155 36.5t132 102.5q51 -68 97 -91t110 -23q55 0 100 29.5t79 78.5t54.5 104.5t30.5 110.5q0 39 -27 39q-31 0 -39 -39q-20 -115 -67 -185.5t-103 -70.5q-33 0 -60.5 31t-82.5 133q31 41 88 152q61 117 105 176t96 61q0 -2 -2 -8 v-8q0 -27 21.5 -46.5t45.5 -19.5q33 0 58.5 22.5t31.5 55.5q0 43 -23.5 69.5t-72.5 26.5q-55 0 -103 -27.5t-87 -72.5t-67 -92t-69 -125q-37 -68 -55 -98q-12 20 -20 41l-211 426q6 0 12 4l6 2q135 45 225.5 134t108.5 196q6 29 6 53q0 94 -61.5 149.5t-163.5 55.5 q-72 0 -131.5 -27t-103.5 -72t-72.5 -99t-38.5 -112q-6 -37 -6 -71q0 -102 57 -222q-106 -59 -183 -154t-98 -226q-6 -37 -6 -72zM186 305q0 39 7 78q33 186 176 299l151 -309q78 -156 117 -215q-49 -55 -102.5 -84t-118.5 -29q-117 0 -173.5 75t-56.5 185zM418 1030 q0 35 6 72q14 88 64.5 139t134.5 51q59 0 88.5 -36.5t29.5 -96.5q0 -25 -6 -53q-18 -113 -75.5 -188.5t-182.5 -112.5h-2q-57 121 -57 225z" />
<glyph unicode="'" horiz-adv-x="446" d="M238 897q0 -23 20 -23q23 0 27 23q16 96 41.5 162.5t60.5 134.5q25 49 27 66v6l2 8q0 31 -21.5 52.5t-54.5 21.5q-35 0 -64.5 -26.5t-35.5 -61.5v-7v-8q0 -14 4 -49q8 -74 8 -129q0 -80 -14 -170z" />
<glyph unicode="(" horiz-adv-x="700" d="M127 463q0 -197 92 -367t252 -323q8 -8 16 -9q27 0 27 31q0 11 -6 21q-45 59 -81 114.5t-73 134t-61.5 177t-24.5 204.5q0 80 15 158q25 135 82 256t129.5 218.5t138 165t143.5 140.5l8 9q16 14 17 30q0 20 -19 21q-10 0 -20 -8q-250 -180 -415 -385t-208 -447 q-12 -70 -12 -141z" />
<glyph unicode=")" horiz-adv-x="700" d="M-127 -215q0 -20 18 -21q10 0 21 9q250 178 413.5 382.5t206.5 448.5q12 74 13 144q0 197 -91.5 366.5t-248.5 321.5q-8 8 -17 8q-27 0 -26 -31q0 -12 6 -20l2 -2q43 -59 79 -115.5t72.5 -134.5t60.5 -174.5t24 -202.5q0 -80 -15 -160q-23 -133 -81 -255t-131 -220 t-137.5 -164.5t-143.5 -140.5l-9 -8q-16 -14 -16 -31z" />
<glyph unicode="*" horiz-adv-x="833" d="M162 881q0 -25 12 -47q27 -47 82 -48q23 0 45 13q47 29 47 80q0 4 -2 10q-2 8 -2 12l102 60v-121q-29 -8 -47 -32t-18 -56q0 -39 26.5 -66t65.5 -27t65.5 27t26.5 66q0 33 -18.5 56t-48.5 32v118l104 -61q-4 -12 -4 -25q0 -49 47 -77q23 -12 45 -13q53 0 80 47 q14 23 14 50q0 51 -45 77q-20 12 -47 13q-37 0 -63 -27l-107 62l107 61q27 -25 63 -25q25 0 47 11q45 27 45 77q0 27 -14 50q-27 47 -80 47q-23 0 -45 -13q-47 -27 -47 -77q0 -12 4 -25l-104 -61v118q31 8 49 33t18 55q0 39 -26.5 66t-65.5 27t-65.5 -27t-26.5 -66 q0 -31 18.5 -55t46.5 -33v-120l-102 59q0 4 2 12q2 6 2 10q0 55 -47 80q-20 12 -45 13q-53 0 -82 -47q-12 -23 -12 -48q0 -53 45 -77q25 -12 49 -13q37 0 63 25l101 -57l-101 -58q-27 25 -63 25q-27 0 -49 -13q-45 -25 -45 -77z" />
<glyph unicode="+" horiz-adv-x="937" d="M74 500q0 -35 32 -35q4 0 25 2q27 2 73 4t124 2h71l-14 -72q-14 -84 -23.5 -124.5t-15.5 -67.5q-4 -20 -6 -29q0 -39 39 -39q20 0 34.5 12.5t18.5 26.5q2 8 2 23q2 23 7 69.5t20 128.5l14 72h72q78 0 123 -2t71 -4q18 -2 23 -2q39 0 49 45q0 47 -33 47q-4 0 -22 -2 q-29 -2 -75 -4t-124 -2h-72l13 72q16 86 25.5 130t19.5 70q2 12 4 19q0 39 -41 39q-20 0 -34.5 -11.5t-16.5 -27.5q-2 -8 -4 -29q-2 -29 -7.5 -72t-19.5 -118l-12 -72h-72q-76 0 -122 2t-75 4q-14 2 -24 2q-14 0 -28.5 -13.5t-16.5 -33.5v-6z" />
<glyph unicode="," horiz-adv-x="528" d="M43 66q0 -29 21.5 -51.5t52.5 -22.5q33 0 57.5 20.5t30.5 50.5v-6q2 -4 2 -8q0 -41 -29 -101.5t-84 -119.5q-16 -16 -16 -29q0 -14 18 -14q10 0 21 8q74 78 107.5 136.5t45.5 117.5q0 2 2 12v13q0 45 -25.5 76.5t-76.5 31.5t-84 -28.5t-41 -73.5v-6q-2 -4 -2 -6z" />
<glyph unicode="-" horiz-adv-x="835" d="M137 498q0 -33 33 -33q8 0 23 2q27 2 68.5 4t113.5 2h14q72 0 113 -2t65 -4q14 -2 23 -2q39 0 49 45q0 47 -33 47q-8 0 -22 -2q-27 -2 -68 -4t-113 -2h-16q-70 0 -112 2t-68 4q-14 2 -23 2q-14 0 -28.5 -13.5t-16.5 -33.5v-6z" />
<glyph unicode="." horiz-adv-x="528" d="M59 59q0 -33 23.5 -54t58.5 -21q41 0 74 26.5t41 67.5q0 2 2 10v10q0 35 -22.5 56.5t-59.5 21.5q-41 0 -73.5 -27.5t-41.5 -70.5v-8q-2 -6 -2 -11z" />
<glyph unicode="/" horiz-adv-x="712" d="M-82 10q0 -25 25 -35q10 -4 20 -4q29 0 41 23q6 10 19 35q51 94 96 172l493 821q70 119 148 231q18 27 20 31q4 8 4 19q0 25 -22 34q-10 4 -21 4q-25 1 -41 -22q-6 -8 -28 -53q-68 -119 -123 -215l-494 -822q-53 -88 -114 -176q-16 -20 -17 -22q-6 -10 -6 -21z" />
<glyph unicode="0" horiz-adv-x="980" d="M47 317q0 -154 88 -253t230 -99q78 0 155.5 34t141 94.5t107.5 140t58 167.5q8 43 9 86q0 152 -89.5 250.5t-228.5 98.5q-80 0 -155.5 -33t-140 -94.5t-107.5 -140.5t-60 -167q-8 -43 -8 -84zM158 336q0 33 6 65q12 66 44 126.5t78 106.5t100 71.5t112 25.5 q102 0 164.5 -74.5t62.5 -187.5q0 -33 -6 -68q-10 -66 -42 -126t-78 -106t-101.5 -71.5t-112.5 -25.5q-100 0 -163.5 74.5t-63.5 189.5z" />
<glyph unicode="1" horiz-adv-x="692" d="M127 760q0 -27 25 -27q6 0 20 2q25 2 47.5 3t73.5 1l-131 -735q0 -10 12 -10q6 0 19 2q23 4 43 4q16 0 36 -4q14 -2 21 -2q12 0 14 10l137 770q0 37 -24 37q-6 0 -23 -2q-45 -6 -94 -6q-70 0 -119 2h-20q-31 0 -35 -35v-6q-2 -2 -2 -4z" />
<glyph unicode="2" horiz-adv-x="835" d="M-33 25q0 -25 29 -25h563q-10 -25 -28.5 -76t-26.5 -102v-4v-4q0 -23 26 -23q35 0 39 31q4 23 23.5 94.5t38.5 120.5q10 25 18 46t8 32q0 27 -24 26q-10 0 -45 -4q-53 -4 -70 -4l-350 -4l221 131q164 96 231.5 165t81.5 161q4 23 5 41q0 94 -73 151.5t-206 57.5 q-61 0 -121.5 -17.5t-113 -47.5t-86 -68.5t-41.5 -81.5v-11q-2 -8 -3 -8q0 -37 19.5 -59.5t50.5 -22.5q33 0 59.5 23.5t32.5 56.5v6q2 4 2 6q0 27 -16 45.5t-41 20.5q25 37 86 64.5t121 27.5q92 0 137 -41t45 -113q0 -23 -4 -49q-14 -76 -78.5 -145.5t-228.5 -183.5 l-258 -179q-23 -14 -23 -34z" />
<glyph unicode="3" horiz-adv-x="839" d="M-33 197q0 -90 77 -161t204 -71q166 0 281.5 103.5t148.5 289.5q8 41 8 76q0 104 -52 180t-142 109q92 29 165.5 113t90.5 180q8 39 8 76q0 117 -71 186.5t-187 69.5q-123 0 -215.5 -61.5t-108.5 -158.5v-10q-2 -10 -2 -12q0 -35 19.5 -57.5t48.5 -22.5q33 0 59.5 22.5 t32.5 55.5v6q2 4 2 6q0 27 -16.5 46.5t-43.5 21.5q23 41 72 69.5t115 28.5q78 0 114.5 -37t36.5 -123q0 -45 -10 -106q-20 -121 -82.5 -191.5t-150.5 -70.5q-45 0 -67.5 2t-43.5 4q-14 2 -22 2q-14 0 -28.5 -12.5t-17.5 -30.5v-6l-2 -4q0 -33 33 -33q8 0 21 2q20 2 43.5 4 t70.5 2q80 0 132.5 -57.5t52.5 -169.5q0 -47 -11 -99q-31 -168 -98 -246.5t-172 -78.5q-90 0 -141 36.5t-72 90.5q29 0 54.5 23.5t31.5 54.5q0 78 -65 77q-33 0 -62 -23.5t-37 -64.5q0 -4 -2 -14v-16z" />
<glyph unicode="4" horiz-adv-x="946" d="M-76 18q0 -18 35 -18h389l-88 -506q0 -10 12 -10q6 0 17 2q20 6 35 6q14 0 30 -4q12 -4 21 -4q8 0 12 10l90 506h105q23 0 69 -4q33 -4 43 -4q33 0 39 35v12q8 49 22.5 98t35.5 103q12 39 14 47q0 31 -27 30q-35 0 -39 -30q-6 -33 -16 -69t-19.5 -65.5t-17.5 -49 t-10 -27.5h-184l143 819q0 6 2 16v11q0 29 -21 28q-18 0 -47 -39l-632 -866q-12 -16 -13 -27zM41 76l424 577l-103 -577h-321z" />
<glyph unicode="5" horiz-adv-x="821" d="M-104 -299v-14q0 -90 73.5 -162t198.5 -72q172 0 285.5 120t146.5 308q10 55 10 109q0 68 -17.5 125t-55 101t-101 68.5t-153.5 24.5q-35 0 -93 -6l-12 -2l66 373l331 -2q96 0 126 17.5t49 76.5q16 51 51 127q20 43 22 53q0 31 -28 31q-14 0 -25.5 -9.5t-13.5 -21.5 q-14 -84 -46 -113.5t-120 -29.5h-340q-53 0 -62 -60l-82 -464q-57 -23 -63 -56v-4l-2 -6q0 -33 33 -33q8 0 28 15q33 20 70 33.5t98 13.5q197 0 197 -226q0 -59 -14 -135q-33 -186 -102.5 -273t-172.5 -87q-92 0 -137 33.5t-66 91.5q29 2 54.5 25.5t29.5 54.5v6l2 8 q0 27 -19 45t-48 18q-35 0 -61.5 -22.5t-34.5 -63.5q0 -6 -2 -16z" />
<glyph unicode="6" horiz-adv-x="950" d="M63 326q0 -102 26 -173t70 -112t96 -58.5t112 -17.5q78 0 149.5 30t127.5 83t94 123.5t53 148.5q10 53 10 99q0 137 -74 210.5t-192 73.5q-86 0 -154 -32.5t-119 -90.5q102 297 251 475.5t298 202.5q45 8 45 39q0 29 -35 29q-123 -14 -245.5 -99.5t-226 -211t-175.5 -270 t-94 -275.5q-16 -94 -17 -174zM195 258q0 63 14 143q18 109 98 188t201 79q72 0 109.5 -53.5t37.5 -147.5q0 -52 -12 -115q-27 -150 -87 -234.5t-179 -84.5q-96 0 -139 59.5t-43 165.5z" />
<glyph unicode="7" horiz-adv-x="774" d="M23 455q0 -23 28 -23q35 0 39 31q6 33 16.5 68.5t19.5 65.5t17.5 49.5t10.5 27.5h454l-403 -723q-63 -115 -89 -173.5t-38 -125.5q-4 -18 -4 -39q0 -68 42 -114t103 -46q43 0 83 27.5t48 68.5v9l2 6q0 29 -19.5 49t-49.5 20q-37 0 -68 -28.5t-31 -73.5q-20 6 -29.5 32.5 t-9.5 57.5v19q2 8 2 12q10 55 33 105t78 151l8 16l479 860q8 14 9 27q0 29 -27 29q-25 0 -45 -31l-4 -4l-422 2q-18 0 -72 4q-35 4 -41 4q-31 0 -34 -35l-15 -69q-8 -47 -21.5 -94.5t-31.5 -98.5q-16 -45 -16 -55v-4q-2 -2 -2 -4z" />
<glyph unicode="8" horiz-adv-x="897" d="M35 248q0 -129 79 -206t199 -77q150 0 269.5 94.5t148.5 259.5q6 39 6 72q0 106 -52.5 177t-152.5 153q127 78 201 152.5t92 173.5q6 29 6 57q0 111 -70.5 177.5t-185.5 66.5q-61 0 -123.5 -24t-115.5 -65.5t-88 -96t-45 -115.5q-6 -35 -6 -68q0 -90 42 -152.5 t123 -134.5q-137 -82 -219 -166t-102 -207q-6 -35 -6 -71zM121 250q0 33 6 69q16 100 89 173t200 155q82 -70 125 -137.5t43 -165.5q0 -35 -6 -76q-20 -106 -90 -170.5t-162 -64.5q-86 0 -145.5 55t-59.5 162zM336 1018q0 31 6 63q14 82 79.5 141.5t158.5 59.5 q72 0 118.5 -44t46.5 -130q0 -29 -6 -61q-14 -86 -79.5 -149.5t-180.5 -133.5q-70 61 -106.5 118.5t-36.5 135.5z" />
<glyph unicode="9" horiz-adv-x="950" d="M0 -526q0 -27 35 -27q123 14 245.5 98t226 211t174 271.5t93.5 275.5q16 98 17 176q0 102 -26 172t-69 110t-96 57.5t-113 17.5q-78 0 -148.5 -30t-126.5 -82t-94 -123t-52 -148q-10 -53 -11 -99q0 -137 74 -211.5t193 -74.5q84 0 150.5 32.5t121.5 89.5 q-102 -297 -250.5 -475t-298.5 -202q-45 -8 -45 -39zM201 338q0 51 10 113q27 150 88 234.5t178 84.5q96 0 140.5 -60.5t44.5 -166.5q-1 -64 -15 -142q-18 -109 -98 -187.5t-201 -78.5q-74 0 -110.5 53.5t-36.5 149.5z" />
<glyph unicode=":" horiz-adv-x="528" d="M59 59q0 -33 23.5 -54t58.5 -21q41 0 74 26.5t41 67.5q0 2 2 10v10q0 35 -22.5 56.5t-59.5 21.5q-41 0 -73.5 -27.5t-41.5 -70.5v-8q-2 -6 -2 -11zM127 455q0 -35 23.5 -58.5t60.5 -23.5q41 0 73.5 28.5t39.5 67.5q0 2 2 10v10q0 35 -21.5 56.5t-58.5 21.5 q-43 0 -76 -27.5t-41 -70.5v-8z" />
<glyph unicode=";" horiz-adv-x="528" d="M43 66q0 -29 21.5 -51.5t52.5 -22.5q33 0 57.5 20.5t30.5 50.5v-6q2 -4 2 -8q0 -41 -29 -101.5t-84 -119.5q-16 -16 -16 -29q0 -14 18 -14q10 0 21 8q74 78 107.5 136.5t45.5 117.5q0 2 2 12v13q0 45 -25.5 76.5t-76.5 31.5t-84 -28.5t-41 -73.5v-6q-2 -4 -2 -6zM111 455 q0 -35 23.5 -58.5t58.5 -23.5q43 0 75.5 27.5t38.5 68.5q0 2 2 10v10q0 35 -21.5 56.5t-58.5 21.5q-43 0 -75.5 -27.5t-40.5 -70.5v-8z" />
<glyph unicode="&#x3c;" horiz-adv-x="989" d="M172 545q0 -14 16 -27l523 -416q14 -10 28 -10q20 0 21 19q-1 14 -15 28l-368 410l514 409q20 16 20 31q0 14 -16 15q-12 0 -29 -11l-667 -415q-27 -16 -27 -33z" />
<glyph unicode="=" horiz-adv-x="937" d="M139 383q0 -47 33 -47q10 0 25 2q29 2 74.5 4t123.5 2h31q88 0 129 -2t68 -4q16 -2 22 -2q37 0 47 47q1 45 -30 45q-8 0 -25 -2q-31 -2 -77 -4t-122 -2h-32q-76 0 -121 2t-74 4q-14 2 -23 2q-14 0 -29.5 -12.5t-19.5 -32.5zM184 629q0 -37 33 -37q4 0 25 2q27 2 72.5 4 t123.5 2h33q78 0 122 -2t73 -4q16 -2 24 -2q16 0 30.5 13t16.5 34v6l2 6q1 33 -32 33q-8 0 -25 -2q-29 -2 -75 -4t-122 -2h-32q-76 0 -121 2t-74 4q-16 2 -25 2q-14 0 -29.5 -12.5t-17.5 -32.5v-6z" />
<glyph unicode="&#x3e;" horiz-adv-x="989" d="M29 104q0 -12 16 -12q14 0 33 10l670 416q27 16 26 33q0 14 -16 27l-522 415q-12 10 -25 11q-23 0 -23 -23q0 -10 11 -23l370 -409l-516 -410q-25 -18 -24 -35z" />
<glyph unicode="?" horiz-adv-x="849" d="M184 1069q0 -41 18.5 -68.5t55.5 -27.5q35 0 61.5 22.5t32.5 55.5v6q2 4 2 6q0 33 -23.5 51.5t-54.5 18.5q20 63 85 106t155 43q88 0 131 -47t43 -111q0 -16 -4 -34q-14 -90 -55 -144.5t-113 -116.5q-76 -66 -118 -123t-60 -155q-4 -18 -13.5 -77.5t-13.5 -94.5 q0 -27 23 -27t29 27q2 16 4 35.5t6 52.5q12 68 57 117t131 116q109 86 170.5 161t81.5 190q4 25 4 49q0 106 -76.5 177t-216.5 71q-59 0 -116.5 -20.5t-104.5 -55.5t-78.5 -80t-40.5 -92q0 -6 -2 -15v-16zM188 63q0 -33 25 -56t59 -23q39 0 73 27.5t40 66.5v8q2 6 2 10 q0 33 -23.5 56.5t-58.5 23.5q-41 0 -73.5 -28.5t-41.5 -69.5v-6q-2 -4 -2 -9z" />
<glyph unicode="@" horiz-adv-x="1482" d="M76 608q0 -135 52 -253.5t145.5 -206t217 -136.5t263.5 -49q119 0 249 43t240 125q10 8 10 23q0 23 -18 22q-8 0 -16 -6q-90 -63 -207 -99t-238 -36t-224.5 41t-179 116.5t-116.5 183t-41 238.5q0 127 48 245t135 210t204 144.5t248 52.5q96 0 184 -32t158 -93.5 t108.5 -151.5t38.5 -201q0 -84 -27.5 -163.5t-69.5 -141t-89 -97.5t-88 -36q-72 0 -72 76q0 23 4 51l95 529h-119q-35 18 -63.5 26t-71.5 8q-66 0 -129.5 -29.5t-116.5 -84t-91 -124t-53 -149.5q-10 -51 -10 -102q0 -127 60.5 -206t169.5 -79q49 0 110.5 34t95.5 83 q10 -45 47 -78t95 -33q66 0 135.5 42t127.5 116t93 168t35 195q0 123 -44 225t-125 176t-188.5 114t-232.5 40q-150 0 -285 -57.5t-237.5 -160t-159.5 -237.5t-57 -285zM571 547q0 47 9 106q25 135 91 227.5t154 92.5q47 0 79 -15.5t52 -39.5l-65 -371q-16 -84 -71.5 -139.5 t-117.5 -55.5q-68 0 -99.5 52.5t-31.5 142.5z" />
<glyph unicode="A" horiz-adv-x="1058" d="M-213 29q0 -35 25 -35q6 0 16 2q25 2 56.5 5t99.5 3q63 0 96 -3l55 -5q10 -2 17 -2q31 0 36 35q0 37 -24 37h-21q-43 -2 -106 -3l217 351h418v-351q-66 0 -111 3h-20q-31 0 -37 -37q0 -35 24 -35q6 0 19 2q23 2 62.5 5t121.5 3h8q82 0 120 -3t63 -5q10 -2 16 -2 q29 0 35 35v6q2 2 2 4q0 27 -27 27h-18q-45 -2 -113 -3v1250q0 39 -31 39q-29 0 -47 -27l-786 -1262q-63 0 -109 3h-20q-31 0 -37 -37zM301 487l371 596v-596h-371z" />
<glyph unicode="B" horiz-adv-x="1032" d="M-35 29q0 -35 27 -35q6 0 18 2q23 2 63 5t120 3q49 0 124 -4q78 -4 129 -4q195 0 313 96t148 264q6 33 6 64q0 111 -64.5 188.5t-166.5 100.5q90 29 168 108.5t96 181.5q6 31 6 62q0 115 -87 184.5t-255 69.5q-31 0 -96 -2q-63 -2 -92 -2q-82 0 -120 3t-62 5q-10 2 -17 2 q-12 0 -22.5 -10.5t-12.5 -24.5v-6q-2 -2 -2 -4q0 -27 25 -27h20q45 2 113 2l-209 -1188q-66 0 -110 3h-21q-29 0 -39 -37zM283 76l100 573h156q106 0 160.5 -56t54.5 -159q0 -37 -6 -78q-27 -156 -93.5 -218t-201.5 -62h-170zM395 723l92 516h93q115 0 164 -36t49 -122 q0 -35 -9 -82q-27 -156 -102.5 -216t-206.5 -60h-80z" />
<glyph unicode="C" horiz-adv-x="1032" d="M68 475q0 -231 106.5 -370.5t276.5 -139.5q104 0 173.5 36t145.5 105q20 -14 21 -61v-14q-2 -6 -3 -13v-4v-6q0 -23 23 -22q16 0 23.5 9t9.5 21l74 418q0 33 -23 33q-16 0 -23.5 -9t-9.5 -24q-14 -82 -51 -153.5t-88 -124t-113.5 -81t-128.5 -28.5q-125 0 -191.5 78 t-66.5 258q0 117 29 274q59 332 168.5 471.5t275.5 139.5q113 0 182.5 -83t69.5 -216q0 -41 -8 -88q0 -33 23 -33q14 0 21 8t11 25l74 415v4q2 6 2 7q0 20 -24 20q-16 0 -22.5 -7t-8.5 -20l-2 -4q-14 -70 -58 -77q-47 61 -105 95t-157 34q-98 0 -195.5 -49.5t-181.5 -141.5 t-145 -220t-88 -280q-16 -94 -16 -182z" />
<glyph unicode="D" horiz-adv-x="1200" d="M-35 29q0 -35 27 -35q6 0 18 2q23 2 63 5t120 3q43 0 129 -4q113 -4 182 -4q98 0 195.5 47t181.5 136t144 211t85 267q14 84 14 166q0 223 -108.5 358.5t-280.5 135.5q-84 0 -213 -4q-76 -2 -100 -2q-82 0 -120 3t-62 5q-10 2 -17 2q-12 0 -22.5 -10.5t-12.5 -24.5v-6 q-2 -2 -2 -4q0 -27 25 -27h20q45 2 113 2l-209 -1188q-66 0 -110 3h-21q-29 0 -39 -37zM283 80l202 1155q29 2 95.5 3t142.5 1q123 0 185.5 -72.5t62.5 -240.5q0 -113 -29 -269q-55 -317 -158.5 -449t-265.5 -132q-84 0 -146.5 2t-88.5 2z" />
<glyph unicode="E" horiz-adv-x="1001" d="M-35 29q0 -35 27 -35q6 0 18 2q23 2 63 5t120 3l489 -4q16 0 63 -4q29 -4 39 -4t20.5 10t12.5 25l10 63q8 39 20.5 97.5t22.5 101.5q10 49 11 49q0 31 -25 31q-31 0 -35 -31q-23 -125 -72 -193.5t-126 -68.5h-340l100 573h178q76 0 76 -98q0 -27 -6 -59q0 -31 20 -31 t29 31v8q4 27 10 69.5t19 116.5q12 74 21 118t15 68l3 9v4l2 6q0 20 -21 20q-25 0 -29 -30q-29 -158 -125 -158h-180l92 516h295q117 0 117 -154q0 -49 -12 -108q0 -31 26 -31q27 0 35 31q2 16 12.5 98t20.5 150l12 61q0 37 -20 37q-4 0 -39 -4q-50 -4 -66 -4l-446 -4 q-82 0 -120 3t-62 5q-10 2 -17 2q-12 0 -22.5 -10.5t-12.5 -24.5v-6q-2 -2 -2 -4q0 -27 25 -27h20q45 2 113 2l-209 -1188q-66 0 -110 3h-21q-29 0 -39 -37z" />
<glyph unicode="F" horiz-adv-x="942" d="M-35 29q0 -35 27 -35q6 0 18 2q23 2 63 5t120 3h8q82 0 119.5 -3l62.5 -5q10 -2 16 -2q31 0 37 35q0 37 -24 37h-21q-43 -2 -110 -3l102 586h209q76 0 76 -98q0 -27 -6 -59q0 -31 20 -31t29 31l2 12q0 25 6 68.5t18 113.5q12 63 21.5 109.5t15.5 70.5q2 4 4 15v4l2 6 q0 20 -20 20q-25 0 -29 -30q-29 -158 -125 -158h-211l92 516h326q117 0 117 -154q0 -49 -12 -108q0 -31 26 -31q27 0 35 31q2 16 12 98t21 150l12 61q0 37 -20 37q-4 0 -39 -4q-49 -4 -66 -4q-53 0 -260 -2q-154 -2 -217 -2q-82 0 -120 3t-62 5q-10 2 -17 2 q-12 0 -22.5 -10.5t-12.5 -24.5v-6q-2 -2 -2 -4q0 -27 25 -27h20q45 2 113 2l-209 -1188q-66 0 -110 3h-21q-29 0 -39 -37z" />
<glyph unicode="G" horiz-adv-x="1138" d="M68 481q0 -233 111.5 -374.5t281.5 -141.5q186 0 321.5 121t175.5 340l3 20q68 0 112 -2h19q29 0 38 35q0 37 -26 37q-6 0 -17 -2q-25 -2 -63.5 -5t-120.5 -3h-8q-82 0 -120 3t-62 5q-10 2 -17 2q-12 0 -22 -10t-12 -27v-6q-2 -2 -3 -4q0 -25 25 -25h21q47 2 112 2 l-4 -28q-14 -76 -36.5 -139.5t-59.5 -116.5t-93.5 -84t-131.5 -31q-129 0 -198 81t-69 265q0 113 27 264q59 334 166.5 472.5t271.5 138.5q117 0 195 -87t78 -223q0 -39 -7 -77v-7l-2 -4q0 -23 25 -22q27 0 31 33l73 415v4q2 4 2 9q0 18 -24 18q-16 0 -22.5 -8t-8.5 -23 q-8 -41 -24.5 -67.5t-34.5 -32.5q-47 68 -115 110t-168 42q-98 0 -194.5 -49.5t-179.5 -141.5t-143 -220t-87 -280q-16 -90 -16 -176z" />
<glyph unicode="H" horiz-adv-x="1261" d="M-35 29q0 -35 27 -35q6 0 18 2q23 2 63 5t120 3h8q82 0 119.5 -3l62.5 -5q10 -2 16 -2q31 0 37 35q0 37 -24 37h-21q-43 -2 -110 -3l102 586h483l-102 -586q-66 0 -111 3h-20q-31 0 -37 -37q0 -35 25 -35q6 0 18 2q23 2 62.5 5t121.5 3h8q82 0 120 -3t63 -5q10 -2 16 -2 q29 0 35 35v6q2 2 2 4q0 27 -27 27h-18q-45 -2 -113 -3l209 1188q68 0 111 -2h20q31 0 37 37q0 35 -24 35q-6 0 -17 -2q-25 -2 -64.5 -5t-119.5 -3h-10q-80 0 -118 3t-63 5q-10 2 -16 2q-31 0 -37 -35q0 -37 25 -37h20q45 2 111 2l-92 -528h-486l92 528q68 0 113 -2h21 q27 0 36 37q0 35 -26 35q-6 0 -17 -2q-25 -2 -63.5 -5t-120.5 -3h-8q-82 0 -120 3t-62 5q-10 2 -17 2q-12 0 -22.5 -10.5t-12.5 -24.5v-6q-2 -2 -2 -4q0 -27 25 -27h20q45 2 113 2l-209 -1188q-66 0 -110 3h-21q-29 0 -39 -37z" />
<glyph unicode="I" horiz-adv-x="630" d="M-35 29q0 -35 27 -35q6 0 18 2q23 2 63 5t120 3h8q82 0 119.5 -3l62.5 -5q10 -2 16 -2q31 0 37 35q0 37 -24 37h-21q-42 -3 -110 -3l206 1188q68 0 113 -2h21q27 0 36 37q0 35 -26 35q-6 0 -17 -2q-25 -2 -63.5 -5t-120.5 -3h-8q-82 0 -120 3t-62 5q-10 2 -17 2 q-12 0 -22.5 -10.5t-12.5 -24.5v-6q-2 -2 -2 -4q0 -27 25 -27h20q45 2 113 2l-209 -1188q-66 0 -110 3h-21q-29 0 -39 -37z" />
<glyph unicode="J" horiz-adv-x="608" d="M-154 -170v-14q0 -53 37 -93t101 -40q111 0 184.5 82.5t97.5 226.5l221 1259q68 0 113 -2h21q27 0 36 37q0 35 -26 35q-6 0 -17 -2q-25 -2 -63.5 -5t-120.5 -3h-8q-82 0 -120 3t-62 5q-10 2 -17 2q-12 0 -22.5 -10.5t-12.5 -24.5v-6q-2 -2 -2 -4q0 -27 25 -27h20 q45 2 113 2l-246 -1388q-10 -59 -38.5 -95t-77.5 -36q-41 0 -48 41q29 8 48.5 30.5t23.5 46.5v9q2 4 2 6q0 29 -18.5 48t-46.5 19q-35 0 -61.5 -25.5t-33.5 -64.5q0 -4 -2 -12z" />
<glyph unicode="K" horiz-adv-x="1079" d="M-35 29q0 -35 27 -35q6 0 18 2q23 2 63 5t120 3h8q82 0 119.5 -3l62.5 -5q10 -2 16 -2q31 0 37 35q0 37 -24 37h-21q-43 -2 -110 -3l102 584l334 -584q-53 0 -99 3h-24q-31 0 -37 -37q0 -35 25 -35q6 0 18 2q23 2 62.5 5t121.5 3h9q80 0 117.5 -3l62.5 -5q10 -2 16 -2 q31 0 37 35q0 37 -25 37h-22q-43 -2 -100 -3l-369 642l520 546q49 0 88 -2h23q31 0 37 37q0 35 -25 35q-6 0 -18 -2q-27 -2 -57.5 -4t-96.5 -4q-63 0 -96 3t-56 5q-10 2 -16 2q-31 0 -37 -35q0 -37 25 -37h20q49 2 117 2l-551 -579l100 579q68 0 113 -2h21q27 0 36 37 q0 35 -26 35q-6 0 -17 -2q-25 -2 -63.5 -5t-120.5 -3h-8q-82 0 -120 3t-62 5q-10 2 -17 2q-12 0 -22.5 -10.5t-12.5 -24.5v-6q-2 -2 -2 -4q0 -27 25 -27h20q45 2 113 2l-209 -1188q-66 0 -110 3h-21q-29 0 -39 -37z" />
<glyph unicode="L" horiz-adv-x="931" d="M-35 29q0 -35 27 -35q6 0 18 2q23 2 63 5t120 3q35 0 260 -2q166 -2 215 -2q16 0 63 -4q33 -4 37 -4q29 0 35 35l10 63q6 37 16.5 86t28.5 125q8 35 8 37q0 31 -24 31q-33 0 -37 -31q-23 -127 -72 -194.5t-125 -67.5h-325l204 1175q68 0 113 -2h21q27 0 36 37 q0 35 -26 35q-6 0 -17 -2q-25 -2 -63.5 -5t-120.5 -3h-8q-82 0 -120 3t-62 5q-10 2 -17 2q-12 0 -22.5 -10.5t-12.5 -24.5v-6q-2 -2 -2 -4q0 -27 25 -27h20q45 2 113 2l-209 -1188q-66 0 -110 3h-21q-29 0 -39 -37z" />
<glyph unicode="M" horiz-adv-x="1462" d="M-25 29q0 -35 21 -35q6 0 18 2q25 2 54.5 5t89.5 3q57 0 87.5 -3t51.5 -5q12 -2 16 -2q29 0 35 35q0 37 -20 37h-19q-47 -2 -106 -3l172 984l157 -1063q6 -20 27 -21q25 0 37 21l547 1077l-174 -998q-61 0 -107 3h-18q-29 0 -35 -37q0 -35 20 -35q6 0 17 2q25 2 61.5 5 t110.5 3h22q74 0 108 -2t58 -6q14 -2 19 -2q31 0 32 35q0 37 -20 37h-18q-47 -2 -107 -3l209 1188q59 0 106 -2h19q25 0 35 37q0 35 -23 35q-4 0 -16 -2q-25 -2 -63 -5t-109 -3h-56q-16 0 -24 -12.5t-16 -34.5l-7 -13l-526 -1040l-154 1040q0 37 -5 48.5t-25 11.5h-70 q-55 0 -86 3t-53 5q-10 2 -17 2q-29 0 -32 -35v-6q-2 -4 -2 -6q0 -25 22 -25h21q45 2 104 2l-209 -1188q-59 0 -104 3h-21q-29 0 -35 -37z" />
<glyph unicode="N" horiz-adv-x="1208" d="M-49 29q0 -35 24 -35q6 0 17 2q25 2 56.5 5t98.5 3q63 0 96 -3t56 -5q10 -2 16 -2q31 0 37 35q0 37 -24 37h-21q-43 -2 -110 -3l188 1061l410 -1110q2 -2 2 -6q16 -35 34 -35q27 0 35 58l215 1220q68 0 113 -2h20q27 0 37 37q0 35 -26 35q-6 0 -17 -2q-23 -2 -54.5 -4 t-98.5 -4q-63 0 -96 3t-56 5q-10 2 -16 2q-31 0 -37 -35q0 -37 24 -37h21q45 2 111 2l-162 -929l-342 917q-29 76 -56 76q-10 0 -34 -2q-25 -2 -35 -2q-63 0 -96 3t-56 5q-10 2 -16 2q-31 0 -37 -35q0 -37 25 -37h20q45 2 111 2l-209 -1188q-66 0 -111 3h-20q-31 0 -37 -37z " />
<glyph unicode="O" horiz-adv-x="1169" d="M68 475q0 -231 108.5 -370.5t282.5 -139.5q102 0 201.5 49t185.5 142.5t147 221t88 279.5q16 92 17 177q0 233 -109.5 373.5t-286.5 140.5q-100 0 -199.5 -49.5t-184.5 -141.5t-146 -220t-88 -280q-16 -94 -16 -182zM221 365q0 119 31 292q59 338 162.5 474.5 t275.5 136.5q127 0 189.5 -74t62.5 -246q0 -117 -31 -291q-59 -336 -162.5 -473t-273.5 -137q-129 0 -191.5 74t-62.5 244z" />
<glyph unicode="P" horiz-adv-x="933" d="M-35 29q0 -35 27 -35q6 0 18 2q23 2 63 5t120 3q76 0 111.5 -2t66.5 -6q12 -2 20 -2q29 0 35 35q0 37 -20 37h-21q-47 -2 -104 -3l84 484h122q197 0 321 104.5t155 280.5q8 47 8 88q0 139 -89 217t-257 78q-55 0 -136 -2q-34 -2 -69 -2q-63 0 -103.5 3t-72.5 5 q-14 2 -21 2q-12 0 -22.5 -10.5t-12.5 -24.5v-6q-2 -2 -2 -4q0 -27 25 -27h20q45 2 113 2l-209 -1188q-66 0 -110 3h-21q-29 0 -39 -37zM377 621l110 618h123q111 0 159 -41t48 -137q0 -53 -14 -129q-31 -174 -97.5 -242.5t-203.5 -68.5h-125z" />
<glyph unicode="Q" horiz-adv-x="1169" d="M68 477q0 -205 87 -340t230 -164l-10 -73q-10 -57 -10 -103q0 -129 73.5 -191.5t212.5 -62.5q76 0 155 36t146 97q14 14 24.5 28.5t12.5 27.5q0 31 -24 30q-23 0 -58 -41q-43 -47 -105.5 -79.5t-129.5 -32.5q-74 0 -123 36t-49 132q0 35 8 78l20 118q92 14 181.5 70.5 t164 147t129 209t78.5 257.5q16 92 17 177q0 233 -109.5 373.5t-286.5 140.5q-100 0 -199.5 -49.5t-184.5 -141.5t-146 -220t-88 -280q-16 -94 -16 -180zM221 365q0 119 31 292q59 338 162.5 474.5t275.5 136.5q127 0 189.5 -74t62.5 -246q0 -117 -31 -291 q-59 -336 -162.5 -473t-273.5 -137q-129 0 -191.5 74t-62.5 244z" />
<glyph unicode="R" horiz-adv-x="1048" d="M-35 29q0 -35 27 -35q6 0 18 2q23 2 63 5t120 3q63 0 102 -2t67 -6q23 -2 29 -2q29 0 35 35q0 37 -20 37h-21q-47 -2 -104 -3l102 586h145q98 0 141.5 -46t43.5 -134q0 -49 -13 -115q-20 -117 -20 -192q0 -94 34 -138t109 -44q53 0 97.5 36.5t54.5 94.5q0 37 -27 36 q-31 0 -39 -38q-12 -68 -63 -68q-43 0 -43 51v12q2 8 2 13q2 8 14 61q23 100 35 176q6 31 6 62q0 100 -51 184t-145 107q90 16 176 99t106 193q6 31 6 62q0 117 -86 184.5t-256 67.5h-102q-72 -2 -86 -2q-70 0 -105.5 2t-70.5 6q-14 2 -23 2q-12 0 -22.5 -10.5t-12.5 -24.5 v-6q-2 -2 -2 -4q0 -27 25 -27h20q45 2 113 2l-209 -1188q-66 0 -110 3h-21q-29 0 -39 -37zM395 723l92 516h109q109 0 154 -34t45 -113q-1 -40 -11 -93q-25 -131 -93 -203.5t-185 -72.5h-111z" />
<glyph unicode="S" horiz-adv-x="905" d="M-16 281q0 -53 26.5 -109.5t76.5 -104t122 -75t158 -27.5q82 0 158.5 26.5t138 78t96.5 125t35 163.5q0 76 -27 138.5t-71 111.5t-95 86t-115 70q-96 49 -152 112.5t-56 155.5q0 100 72.5 173t195.5 73q82 0 136 -34t71 -87q-47 -6 -77 -36.5t-30 -67.5q0 -25 20.5 -49.5 t57.5 -24.5q47 0 84 37t37 96q0 100 -81 168t-216 68q-63 0 -132 -24t-128.5 -70t-95 -116.5t-35.5 -160.5q0 -125 70.5 -215t183.5 -152q113 -61 181.5 -136t68.5 -171q0 -115 -87.5 -185.5t-203.5 -70.5q-104 0 -181 49t-112 148q45 0 80 30.5t35 71.5q0 33 -24 56.5 t-58 23.5q-53 0 -90 -42t-37 -103z" />
<glyph unicode="T" horiz-adv-x="960" d="M74 969q0 -23 24 -23q29 0 37 31q23 125 73 193.5t126 68.5h174l-207 -1176q-59 0 -104 3h-21q-29 0 -35 -37q0 -35 21 -35q6 0 16 2q25 2 63 5t109 3h23q72 0 108.5 -3t59.5 -5q10 -2 16 -2q31 0 33 35q0 37 -21 37h-18q-45 -2 -105 -3l205 1176h174q117 0 117 -156 q0 -47 -10 -106q0 -31 26 -31q29 0 33 31q2 8 10 70q6 59 12.5 102t12.5 76l12 61q0 37 -20 37q-8 0 -41 -4q-47 -4 -64 -4l-284 -4h-72l-285 4q-16 0 -61 4q-31 4 -37 4q-29 0 -35 -37l-10 -61q-4 -29 -14.5 -73t-22.5 -97q-14 -68 -16 -78v-4q-2 -2 -2 -4z" />
<glyph unicode="U" horiz-adv-x="1153" d="M139 260q0 -141 88 -218t230 -77q162 0 286.5 98.5t157.5 282.5l160 905q68 0 110 -2h21q31 0 37 37q0 35 -25 35q-6 0 -18 -2q-27 -2 -57.5 -4t-96.5 -4q-63 0 -96 3l-55 5q-10 2 -17 2q-31 0 -37 -35q0 -37 25 -37h20q45 2 111 2l-158 -905q-23 -133 -109.5 -216 t-209.5 -83q-98 0 -162.5 51.5t-64.5 149.5q0 29 6 59l166 944q68 0 110 -2h21q29 0 39 37q0 35 -27 35q-6 0 -16 -2q-25 -2 -65 -5t-120 -3h-8q-82 0 -120 3t-62 5q-10 2 -17 2q-31 0 -36 -35q0 -37 24 -37h21q45 2 110 2l-158 -905q-8 -43 -8 -86z" />
<glyph unicode="V" horiz-adv-x="1030" d="M63 1276q0 -27 25 -27h21q45 2 112 2v-1249q0 -39 31 -39q33 0 47 27l786 1261q63 0 109 -2h20q27 0 37 37q0 35 -26 35q-6 0 -17 -2q-23 -2 -54.5 -4t-98.5 -4q-63 0 -96 3t-56 5q-10 2 -16 2q-31 0 -37 -35q0 -37 24 -37h21q43 2 106 2l-636 -1020v1020q68 0 112 -2h21 q27 0 37 37q0 35 -27 35q-6 0 -16 -2q-25 -2 -64 -5t-121 -3h-8q-82 0 -120 3t-62 5q-10 2 -17 2q-12 0 -22 -10.5t-12 -24.5v-6q-2 -2 -3 -4z" />
<glyph unicode="W" horiz-adv-x="1447" d="M63 1276q0 -27 25 -27h21q45 2 112 2v-1249q0 -39 31 -39q33 0 47 27l338 540v-528q0 -39 31 -39q33 0 47 27l786 1261q59 0 94 -2h19q27 0 37 37q0 35 -27 35q-6 0 -16 -2q-23 -4 -50.5 -6t-87.5 -2q-57 0 -86.5 2t-48.5 6q-10 2 -16 2q-12 0 -22.5 -10.5t-12.5 -24.5 v-6q-2 -2 -2 -4q0 -27 25 -27h20q35 2 92 2l-637 -1020v533l303 487h58q0 -2 -2 -2h4q29 0 39 37q0 35 -27 35q-6 0 -16 -2q-25 -2 -56.5 -4t-97.5 -4h-688q-82 0 -120 3t-62 5q-10 2 -17 2q-12 0 -22 -10.5t-12 -24.5v-6q-2 -2 -3 -4zM365 231v1020h272v-585zM782 897v354 h219z" />
<glyph unicode="X" horiz-adv-x="968" d="M-156 29q0 -35 27 -35q6 0 16 2q23 2 54.5 5t99.5 3q61 0 94 -3t58 -5q12 -2 18 -2q29 0 35 35v6q2 2 2 4q0 27 -27 27h-20q-53 -2 -121 -3l362 486l148 -486q-61 0 -101 3h-20q-31 0 -37 -37q0 -35 25 -35q6 0 18 2q23 2 63 5t121 3h9q82 0 119.5 -3l62.5 -5 q10 -2 16 -2q29 0 35 35v6q2 2 2 4q0 27 -26 27h-19q-41 -2 -104 -3l-197 642l408 546q51 0 92 -2h22q31 0 37 37q0 35 -24 35q-6 0 -19 -2q-27 -2 -57.5 -4t-95.5 -4q-63 0 -96 3t-56 5q-10 2 -16 2q-31 0 -37 -35q0 -37 24 -37h23q53 2 119 2l-349 -469l-145 469 q57 0 100 -2h21q29 0 39 37q0 35 -27 35q-6 0 -16 -2q-25 -2 -64 -5t-121 -3h-8q-82 0 -119.5 3l-62.5 5q-10 2 -16 2q-12 0 -22.5 -10.5t-12.5 -24.5v-6q-2 -2 -2 -4q0 -27 24 -27h19q41 2 104 2l193 -624l-420 -564q-49 0 -92 3h-23q-27 0 -37 -37z" />
<glyph unicode="Y" horiz-adv-x="899" d="M18 1286q0 -37 25 -37h20q43 2 107 2l201 -673l-88 -515q-68 0 -113 3h-20q-27 0 -37 -37q0 -35 26 -35q6 0 17 2q25 2 63.5 5t120.5 3h8q82 0 120 -3t62 -5q10 -2 17 -2q33 0 35 35v6q2 2 2 4q0 27 -25 27h-20q-45 -2 -113 -3l98 564l408 624q51 0 94 -2h25q27 0 36 37 q0 35 -26 35q-6 0 -17 -2q-23 -2 -54.5 -4t-98.5 -4q-63 0 -96 3t-56 5q-10 2 -16 2q-31 0 -37 -35q0 -37 25 -37h22q53 2 121 2l-365 -563l-165 563q61 0 106 -2h21q31 0 36 37q0 35 -24 35q-6 0 -17 -2q-25 -2 -64.5 -5t-119.5 -3h-10q-80 0 -118 3t-62 5q-10 2 -17 2 q-31 0 -37 -35z" />
<glyph unicode="Z" horiz-adv-x="821" d="M-72 12q0 -8 4 -12q8 -10 37 -10q16 0 56 4q68 6 104 6h403q16 0 64 -6q29 -2 35 -2q29 0 35 35l10 55q8 49 20.5 103.5t26.5 109.5q6 29 8 35q0 31 -24 30q-14 0 -24.5 -9t-10.5 -21q-20 -113 -78.5 -187.5t-136.5 -74.5h-340l735 1171v2q25 39 25 53q0 8 -9 15 q-10 8 -43 8h-37q-51 -2 -79 -2h-418q-16 0 -64 4q-31 4 -37 4q-29 0 -34 -37l-11 -53q-8 -41 -21 -103.5t-24 -109.5q-8 -31 -8 -35v-4v-4q0 -23 25 -23q31 0 35 31q20 113 78.5 187.5t134.5 74.5h325l-735 -1171q-27 -43 -27 -64z" />
<glyph unicode="[" horiz-adv-x="716" d="M88 -139q0 -31 29 -31h121q96 0 141 -3t72 -5q10 -2 16 -2q29 0 37 30q0 35 -27 35h-262l254 1438h264q29 0 35 35q0 31 -25 31q-6 0 -18 -3q-27 -2 -74 -5t-141 -3h-121q-33 0 -41 -30q-2 -6 -4 -39q-2 -55 -8 -74l-221 -1262q-2 -12 -13 -47q-14 -55 -14 -65z" />
<glyph unicode="\" horiz-adv-x="712" d="M25 1296q0 -2 2 -6v-6q2 -2 14 -27q55 -109 109 -235l348 -821q29 -68 63 -166q12 -35 14 -41q10 -23 37 -23q10 0 21 4q31 10 31 41v9q-2 4 -2 6q-2 6 -19 37q-45 88 -76 161l-348 822q-45 104 -90 227q-12 33 -16 41q-10 23 -37 22q-10 0 -21 -4q-31 -12 -30 -41z" />
<glyph unicode="]" horiz-adv-x="716" d="M-78 -150q0 -31 25 -30q6 0 18 2q29 2 76 5t139 3h123q33 0 41 31q0 4 2 28q2 27 4 48.5t4 35.5l224 1262q2 18 16 68q10 37 10 45q0 31 -29 30h-120q-94 0 -140.5 3t-72.5 5q-10 2 -17 3q-31 0 -37 -31q0 -35 25 -35h264l-256 -1438h-262q-31 0 -37 -35z" />
<glyph unicode="^" horiz-adv-x="993" d="M106 739q0 -16 15 -16q14 0 29 16l430 408l286 -408q12 -18 29 -18q20 0 20 24q0 13 -6 25l-266 561q-8 20 -25 21q-16 0 -32 -21l-465 -561q-14 -16 -15 -31z" />
<glyph unicode="_" horiz-adv-x="733" d="M-2 0v-90h737v90h-737z" />
<glyph unicode="`" horiz-adv-x="743" d="M309 1300q1 -22 15 -36q8 -8 41 -25q47 -25 91 -54.5t95 -80.5q4 -4 12 -4t16.5 7t8.5 15t-6 13q-49 49 -79 92t-54 90q-18 35 -27 41q-12 14 -37 14q-33 0 -53 -22q-23 -20 -23 -50z" />
<glyph unicode="a" horiz-adv-x="989" d="M25 279q0 -143 63.5 -228.5t173.5 -85.5q66 0 132.5 41t111.5 113q0 -66 39 -100.5t96 -34.5q55 0 98 29.5t72 77.5t47.5 103.5t28.5 110.5v6q2 2 2 4q0 29 -27 29q-35 0 -39 -39q-23 -117 -59.5 -183.5t-85.5 -66.5q-16 0 -30.5 11.5t-14.5 44.5q0 16 4 36l117 654 q0 8 -13 8q-6 0 -18 -2q-23 -4 -35 -4q-14 0 -31 4q-12 2 -18 2q-14 0 -14 -8l-21 -109q-23 70 -70 107t-108 37q-55 0 -116.5 -32t-118 -89.5t-97.5 -138t-57 -175.5q-12 -66 -12 -122zM162 213q0 76 18 188q35 186 101.5 276.5t134.5 90.5q72 0 111.5 -58.5t39.5 -168.5 q0 -64 -14 -140q-31 -172 -105.5 -269t-166.5 -97q-59 0 -89 42t-30 136z" />
<glyph unicode="b" d="M68 295q0 -63 12 -120.5t41 -104.5t79 -76t124 -29q143 0 252.5 121t142.5 315q12 66 12 123q0 143 -63.5 227.5t-173.5 84.5q-66 0 -128.5 -38t-111.5 -110l106 598q0 35 -26 35q-6 0 -35 -4q-43 -4 -61 -4q-70 0 -111 4h-21q-29 0 -38 -37q0 -35 26 -35q6 0 21 2 q40 2 110 2l-145 -823q-12 -66 -12 -131zM188 244q0 70 15 157q31 172 106.5 269.5t167.5 97.5q59 0 89 -42t30 -136q-1 -76 -21 -189q-35 -203 -91 -288.5t-152 -85.5q-66 0 -105 51t-39 166z" />
<glyph unicode="c" horiz-adv-x="735" d="M27 287q0 -150 68.5 -236t191.5 -86q86 0 157.5 43t143.5 160q6 8 11 22.5t5 22.5q0 10 -6 19.5t-20 9.5q-20 0 -39 -35q-90 -170 -215 -170q-76 0 -116 50t-40 161q0 66 14 153q37 199 102 284t167 85q51 0 87.5 -22.5t45.5 -65.5q-31 0 -58.5 -25.5t-31.5 -56.5v-8 q-2 -6 -2 -8q0 -29 20 -48.5t49 -19.5q35 0 62.5 26.5t35.5 69.5q0 8 3 17v16q0 84 -66 137.5t-156 53.5q-145 0 -256.5 -120t-146.5 -315q-10 -59 -10 -114z" />
<glyph unicode="d" horiz-adv-x="989" d="M25 279q0 -143 63.5 -228.5t173.5 -85.5q66 0 132.5 41t111.5 113q0 -66 39 -100.5t96 -34.5q55 0 98 29.5t72 77.5t47.5 103.5t28.5 110.5v6q2 2 2 4q0 29 -27 29q-35 0 -39 -39q-23 -117 -59.5 -183.5t-85.5 -66.5q-18 0 -31.5 11.5t-13.5 44.5q0 16 4 36l201 1139 q0 35 -25 35q-6 0 -37 -4q-43 -4 -61 -4q-70 0 -111 4h-20q-31 0 -37 -37q0 -35 24 -35q6 0 21 2q41 2 110 2l-98 -557q-23 68 -73 106t-115 38q-133 0 -239.5 -121t-139.5 -314q-12 -66 -12 -122zM162 213q0 76 18 188q37 197 91.5 282t136.5 85q74 0 115.5 -61.5 t41.5 -174.5q0 -59 -12 -131q-31 -172 -105.5 -269t-166.5 -97q-59 0 -89 42t-30 136z" />
<glyph unicode="e" horiz-adv-x="751" d="M27 295q0 -150 72.5 -240t189.5 -90q96 0 178 46t154 165q4 6 7 17.5t3 17.5q0 31 -27 31q-23 0 -41 -35q-41 -86 -103.5 -128t-135.5 -42q-156 0 -156 221q0 43 6 92q74 6 149.5 24.5t144.5 53.5t118 90t63 133q0 4 2 15v14q0 70 -53 113t-139 43q-63 0 -131 -31 t-127.5 -87t-103.5 -137t-60 -180q-10 -55 -10 -106zM184 414q33 170 98.5 263t166.5 93q37 0 58 -25.5t21 -66.5v-14q-2 -12 -2 -17q-20 -106 -119.5 -164.5t-222.5 -68.5z" />
<glyph unicode="f" horiz-adv-x="538" d="M-285 -420q0 -51 37 -89t98 -38q45 0 88.5 17.5t86.5 68.5t79.5 147.5t63.5 245.5l141 807q61 0 129 -2q23 -2 29 -2q29 0 39 35q0 35 -27 35q-70 0 -157 -2l67 385q14 84 60.5 123t107.5 39q33 0 58.5 -9.5t31.5 -21.5q-27 -8 -47 -29.5t-25 -48.5q0 -80 66 -80 q35 0 60.5 25.5t31.5 64.5v11q2 6 2 10q0 51 -45 89t-127 38q-154 0 -229.5 -110.5t-116.5 -348.5l-24 -137q-82 2 -142 2q-31 0 -35 -35v-6q-2 -2 -2 -4q0 -25 25 -25q6 0 27 2q59 2 114 2l-178 -1022q-23 -129 -57.5 -173t-89.5 -44q-18 0 -36 11.5t-24 25.5q55 16 66 70 v8q2 2 2 6q0 25 -17.5 42.5t-44.5 17.5q-33 0 -55 -23t-29 -57v-11q-2 -8 -2 -10z" />
<glyph unicode="g" horiz-adv-x="776" d="M-123 -324q0 -94 80 -158.5t219 -64.5q145 0 263 93.5t141 246.5q4 29 4 55q0 100 -58.5 159t-175.5 59h-164q-78 0 -104.5 13t-26.5 46q0 41 40 66.5t95 25.5q8 0 31 -2q39 -6 58 -6q111 0 200.5 92t110.5 221q8 43 8 115q0 45 2 70q8 55 32.5 84.5t49.5 29.5l6 -2h4 q-20 -20 -22 -45v-6v-4q0 -23 15 -38t40 -15q29 0 50.5 21t25.5 52q0 43 -23.5 70t-68.5 27q-51 0 -97.5 -47.5t-52.5 -112.5q-25 53 -79 84t-113 31q-53 0 -105.5 -24t-96.5 -68t-74 -101t-38 -121q-4 -27 -4 -53q0 -66 24.5 -121t65.5 -88q-74 -16 -125 -68.5t-51 -136.5 q0 -47 24.5 -87t84.5 -52q-92 -49 -143.5 -113.5t-51.5 -126.5zM-23 -303q0 55 39 110.5t123 100.5h180q94 0 135.5 -32t41.5 -97v-19q-2 -12 -2 -18q-14 -84 -99.5 -156.5t-210.5 -72.5q-98 0 -152.5 51t-54.5 133zM178 418q0 43 8 104q18 133 58.5 195.5t113.5 62.5 q109 0 109 -151q0 -46 -8 -107q-16 -129 -57.5 -193.5t-114.5 -64.5q-109 0 -109 154z" />
<glyph unicode="h" horiz-adv-x="999" d="M6 4q0 -10 12 -10q6 0 21 2q20 4 33 4q14 0 30 -4q12 -2 19 -2q12 0 14 10l64 358q12 72 46 142.5t79 126t96 87.5t96 32q88 0 88 -91q0 -27 -8 -65l-78 -444q-4 -18 -4 -37q0 -61 39 -95t96 -34q55 0 98.5 29.5t73 78.5t48 103.5t28.5 109.5q0 39 -27 39q-31 0 -39 -39 q-20 -117 -58 -183.5t-87 -66.5q-18 0 -31.5 11.5t-13.5 46.5q0 14 4 34l68 385q10 53 10 99q0 96 -44 150.5t-136 54.5q-43 0 -88 -19.5t-86 -53.5t-74 -76t-53 -83l120 682q0 35 -26 35q-6 0 -35 -4q-43 -4 -61 -4q-72 0 -113 4h-18q-29 0 -39 -37q0 -35 26 -35q6 0 21 2 q41 2 110 2z" />
<glyph unicode="i" horiz-adv-x="546" d="M12 760q0 -27 25 -27q6 0 20 2q23 2 44.5 3t68.5 1l-102 -589q-4 -18 -5 -37q0 -61 39 -95t95 -34q55 0 98 29.5t72.5 78.5t48 103.5t28.5 109.5q0 39 -26 39q-31 0 -39 -39q-20 -117 -58 -183.5t-88 -66.5q-18 0 -31.5 11.5t-13.5 46.5q1 14 5 34l110 627q0 37 -22 37 q-6 0 -37 -4q-45 -4 -64 -4q-66 0 -110 2h-21q-31 0 -35 -35v-6q-2 -2 -2 -4zM223 1137q0 -78 66 -78q35 0 61.5 22.5t32.5 55.5v8q2 4 2 6q0 29 -18.5 46t-49.5 17q-35 0 -61.5 -22t-32.5 -55z" />
<glyph unicode="j" horiz-adv-x="413" d="M-258 -422q0 -51 37 -88t106 -37q90 0 151.5 77t84.5 206l182 1038q0 37 -22 37q-6 0 -37 -4q-45 -4 -64 -4q-66 0 -110 2h-21q-31 0 -35 -35v-6q-2 -2 -2 -4q0 -27 25 -27q6 0 20 2q23 2 44.5 3t68.5 1l-197 -1120q-10 -51 -35.5 -85t-56.5 -34q-53 0 -59 37 q53 16 67 70v6l2 6q0 27 -17 44.5t-44 17.5q-33 0 -56.5 -23t-29.5 -57v-11q-2 -6 -2 -12zM231 1174q0 -29 18.5 -46.5t49.5 -17.5q35 0 61.5 22.5t32.5 55.5q0 78 -67 78q-33 0 -60 -22.5t-33 -55.5v-8q-2 -2 -2 -6z" />
<glyph unicode="k" horiz-adv-x="870" d="M6 4q0 -10 12 -10q6 0 21 2q20 4 33 4q14 0 30 -4q12 -2 19 -2q14 0 14 10l80 455h29q74 0 112.5 -31t38.5 -100q0 -25 -6 -58l-20 -120q0 -6 -2 -19v-16q0 -63 37.5 -97t93.5 -34q55 0 98 29.5t72.5 78.5t48 103.5t28.5 109.5v6q2 2 3 4q0 29 -27 29q-35 0 -39 -39 q-23 -117 -60.5 -183.5t-84.5 -66.5q-18 0 -31.5 11.5t-13.5 44.5q0 16 4 36l10 56q8 43 8 82q0 102 -50 159.5t-124 65.5q31 14 55.5 43t59.5 80q43 63 75.5 95t75.5 32q57 0 58 -45q-25 -2 -48.5 -23.5t-27.5 -50.5v-6l-2 -8q0 -27 19.5 -45.5t45.5 -18.5q35 0 67 37 t32 90q0 57 -38 91t-102 34q-66 0 -111.5 -42t-103.5 -122q-47 -66 -79.5 -98.5t-75.5 -32.5h-13l135 766q0 35 -26 35q-6 0 -35 -4q-43 -4 -61 -4q-72 0 -113 4h-18q-29 0 -39 -37q0 -35 26 -35q6 0 21 2q41 2 110 2z" />
<glyph unicode="l" horiz-adv-x="514" d="M31 113q0 -61 39 -95t94 -34t98 29.5t73 78.5t48 103.5t29 109.5q0 39 -27 39q-31 0 -39 -39q-20 -117 -58 -183.5t-87 -66.5q-18 0 -31.5 11.5t-13.5 46.5q0 14 4 34l202 1139q0 35 -24 35q-6 0 -37 -4q-43 -4 -61 -4q-72 0 -113 4h-18q-31 0 -37 -37q0 -35 24 -35 q6 0 21 2q41 2 110 2l-192 -1099q-4 -18 -4 -37z" />
<glyph unicode="m" horiz-adv-x="1462" d="M12 760q0 -27 25 -27q6 0 20 2q23 2 44.5 3t68.5 1l-131 -735q0 -10 12 -10q6 0 19 2q20 4 34 4q12 0 31 -4q10 -2 19 -2q14 0 14 10l63 358q14 76 46 147t75 127t90 88t88 32q80 0 80 -86q0 -27 -8 -70l-104 -596q0 -10 10 -10q6 0 20 2q20 4 33 4q14 0 31 -4 q12 -2 18 -2q14 0 15 10l63 358q14 76 46 147t76 127t91 88t88 32q80 0 80 -86q0 -27 -8 -70l-78 -450q-4 -18 -4 -37q0 -61 39 -95t94 -34t98 29.5t73 78.5t48.5 103.5t28.5 109.5v6q2 2 2 4q0 29 -27 29q-35 0 -39 -39q-23 -117 -60.5 -183.5t-84.5 -66.5 q-18 0 -31.5 11.5t-13.5 44.5q0 16 4 36l68 385q10 59 10 107q0 92 -41 144.5t-127 52.5q-80 0 -162 -72t-129 -166q0 4 2 23v18q0 94 -42 145.5t-128 51.5q-41 0 -83 -19.5t-81 -53.5t-72 -76t-53 -83l31 170q0 37 -22 37q-6 0 -37 -4q-45 -4 -64 -4q-66 0 -110 2h-21 q-31 0 -35 -35v-6q-2 -2 -2 -4z" />
<glyph unicode="n" horiz-adv-x="1030" d="M12 760q0 -27 25 -27q6 0 20 2q23 2 44.5 3t68.5 1l-131 -735q0 -10 12 -10q6 0 19 2q20 4 34 4q12 0 31 -4q10 -2 19 -2q14 0 14 10l63 358q14 76 47 147t79 125t96.5 85t95.5 31q88 0 88 -91q0 -27 -8 -65l-78 -444q-4 -18 -4 -37q0 -61 39 -95t96 -34q55 0 98 29.5 t72 77.5t47.5 103.5t28.5 110.5v6q2 2 2 4q0 29 -27 29q-35 0 -39 -39q-23 -117 -59.5 -183.5t-85.5 -66.5q-18 0 -31.5 11.5t-13.5 44.5q0 16 4 36l67 385q10 53 11 99q0 96 -44 150.5t-137 54.5q-43 0 -87 -19.5t-86 -53.5t-74.5 -76t-55.5 -83l31 170q0 37 -22 37 q-6 0 -37 -4q-45 -4 -64 -4q-66 0 -110 2h-21q-31 0 -35 -35v-6q-2 -2 -2 -4z" />
<glyph unicode="o" d="M27 297q0 -150 76.5 -241t197.5 -91q70 0 137.5 31t126 90t98.5 140t56 175q10 53 10 105q0 150 -77 240t-197 90q-70 0 -137.5 -31t-125 -89.5t-98.5 -138t-57 -176.5q-10 -53 -10 -104zM162 223q0 72 18 178q37 201 98.5 285t165.5 84q76 0 112 -44t36 -144 q-1 -72 -19 -181q-35 -201 -95 -284.5t-165 -83.5q-78 0 -114.5 45t-36.5 145z" />
<glyph unicode="p" horiz-adv-x="886" d="M-213 -508q0 -35 23 -35q4 0 18 2q25 4 61.5 6.5t116.5 2.5h4q80 0 115 -2.5t59 -6.5q12 -2 17 -2q33 0 39 35q0 37 -25 37h-20q-43 -2 -111 -2l104 588q23 -70 72 -110t115 -40q133 0 239.5 121.5t139.5 314.5q12 66 12 123q0 143 -63.5 227.5t-174.5 84.5 q-63 0 -126.5 -39t-112.5 -109l14 86q0 37 -22 37q-6 0 -37 -4q-45 -4 -64 -4q-66 0 -110 2h-21q-31 0 -35 -35v-6q-2 -2 -2 -4q0 -27 25 -27q6 0 20 2q23 2 44.5 3t68.5 1l-215 -1212q-66 0 -111 2h-20q-12 0 -23.5 -10.5t-13.5 -26.5zM225 274q0 57 13 127 q31 172 106.5 269.5t167.5 97.5q59 0 89 -41t30 -135q-1 -76 -21 -191q-35 -197 -89 -281.5t-136 -84.5q-74 0 -117 62.5t-43 176.5z" />
<glyph unicode="q" horiz-adv-x="856" d="M25 279q0 -143 63.5 -228.5t173.5 -85.5q63 0 128 39t112 107l-101 -578q-66 0 -110 2h-21q-33 0 -39 -35q0 -37 25 -37q4 0 18 2q25 4 62 6.5t115 2.5h6q80 0 114.5 -2t59.5 -7q12 -2 16 -2q12 0 23.5 10.5t13.5 26.5q0 35 -22 35h-21q-45 -2 -113 -2l226 1268 q0 8 -13 8q-6 0 -18 -2q-23 -4 -35 -4q-14 0 -31 4q-12 2 -18 2q-14 0 -14 -8l-21 -109q-23 68 -73 106t-115 38q-133 0 -239.5 -121t-139.5 -314q-12 -66 -12 -122zM162 213q0 76 18 188q37 197 91.5 282t136.5 85q74 0 115.5 -61.5t41.5 -174.5q0 -59 -12 -131 q-31 -172 -105.5 -269t-166.5 -97q-59 0 -89 42t-30 136z" />
<glyph unicode="r" horiz-adv-x="614" d="M12 760q0 -27 25 -27q6 0 20 2q23 2 44.5 3t68.5 1l-131 -735q0 -10 12 -10q6 0 19 2q20 4 34 4q12 0 31 -4q10 -2 19 -2q12 0 14 10l76 432q12 68 36.5 127.5t56.5 106.5t66.5 72.5t65.5 25.5q12 0 25 -2q6 -2 10 -2q-29 -20 -37 -55v-9l-2 -6q0 -31 20.5 -49t51.5 -18 q35 0 61.5 26.5t32.5 67.5v8q2 6 2 8q0 41 -31 70t-84 29q-66 0 -124 -36t-107 -120l16 94q0 37 -22 37q-6 0 -37 -4q-45 -4 -64 -4q-66 0 -110 2h-21q-31 0 -35 -35v-6q-2 -2 -2 -4z" />
<glyph unicode="s" horiz-adv-x="698" d="M-6 170q0 -74 72.5 -140.5t191.5 -66.5q115 0 198 70.5t83 189.5q0 92 -54.5 154.5t-146.5 105.5q-74 33 -106.5 69t-32.5 81q0 63 44 103t111 40q53 0 89 -17.5t44 -41.5q-49 -23 -53 -64v-6q-2 -2 -2 -4q0 -23 18.5 -38t43.5 -15q33 0 56 25.5t23 66.5q0 61 -57 108.5 t-154 47.5q-41 0 -86 -13.5t-85.5 -42t-66.5 -77t-26 -111.5q0 -84 44 -142.5t132 -103.5q84 -41 123 -80t39 -82q0 -72 -51 -114.5t-123 -42.5q-63 0 -113 28.5t-73 77.5q27 4 50.5 26.5t23.5 53.5q0 23 -16.5 42t-45.5 19q-37 0 -65.5 -26.5t-28.5 -79.5z" />
<glyph unicode="t" horiz-adv-x="563" d="M4 760q0 -25 25 -25q6 0 26 2q55 2 105 2l-103 -589q-4 -18 -4 -37q0 -61 39 -95t96 -34q55 0 98.5 29.5t73 78.5t48 103.5t28.5 109.5q0 39 -26 39q-31 0 -39 -39q-20 -117 -58.5 -183.5t-87.5 -66.5q-18 0 -31.5 11.5t-13.5 46.5q0 14 4 34l105 592h16q61 0 131 -2 q23 -2 29 -2q31 0 37 35q0 35 -25 35q-72 0 -160 -2h-16l37 215q0 10 -12 10q-6 0 -17 -2q-23 -6 -37 -6t-28 4q-12 4 -21 4q-12 0 -12 -10l-39 -215q-78 2 -131 2q-31 0 -35 -35v-6q-2 -2 -2 -4z" />
<glyph unicode="u" horiz-adv-x="1003" d="M12 760q0 -27 25 -27q6 0 20 2q23 2 44.5 3t68.5 1l-82 -467q-10 -59 -10 -106q0 -94 40 -145.5t126 -51.5q41 0 83 20.5t82 54.5t71.5 75t51.5 82l-8 -51q-4 -18 -4 -37q0 -61 39 -95t94 -34t98.5 29.5t73 78.5t48 103.5t28.5 109.5v6q2 2 2 4q0 29 -26 29 q-33 0 -41 -39q-20 -117 -58.5 -183.5t-85.5 -66.5q-18 0 -31.5 10.5t-13.5 45.5q0 16 4 36l115 652q0 10 -12 10q-6 0 -17 -2q-20 -4 -35 -4q-14 0 -30 4q-12 2 -21 2q-8 0 -12 -10l-64 -357q-14 -74 -45.5 -145.5t-74.5 -127.5t-90.5 -89t-88.5 -33q-79 0 -79 86 q0 31 6 70l100 571q0 37 -22 37q-6 0 -37 -4q-45 -4 -64 -4q-66 0 -110 2h-21q-31 0 -35 -35v-6q-2 -2 -2 -4z" />
<glyph unicode="v" horiz-adv-x="745" d="M35 539q0 -33 35 -142q31 -88 45 -149.5t14 -124.5q0 -55 -14 -100q-10 -16 -11 -31q0 -25 27 -25q21 1 33 17q51 57 168 166q82 76 135 129t99 114.5t74 129t28 139.5q0 70 -22.5 122t-78.5 52q-41 0 -67.5 -29t-26.5 -64q0 -63 66 -63q37 0 61 25q2 -6 3 -19.5t1 -23.5 q0 -109 -86 -234t-262 -262q6 25 6 51q0 41 -11 85t-34 110q-20 68 -31.5 108.5t-11.5 77.5q0 66 20.5 109t49.5 65q33 23 32 43v4q-2 4 -2 6q-8 14 -22 15q-14 0 -33 -15l-2 -2q-33 -20 -61.5 -43.5t-56 -57.5t-46 -81t-18.5 -102z" />
<glyph unicode="w" horiz-adv-x="1294" d="M10 514q0 -39 27 -39q33 0 39 39q20 117 58 183.5t87 66.5q18 0 31.5 -11.5t13.5 -45.5q0 -14 -4 -35l-69 -385q-10 -53 -11 -99q0 -94 38 -149t110 -55q88 0 164.5 79.5t115.5 188.5v-19l-2 -18q0 -106 45 -168.5t138 -62.5q92 0 169.5 71.5t132 182t84 230.5t29.5 210 q0 57 -22.5 107.5t-77.5 50.5q-41 0 -67.5 -29t-26.5 -64q0 -63 67 -63q16 0 32.5 7t27.5 18q4 -8 4 -27q0 -80 -25.5 -186.5t-71 -206t-105.5 -163t-126 -63.5q-41 0 -60.5 22.5t-19.5 84.5q0 57 17 149l86 500q0 10 -13 10q-4 0 -16 -2q-18 -4 -35 -4q-12 0 -29 4 q-12 2 -22 2t-12 -10l-19 -100q-25 -143 -63.5 -264t-83.5 -209t-91 -135.5t-89 -47.5q-63 0 -64 88q0 31 8 72l78 451q4 18 4 37q0 61 -39 95t-94 34t-97 -30t-73 -78t-49.5 -103.5t-28.5 -110.5z" />
<glyph unicode="x" d="M-61 53q0 -31 21.5 -50t59.5 -19q68 0 146 54t141 163q0 -68 16.5 -112t42 -66.5t54.5 -30.5t57 -8q55 0 100.5 29.5t78 77.5t54 104.5t31.5 109.5q0 39 -26 39q-31 0 -39 -39q-20 -115 -67.5 -185.5t-102.5 -70.5q-45 0 -65.5 39t-20.5 113q0 80 22 211q12 68 39 126 t59.5 103t65.5 70.5t56 29.5v-8q-2 -4 -3 -8q0 -29 20.5 -47.5t45.5 -18.5q33 0 59.5 21.5t30.5 54.5v8q2 4 2 7q0 31 -21.5 50t-60.5 19q-68 0 -145.5 -54t-140.5 -163q0 68 -16.5 112t-42 66.5t-53.5 30.5t-56 8q-55 0 -100.5 -29.5t-79 -78.5t-54 -103.5t-31.5 -109.5v-6 v-5q0 -31 25 -30q35 0 39 41q20 115 69.5 185.5t102.5 70.5q45 0 65.5 -38t20.5 -110q0 -78 -25 -215q-12 -68 -38.5 -127t-59.5 -103t-65.5 -69.5t-55.5 -30.5q0 4 2 11v8q0 27 -20.5 45t-44.5 18q-33 0 -59.5 -22.5t-30.5 -52.5v-9q-2 -2 -2 -6z" />
<glyph unicode="y" d="M-203 -469q0 -31 22.5 -54.5t61.5 -23.5q88 0 179.5 92.5t170.5 245.5l422 834q23 41 40.5 61.5t37.5 28.5q0 -27 18.5 -47.5t45.5 -20.5q33 0 58.5 22.5t33.5 53.5q0 41 -20.5 66.5t-61.5 25.5q-63 0 -115.5 -50t-91.5 -128l-213 -418v432q0 88 -42 128t-110 40 q-55 0 -97 -29.5t-72.5 -77.5t-49 -103.5t-28.5 -110.5q0 -41 26 -41q31 0 39 41q20 117 58 183.5t88 66.5q25 0 41 -19.5t16 -73.5v-692l-74 -143q-20 -47 -50 -94.5t-62.5 -88t-63.5 -66.5t-51 -30q0 4 2 8v11q0 25 -19.5 44t-44.5 19q-33 0 -59.5 -22.5t-32.5 -55.5v-8 q-2 -4 -2 -6z" />
<glyph unicode="z" horiz-adv-x="700" d="M-61 10q0 -10 10 -19t20 -9q23 0 51 34l46 54q16 20 40 20q27 0 95 -43q51 -33 95 -52.5t99 -19.5q68 0 126.5 51.5t58.5 112.5q0 51 -48 82q-8 6 -18 6q-16 0 -27 -16q-6 -8 -6 -16q0 -16 17 -27q23 -14 22 -39q0 -23 -15.5 -41t-35.5 -18q-27 0 -86 36q-49 31 -90 47.5 t-94 16.5q-25 0 -60 -10l500 598q12 14 12 35q0 8 -10 16t-18 8q-12 0 -22.5 -7t-27.5 -26l-51 -59q-20 -20 -41 -20q-27 0 -90 43q-51 33 -92 51t-90 18q-66 0 -125 -46t-59 -114q0 -59 45 -84q8 -6 18 -6q16 0 29 15q6 8 6 16q0 16 -17 29q-25 14 -24 39q0 23 16.5 40 t36.5 17q25 0 76 -35q45 -29 84 -46t92 -17q18 0 59 8l-491 -588q-12 -14 -16 -35z" />
<glyph unicode="{" horiz-adv-x="716" d="M51 600q0 -20 29 -20q66 0 102.5 -39t36.5 -144q0 -68 -16 -164q-10 -55 -10 -104q0 -66 18 -115t49 -84.5t68 -61.5t100 -67l41 -24q6 -4 14 -4q23 0 23 24q0 8 -8 17q-96 76 -137.5 135t-41.5 157q0 53 13 123q20 121 20 191q0 92 -33.5 129t-117.5 57q61 14 101 33.5 t69.5 58.5t51 106.5t42.5 178.5q14 86 38.5 146.5t60.5 104.5t82 79t128 86q20 12 21 28q0 14 -15 15q-8 0 -18 -6q-8 -4 -49 -25q-86 -43 -140.5 -75.5t-102.5 -80t-84 -115t-52 -161.5q-18 -106 -45 -175t-58.5 -107t-66.5 -52t-76 -14q-37 0 -37 -31z" />
<glyph unicode="|" horiz-adv-x="552" d="M236 0h90v1450h-90v-1450z" />
<glyph unicode="}" horiz-adv-x="716" d="M-100 -211q0 -16 16 -16q6 0 14 4q16 8 47 22q88 45 142.5 78t102.5 79t83 113.5t51 163.5q18 104 45 174t59 107t66.5 51.5t75.5 14.5q39 0 39 28q0 23 -31 23q-66 0 -102.5 40t-36.5 146q0 68 16 162q10 57 11 104q0 66 -18.5 115t-51.5 86t-71 64.5t-99 64.5l-37 23 q-8 6 -16 6q-20 0 -21 -23q0 -12 11 -20q100 -82 140 -140.5t40 -156.5q0 -51 -13 -119q-23 -123 -22 -195q0 -90 35 -125.5t117 -56.5q-61 -14 -101.5 -33.5t-69 -57.5t-50 -105.5t-42.5 -180.5q-16 -86 -41.5 -147.5t-62.5 -105.5t-84 -79.5t-125 -82.5q-16 -10 -16 -25z " />
<glyph unicode="~" horiz-adv-x="778" d="M37 424q0 -20 14 -21q16 0 25 21q18 47 53 80t68 33q23 0 52.5 -15.5t76.5 -48.5q51 -35 85.5 -53.5t65.5 -18.5q76 0 133.5 64.5t77.5 177.5q0 20 -14 21q-16 0 -25 -21q-16 -47 -50 -81t-75 -34q-29 0 -58.5 15.5t-78.5 48.5q-49 35 -83 52.5t-68 17.5 q-66 0 -123.5 -67t-75.5 -171z" />
<glyph unicode="&#xa1;" horiz-adv-x="569" d="M-8 -455q0 -31 22.5 -52t53.5 -21q37 0 65.5 25.5t36.5 62.5q6 31 6 100q0 51 2 108.5t10.5 143.5t26.5 219t49 309q0 27 -22 27q-23 0 -29 -27q-31 -176 -58.5 -307t-51 -221t-42 -146.5t-36.5 -105.5q-25 -70 -31 -100v-6q-2 -8 -2 -9zM190 725q0 -35 24 -58.5 t58 -23.5q41 0 74 28.5t41 69.5v9q2 6 2 8q0 33 -23.5 55.5t-58.5 22.5q-41 0 -74.5 -28t-39.5 -67v-8q-2 -6 -3 -8z" />
<glyph unicode="&#xa2;" horiz-adv-x="921" d="M121 514q0 -137 67.5 -224t186.5 -102l-21 -116q-10 -63 -20 -109.5t-17 -73.5q-6 -29 -8 -39q0 -39 39 -38q20 0 34.5 12t18.5 26q2 8 2 29q4 41 9.5 82t17.5 111l21 112q90 4 167.5 52.5t139.5 152.5q4 6 9 17.5t7 19.5q0 31 -29 31q-25 0 -36 -31q-90 -172 -246 -172 l127 735q57 0 98 -30.5t57 -71.5q-29 -2 -54 -25.5t-29 -54.5v-8q-2 -2 -3 -6q0 -27 18.5 -45.5t47.5 -18.5q35 0 61.5 25.5t34.5 68.5q0 4 2 15v14q0 76 -62.5 135.5t-158.5 65.5l8 37q18 98 31.5 160.5t24.5 109.5l4 18q0 39 -39 39q-49 0 -53 -39q-2 -10 -7 -43 q-6 -51 -14 -105t-22 -140l-7 -39q-150 -16 -257 -134t-140 -296q-10 -55 -10 -107zM266 489q0 59 13 132q29 162 88 247.5t149 110.5l-127 -715q-59 20 -91 75.5t-32 149.5z" />
<glyph unicode="&#xa3;" horiz-adv-x="1030" d="M51 29q0 -35 31 -35q6 0 18 2q27 2 68 5t123 3q92 0 255 -2t240 -2q16 0 64 -4q33 -4 37 -4q29 0 35 35l10 63q8 39 20.5 97.5t22.5 101.5l10 49q0 31 -24 31q-31 0 -35 -31q-23 -129 -70 -194.5t-129 -67.5l-481 -13q63 47 112.5 150.5t79.5 282.5l35 194q63 0 195 -2 q41 -2 49 -2q31 0 37 35q0 33 -25 33h-244l68 385q14 84 53 122.5t96 38.5q74 0 93 -30q-29 -8 -48.5 -30.5t-23.5 -47.5v-8q-2 -2 -2 -6q0 -29 19.5 -47.5t47.5 -18.5q35 0 60.5 25.5t32.5 64.5v10q2 6 2 11q0 51 -45 88t-127 37q-154 0 -229.5 -111t-116.5 -346l-25 -137 h-141q-31 0 -37 -33q0 -35 24 -35q6 0 27 2q59 2 115 2l-72 -407q-12 -72 -27.5 -117t-35 -66.5t-45 -27.5t-66.5 -6q-31 0 -31 -37z" />
<glyph unicode="&#xa4;" horiz-adv-x="1024" d="M27 88l43 -53l141 121q76 -70 192 -70q117 0 215 70l101 -121l61 53l-98 121q88 92 109 205q6 29 6 55q0 80 -43 149l24 18q23 19 67 56t52 45l-45 56l-141 -121q-78 72 -193 71q-111 0 -217 -71l-98 121l-64 -56l99 -119q-84 -88 -107 -204q-4 -29 -4 -58q0 -86 41 -147 zM213 371q0 20 4 43q18 100 102 171.5t185 71.5q90 0 147.5 -56t57.5 -144q0 -20 -4 -43q-16 -100 -100.5 -172t-186.5 -72q-90 0 -147.5 56.5t-57.5 144.5z" />
<glyph unicode="&#xa5;" horiz-adv-x="899" d="M18 1286q0 -37 25 -37h20q43 2 107 2l184 -622q-45 0 -72.5 2t-48.5 4q-14 2 -22 2q-37 0 -47 -47q0 -45 31 -45q10 0 26 2q20 2 51 3t95 3l-25 -147q-59 0 -94 3t-51 5q-18 2 -27 2q-14 0 -28.5 -13.5t-16.5 -33.5v-7l-2 -4q0 -35 33 -34q6 0 22 2q25 2 54.5 3t95.5 3 l-45 -269q-68 0 -113 3h-20q-27 0 -37 -37q0 -35 26 -35q6 0 17 2q25 2 63.5 5t120.5 3h8q82 0 120 -3t62 -5q10 -2 17 -2q33 0 35 35v6q2 2 2 4q0 27 -25 27h-20q-45 -2 -113 -3l47 269q61 0 93 -2t57 -4q16 -2 22 -2q41 0 47 45v6l2 6q0 35 -32 35q-8 0 -25 -2 q-25 -2 -54.5 -4t-95.5 -4l25 147q61 0 93 -2t57 -4q16 -2 22 -2q39 0 49 45q0 47 -33 47q-10 0 -24 -2q-23 -2 -53.5 -3t-96.5 -3l406 622q51 0 94 -2h25q27 0 36 37q0 35 -26 35q-6 0 -17 -2q-23 -2 -54.5 -4t-98.5 -4q-63 0 -96 3t-56 5q-10 2 -16 2q-31 0 -37 -35 q0 -37 25 -37h22q53 2 121 2l-365 -563l-165 563q61 0 106 -2h21q31 0 36 37q0 35 -24 35q-6 0 -17 -2q-25 -2 -64.5 -5t-119.5 -3h-10q-80 0 -118 3t-62 5q-10 2 -17 2q-31 0 -37 -35z" />
<glyph unicode="&#xa6;" horiz-adv-x="432" d="M170 0h92v614h-92v-614zM170 836h92v614h-92v-614z" />
<glyph unicode="&#xa7;" horiz-adv-x="872" d="M61 162q0 -80 70 -138.5t184 -58.5q53 0 109.5 18.5t107 56.5t81 97.5t30.5 136.5v29q-2 19 -2 21q41 41 64.5 98t23.5 125q0 117 -70.5 195.5t-181.5 134.5q-86 43 -130 92t-44 118q0 82 58.5 138.5t152.5 56.5q68 0 113 -25.5t57 -64.5q-35 -8 -56.5 -31.5t-23.5 -52.5 q0 -29 18.5 -48.5t49.5 -19.5q41 0 71.5 31t30.5 82q0 80 -69.5 137.5t-186.5 57.5q-51 0 -107.5 -18.5t-106.5 -56.5t-82 -97.5t-32 -135.5q0 -16 5 -45v-4q-88 -84 -89 -223q0 -117 70 -195.5t182 -136.5q86 -41 130 -90t44 -119q0 -82 -58 -138t-152 -56q-68 0 -113 25.5 t-59 64.5q35 8 57 31.5t24 52.5q0 27 -18 47t-51 20q-39 0 -70 -30.5t-31 -81.5zM188 823q0 54 25 99q27 -59 76 -105.5t117 -83.5q109 -53 175 -113.5t66 -127.5q0 -55 -26 -99q-25 59 -74 105.5t-119 81.5q-106 57 -173 116.5t-67 126.5z" />
<glyph unicode="&#xa8;" horiz-adv-x="571" d="M305 1407q0 -72 60 -72q31 0 56 21.5t30 50.5v8q2 2 2 6q0 25 -17.5 42.5t-44.5 17.5q-29 0 -54.5 -21.5t-31.5 -52.5zM610 1407q0 -72 62 -72q31 0 55.5 21.5t28.5 50.5v8q2 2 2 6q0 25 -16.5 42.5t-43.5 17.5q-31 0 -55.5 -21.5t-32.5 -52.5z" />
<glyph unicode="&#xa9;" horiz-adv-x="1482" d="M41 539q0 -121 42 -224.5t120 -181.5t184.5 -120t230.5 -42q139 0 274.5 53.5t247 148.5t186.5 220t99 266q10 61 11 119q0 119 -42 223.5t-119 181.5t-183.5 120t-231.5 43q-139 0 -274 -52.5t-247 -147.5t-187.5 -221t-100.5 -266q-10 -61 -10 -120zM109 551 q0 53 10 108q23 125 90 238t168.5 199t223.5 133t247 47q113 0 208 -38t165.5 -108.5t108.5 -163t38 -200.5q0 -53 -10 -107q-23 -127 -90.5 -240.5t-169 -198.5t-222 -133t-245.5 -48q-113 0 -209 38t-167 108.5t-108.5 164.5t-37.5 201zM338 567q0 -156 91 -250t233 -94 q80 0 131 19.5t102 58.5q14 -12 14 -31q0 -39 27 -39q20 0 28.5 9.5t12.5 27.5l43 254v6q2 6 2 9q0 25 -27 24q-20 0 -29.5 -12t-11.5 -27q-16 -96 -94 -163.5t-174 -67.5q-94 0 -142 52t-48 169q0 61 14 147q37 197 111.5 283t193.5 86q86 0 138.5 -54t52.5 -136 q0 -20 -5 -43q0 -39 29 -39q18 0 26.5 10t12.5 29l43 256q0 2 2 8v6q0 23 -29 22q-18 0 -26 -10t-12 -28q-2 -29 -27 -29q-37 35 -83 54.5t-122 19.5q-78 0 -154.5 -31t-142 -90.5t-109.5 -139t-63 -174.5q-8 -47 -8 -92z" />
<glyph unicode="&#xaa;" horiz-adv-x="890" d="M109 887q0 -115 57 -181.5t158 -66.5q57 0 112.5 31.5t95.5 91.5q0 -53 38 -82t92 -29q49 0 86.5 23.5t65.5 63.5t44 83t27 88q0 33 -25 33q-27 0 -35 -33q-18 -94 -52 -146t-79 -52q-14 0 -26.5 9t-12.5 36q0 12 4 28l105 523q0 6 -10 6q-6 0 -21 -2q-20 -4 -31 -4 q-12 0 -28 4q-12 2 -21 2q-12 0 -12 -6l-18 -88q-45 117 -156 116q-49 0 -103.5 -25.5t-104.5 -71.5t-88 -110.5t-52 -140.5q-10 -51 -10 -100zM236 831q0 61 18 156q31 150 88 221.5t119 71.5q129 0 129 -176q0 -54 -12 -117q-29 -139 -93.5 -217t-146.5 -78 q-102 0 -102 139z" />
<glyph unicode="&#xab;" horiz-adv-x="1331" d="M172 545q0 -14 16 -27l523 -416q14 -10 28 -10q20 0 21 19q-1 14 -15 28l-368 410l514 409q20 16 20 31q0 14 -16 15q-12 0 -29 -11l-667 -415q-27 -16 -27 -33zM606 545q0 -12 17 -27l438 -313q14 -10 29 -10q23 0 22 20q0 13 -14 27l-285 307l391 307q23 16 23 31 q0 14 -17 14q-12 0 -28 -10l-549 -313q-27 -16 -27 -33z" />
<glyph unicode="&#xac;" horiz-adv-x="1167" d="M147 547q0 -35 33 -35q4 0 23 2q29 2 75 4t123 2h433l-5 -12q-12 -72 -22 -118t-16 -71q-6 -23 -7 -32q0 -39 39 -39q20 0 34.5 12t19.5 27v12q2 27 7 70t21 139l2 12q4 31 4 43q0 20 -12 26.5t-53 6.5h-430q-78 0 -123 2t-74 4q-20 2 -24 2q-14 0 -28.5 -12t-16.5 -33 v-6z" />
<glyph unicode="&#xad;" horiz-adv-x="835" d="M137 498q0 -33 33 -33q8 0 23 2q27 2 68.5 4t113.5 2h14q72 0 113 -2t65 -4q14 -2 23 -2q39 0 49 45q0 47 -33 47q-8 0 -22 -2q-27 -2 -68 -4t-113 -2h-16q-70 0 -112 2t-68 4q-14 2 -23 2q-14 0 -28.5 -13.5t-16.5 -33.5v-6z" />
<glyph unicode="&#xae;" horiz-adv-x="1482" d="M41 539q0 -121 42 -224.5t120 -181.5t184.5 -120t230.5 -42q139 0 274.5 53.5t247 148.5t186.5 220t99 266q10 61 11 119q0 119 -42 223.5t-119 181.5t-183.5 120t-231.5 43q-139 0 -274 -52.5t-247 -147.5t-187.5 -221t-100.5 -266q-10 -61 -10 -120zM109 551 q0 53 10 108q23 125 90 238t168.5 199t223.5 133t247 47q113 0 208 -38t165.5 -108.5t108.5 -163t38 -200.5q0 -53 -10 -107q-23 -127 -90.5 -240.5t-169 -198.5t-222 -133t-245.5 -48q-113 0 -209 38t-167 108.5t-108.5 164.5t-37.5 201zM283 289q0 -37 22 -37q6 0 19 2 q23 4 62.5 6t121.5 2h8q80 0 118 -2t62 -6q10 -2 17 -2q33 0 39 37q0 35 -27 35h-131l57 327h82q84 0 117 -22.5t33 -75.5q0 -33 -11 -84q-10 -55 -10 -96q0 -78 35 -106.5t102 -28.5q37 0 75 25.5t44 68.5q0 31 -26 30q-29 0 -37 -32q-6 -43 -37 -43t-31 35q0 2 2 8v10 q2 18 10 43q10 39 19 86q4 18 4 39q0 63 -41 111.5t-119 68.5q82 16 148.5 66.5t79.5 117.5q0 4 2 15v14q0 74 -72 118t-215 44q-23 0 -92 -2q-53 -2 -78 -2q-78 0 -112 2t-58 6q-12 2 -16 2q-12 0 -22.5 -10t-12.5 -27v-6q-2 -2 -2 -4q0 -25 24 -25h21q45 2 112 2 l-120 -675h-132q-31 0 -34 -35zM662 711l51 290h59q92 0 131 -22.5t39 -75.5q0 -17 -4 -37q-16 -88 -70.5 -121.5t-158.5 -33.5h-47z" />
<glyph unicode="&#xaf;" horiz-adv-x="477" d="M264 1280h336l10 45h-338z" />
<glyph unicode="&#xb0;" horiz-adv-x="819" d="M162 987q0 -109 72.5 -181.5t183.5 -72.5q63 0 123.5 24.5t110.5 66.5t83 98.5t45 117.5q4 27 4 52q0 111 -72.5 183.5t-185.5 72.5q-63 0 -122.5 -24t-109.5 -65.5t-84 -98t-44 -120.5q-4 -27 -4 -53zM254 1001q0 18 4 39q16 90 90 153.5t164 63.5q80 0 132 -51t52 -129 q0 -8 -2 -18q-2 -12 -2 -19q-16 -88 -91 -151.5t-165 -63.5q-80 0 -131 50.5t-51 125.5z" />
<glyph unicode="&#xb1;" horiz-adv-x="937" d="M-6 37q0 -45 33 -45q4 0 22 2q29 2 75 4t124 2h219q78 0 123 -2t72 -4q18 -2 22 -2q39 0 49 45q0 47 -31 47q-8 0 -24 -2q-31 -2 -77 -4t-122 -2h-217q-78 0 -123 2t-73 4q-18 2 -23 2q-14 0 -29.5 -13.5t-19.5 -33.5zM78 510q0 -45 31 -45q10 0 24 2q29 2 75 4t124 2h71 l-14 -72q-14 -84 -23.5 -124.5t-15.5 -67.5q-4 -20 -6 -29q0 -39 39 -39q20 0 34.5 12.5t18.5 26.5q2 8 2 23q2 23 7.5 69.5t19.5 128.5l12 72h72q88 0 129 -2t67 -4q16 -2 23 -2q41 0 47 45v6l2 6q0 35 -33 35q-8 0 -24 -2q-29 -2 -75 -4t-122 -2h-71l12 72 q14 76 23.5 119.5t17.5 74.5q4 16 6 25q0 39 -39 39q-45 0 -53 -39q-2 -8 -2 -21q-2 -33 -8.5 -75t-20.5 -123l-12 -72h-72q-76 0 -122 2t-72 4q-16 2 -25 2q-14 0 -28.5 -13.5t-18.5 -33.5z" />
<glyph unicode="&#xb2;" horiz-adv-x="632" d="M39 614q0 -22 29 -22l338 -2q14 0 63 -4q33 -2 39 -2q10 0 20.5 9t10.5 21l8 35q6 39 18.5 77t28.5 81q10 27 12 35q0 27 -24 26q-31 0 -35 -26q-8 -41 -23.5 -77t-23.5 -52h-295l221 190q182 156 201 246q0 8 2 18v17q0 76 -56.5 119t-171.5 43q-111 0 -177 -54.5 t-79 -117.5v-9l-2 -8q0 -31 19.5 -50.5t48.5 -19.5t54.5 20.5t29.5 49.5v8q2 2 2 6q0 25 -16.5 40.5t-42.5 17.5q18 25 55 40t82 15q125 0 125 -106q0 -20 -4 -48q-8 -43 -42 -95t-92 -107l-305 -283q-18 -14 -18 -31z" />
<glyph unicode="&#xb3;" horiz-adv-x="632" d="M51 698q0 -53 59.5 -95t141.5 -42q123 0 211 61.5t106 165.5q0 8 2 17v16q0 55 -31.5 98.5t-84.5 69.5q55 25 96 70t49 92q0 6 2 18q2 10 2 17q0 72 -56 116t-155 44q-82 0 -146.5 -40t-74.5 -100v-10q-2 -8 -2 -10q0 -63 57 -64q27 0 49.5 20.5t26.5 47.5v8q2 2 2 6 q0 35 -37 49q12 12 43 24.5t56 12.5q111 0 110 -96q0 -18 -4 -43q-10 -61 -48 -99t-93 -38q-37 0 -58.5 2t-33.5 4q-8 2 -13 2q-39 0 -45 -35q0 -35 31 -35q6 0 14 2q18 2 38 3t57 1q53 0 87.5 -31.5t34.5 -92.5q0 -20 -4 -46q-31 -174 -178 -174q-45 0 -74.5 16.5 t-46.5 37.5q43 18 49 59v6q2 4 3 8q0 23 -16.5 38.5t-39.5 15.5q-33 0 -55.5 -21.5t-28.5 -58.5v-8q-2 -4 -2 -9z" />
<glyph unicode="&#xb4;" horiz-adv-x="417" d="M274 1241q0 -18 19 -18q6 0 12 4q70 51 124 80.5t110 54.5q39 16 49 24q33 23 33 58q-1 17 -11 29q-14 23 -45 22q-23 0 -41 -14q-10 -6 -37 -37q-43 -49 -87 -91t-115 -96q-10 -6 -11 -16z" />
<glyph unicode="&#xb5;" horiz-adv-x="1003" d="M-213 -508q0 -35 23 -35q4 0 18 2q25 4 61.5 6.5t116.5 2.5h4q80 0 115 -2.5t59 -6.5q12 -2 17 -2q33 0 39 35q0 37 -25 37h-20q-43 -2 -111 -2q4 27 9 53.5t38 213t33 190.5q31 -14 80 -15q41 0 83 20.5t82 54.5t71.5 75t51.5 82l-8 -51q-4 -18 -4 -37q0 -61 39 -95 t94 -34t98.5 29.5t73 78.5t48 103.5t28.5 109.5v6q2 2 2 4q0 29 -26 29q-33 0 -41 -39q-20 -117 -58.5 -183.5t-85.5 -66.5q-18 0 -31.5 10.5t-13.5 45.5q0 16 4 36l115 652q0 10 -12 10q-6 0 -17 -2q-20 -4 -35 -4q-14 0 -30 4q-12 2 -21 2q-8 0 -12 -10l-64 -357 q-14 -74 -45.5 -145.5t-74.5 -127.5t-90.5 -89t-88.5 -33q-80 0 -79 88q0 29 6 68l100 571q0 37 -22 37q-6 0 -37 -4q-45 -4 -64 -4q-66 0 -110 2h-21q-31 0 -35 -35v-6q-2 -2 -2 -4q0 -27 25 -27q6 0 20 2q23 2 44.5 3t68.5 1l-215 -1212q-66 0 -111 2h-20 q-12 0 -23.5 -10.5t-13.5 -26.5z" />
<glyph unicode="&#xb6;" horiz-adv-x="1050" d="M-115 -426q0 -51 42 -86t110 -35q266 0 426 249t252 775l137 774q47 0 71.5 -1t39.5 -3q14 -2 20 -2q31 0 37 37q0 35 -25 35q-23 0 -51 -2h-33h-297q-70 0 -138 -27.5t-124.5 -76t-95.5 -111t-51 -133.5q-6 -31 -6 -62q0 -113 70.5 -191.5t185.5 -92.5l-54 -302 q-43 -242 -86 -401.5t-86 -247.5t-87 -123.5t-91 -35.5q-27 0 -39 10q63 25 70 86q0 4 2 10v8q0 37 -24.5 57.5t-57.5 20.5q-41 0 -72.5 -28.5t-42.5 -77.5v-13q-2 -8 -2 -10zM195 -467q98 80 161.5 272.5t124.5 544.5l160 901h135l-141 -805q-76 -428 -181 -642t-259 -271z " />
<glyph unicode="&#xb7;" horiz-adv-x="598" d="M160 512q0 -39 28.5 -68.5t67.5 -29.5q41 0 69.5 28.5t28.5 69.5t-28.5 69.5t-69.5 28.5q-39 0 -67.5 -28.5t-28.5 -69.5z" />
<glyph unicode="&#xb8;" horiz-adv-x="403" d="M8 -283q0 -12 23 -12q115 18 202 64.5t101 124.5q0 4 2 14v14q0 55 -41 85t-105 30l125 110h-67l-170 -145q-16 -14 -17 -27q0 -14 17 -14q20 4 41 4q45 0 73.5 -18.5t28.5 -52.5q-8 -53 -63.5 -95.5t-120.5 -58.5q-29 -6 -29 -23z" />
<glyph unicode="&#xb9;" horiz-adv-x="616" d="M182 1286q0 -33 21 -33q6 0 24 2q55 2 119 2l-117 -665h129q8 41 51.5 284.5t56.5 324.5t15 89q0 31 -22 31q-4 0 -39 -2q-49 -4 -64 -4q-59 0 -118 2h-23q-27 0 -33 -31z" />
<glyph unicode="&#xba;" horiz-adv-x="768" d="M111 903q0 -119 67.5 -191.5t175.5 -72.5q129 0 238.5 97t140.5 251q8 43 8 82q0 121 -68.5 193.5t-178.5 72.5q-129 0 -236.5 -97t-138.5 -251q-8 -45 -8 -84zM236 838q0 59 18 149q33 162 86 228.5t145 66.5q68 0 98.5 -32.5t30.5 -108.5q0 -58 -20 -154 q-33 -162 -84 -228.5t-143 -66.5q-68 0 -99.5 34t-31.5 112z" />
<glyph unicode="&#xbb;" horiz-adv-x="1331" d="M57 207q0 -12 17 -12q14 0 32 10l549 313q27 16 27 33q0 14 -16 27l-439 313q-12 10 -24 10q-25 0 -25 -20q0 -12 12 -25l287 -307l-395 -307q-25 -18 -25 -35zM373 106q0 -14 16 -14q14 0 33 10l670 416q25 16 24 35q0 12 -14 25l-522 415q-14 10 -27 11q-23 0 -23 -23 q0 -10 11 -23l370 -409l-516 -410q-23 -18 -22 -33z" />
<glyph unicode="&#xbc;" horiz-adv-x="1585" d="M217 1286q0 -33 21 -33q6 0 24 2q55 2 119 2l-119 -665h131q8 41 46 262t57.5 327.5t19.5 108.5q0 31 -22 31q-4 0 -39 -2q-49 -4 -64 -4q-59 0 -119 2h-22q-27 0 -33 -31zM330 10q0 -25 24 -35q10 -4 21 -4q29 0 41 23q6 10 18 35q51 94 96 172l494 821q51 86 92 148.5 t70 103.5l6 10q4 8 4 19q0 25 -22 34q-10 4 -21 4q-29 0 -41 -22l-27 -45q-63 -115 -127 -223l-491 -822q-53 -88 -115 -176q-16 -20 -16 -22q-6 -10 -6 -21zM883 231q0 -16 26 -16h275l-39 -215h121l37 215q68 0 104 -4h12q35 0 41 35q0 35 -30 35q-2 0 -13 -2 q-20 -2 -39.5 -4.5t-64.5 -2.5l78 443v8q2 4 2 6q0 31 -25 31q-14 0 -23.5 -5t-23.5 -22l-424 -477q-14 -14 -14 -25zM983 272l262 295l-51 -295h-211z" />
<glyph unicode="&#xbd;" horiz-adv-x="1603" d="M217 1286q0 -33 21 -33q6 0 24 2q55 2 119 2l-119 -665h131q8 41 46 262t57.5 327.5t19.5 108.5q0 31 -22 31q-4 0 -39 -2q-49 -4 -64 -4q-59 0 -119 2h-22q-27 0 -33 -31zM330 10q0 -25 24 -35q10 -4 21 -4q29 0 41 23q6 10 18 35q51 94 96 172l494 821q51 86 92 148.5 t70 103.5l6 10q4 8 4 19q0 25 -22 34q-10 4 -21 4q-29 0 -41 -22l-27 -45q-63 -115 -127 -223l-491 -822q-53 -88 -115 -176q-16 -20 -16 -22q-6 -10 -6 -21zM879 23q-1 -23 28 -23l338 -2q14 0 64 -4q33 -2 39 -2q27 0 30 31l8 34q6 39 18.5 77t29.5 81q10 27 12 35 q0 27 -25 26q-31 0 -35 -26q-8 -41 -23 -78t-26 -53h-295l224 192q184 154 198 246q4 20 4 37q0 74 -57 117t-170 43q-111 0 -178.5 -54.5t-77.5 -117.5v-11q-2 -4 -2 -8q0 -31 19.5 -49t48.5 -18t53 20.5t29 48.5v8q2 4 2 7q0 55 -58 57q20 25 56 40t81 15q125 0 125 -106 q0 -20 -4 -47q-8 -43 -41.5 -95.5t-91.5 -107.5l-307 -283q-16 -14 -16 -30z" />
<glyph unicode="&#xbe;" horiz-adv-x="1603" d="M76 700q0 -55 60.5 -97t142.5 -42q121 0 208.5 61.5t106.5 165.5q0 8 2 17v16q0 57 -32 100.5t-85 67.5q55 25 97 70t51 92q0 6 2 18q2 8 2 17q0 72 -57.5 116t-155.5 44q-80 0 -144.5 -41t-74.5 -99q0 -4 -2 -12v-10q0 -61 55 -62q27 0 50.5 20.5t27.5 47.5q0 51 -37 63 q12 12 43 24.5t57 12.5q109 0 109 -94q0 -20 -4 -45q-10 -61 -48 -99t-94 -38q-35 0 -56 2t-36 4q-8 2 -12 2q-14 0 -27.5 -9t-15.5 -26q0 -35 31 -35q2 0 12 2q16 2 35.5 3t58.5 1q55 0 90 -31.5t35 -95.5q0 -20 -4 -43q-31 -174 -180 -174q-45 0 -76 16.5t-43 37.5 q39 18 49 59v6q2 4 2 6q0 23 -16.5 39.5t-40.5 16.5q-68 0 -84 -80v-6q-2 -8 -2 -9zM399 10q0 -27 25 -35q8 -4 20 -4q27 0 39 23q4 8 17 31q51 96 100 176l492 821q70 119 147 231q19 27 21 31q6 10 6 21q0 23 -25 32q-10 4 -20 4q-25 0 -41 -22q-4 -8 -25 -43 q-68 -125 -127 -225l-493 -822q-43 -70 -103 -157q-23 -33 -26 -41q-6 -10 -7 -21zM901 231q0 -16 27 -16h272l-37 -215h119l37 215q68 0 104 -4h13q35 0 41 35q0 35 -29 35q-4 0 -14 -2q-14 -2 -40 -4.5t-65 -2.5l80 443q0 25 -7 35t-18 10q-12 0 -21 -5t-26 -22l-424 -477 q-12 -14 -12 -25zM999 272l265 295l-54 -295h-211z" />
<glyph unicode="&#xbf;" horiz-adv-x="849" d="M-31 -281q0 -104 77 -175.5t216 -71.5q59 0 116.5 20.5t104.5 55t79 79.5t40 92q0 6 2 15v16q0 41 -18.5 68.5t-55.5 27.5q-33 0 -59.5 -22.5t-34.5 -54.5v-7v-6q0 -33 22.5 -51t53.5 -18q-20 -61 -85 -105.5t-155 -44.5q-88 0 -130 47t-42 113v16q2 12 2 17 q14 90 55.5 144t112.5 116q76 66 119 123t60 155q2 8 5 29.5t11 64.5q10 68 12 78q0 27 -22 27q-25 0 -29 -27q-4 -18 -7 -38.5t-5 -49.5q-12 -68 -56.5 -117t-130.5 -116q-111 -86 -172 -160t-82 -190q-4 -25 -4 -50zM401 723q0 -33 24 -56.5t58 -23.5q41 0 74 28.5 t41 69.5v9l2 6q0 35 -23.5 57.5t-58.5 22.5q-41 0 -74.5 -28t-40.5 -67v-8q-2 -6 -2 -10z" />
<glyph unicode="&#xc0;" horiz-adv-x="1058" d="M-213 29q0 -35 25 -35q6 0 16 2q25 2 56.5 5t99.5 3q63 0 96 -3l55 -5q10 -2 17 -2q31 0 36 35q0 37 -24 37h-21q-43 -2 -106 -3l217 351h418v-351q-66 0 -111 3h-20q-31 0 -37 -37q0 -35 24 -35q6 0 19 2q23 2 62.5 5t121.5 3h8q82 0 120 -3t63 -5q10 -2 16 -2 q29 0 35 35v6q2 2 2 4q0 27 -27 27h-18q-45 -2 -113 -3v1250q0 39 -31 39q-29 0 -47 -27l-786 -1262q-63 0 -109 3h-20q-31 0 -37 -37zM301 487l371 596v-596h-371zM637 1636q0 -23 14 -37q8 -8 41 -24q47 -25 91 -54.5t96 -80.5q4 -4 12 -4t16 7t8 15t-6 12 q-49 49 -78.5 92.5t-54.5 90.5q-18 35 -26 41q-12 14 -37 14q-33 0 -54 -22q-23 -20 -22 -50z" />
<glyph unicode="&#xc1;" horiz-adv-x="1058" d="M-213 29q0 -35 25 -35q6 0 16 2q25 2 56.5 5t99.5 3q63 0 96 -3l55 -5q10 -2 17 -2q31 0 36 35q0 37 -24 37h-21q-43 -2 -106 -3l217 351h418v-351q-66 0 -111 3h-20q-31 0 -37 -37q0 -35 24 -35q6 0 19 2q23 2 62.5 5t121.5 3h8q82 0 120 -3t63 -5q10 -2 16 -2 q29 0 35 35v6q2 2 2 4q0 27 -27 27h-18q-45 -2 -113 -3v1250q0 39 -31 39q-29 0 -47 -27l-786 -1262q-63 0 -109 3h-20q-31 0 -37 -37zM301 487l371 596v-596h-371zM768 1452q0 -18 18 -18q6 0 13 4q70 51 124 80.5t109 54.5q39 16 49 24q33 23 33 58q0 16 -10 28 q-14 23 -45 23q-23 0 -41 -14q-10 -6 -37 -37q-43 -49 -87 -91t-116 -96q-10 -6 -10 -16z" />
<glyph unicode="&#xc2;" horiz-adv-x="1058" d="M-213 29q0 -35 25 -35q6 0 16 2q25 2 56.5 5t99.5 3q63 0 96 -3l55 -5q10 -2 17 -2q31 0 36 35q0 37 -24 37h-21q-43 -2 -106 -3l217 351h418v-351q-66 0 -111 3h-20q-31 0 -37 -37q0 -35 24 -35q6 0 19 2q23 2 62.5 5t121.5 3h8q82 0 120 -3t63 -5q10 -2 16 -2 q29 0 35 35v6q2 2 2 4q0 27 -27 27h-18q-45 -2 -113 -3v1250q0 39 -31 39q-29 0 -47 -27l-786 -1262q-63 0 -109 3h-20q-31 0 -37 -37zM301 487l371 596v-596h-371zM627 1446q0 -12 14 -12h4q4 2 6 2l219 125l174 -125h5l2 -2q8 0 15 6t7 12v4l-2 2l-151 207q-14 18 -27 18 q-12 0 -35 -18l-225 -207q-6 -6 -6 -12z" />
<glyph unicode="&#xc3;" horiz-adv-x="1058" d="M-213 29q0 -35 25 -35q6 0 16 2q25 2 56.5 5t99.5 3q63 0 96 -3l55 -5q10 -2 17 -2q31 0 36 35q0 37 -24 37h-21q-43 -2 -106 -3l217 351h418v-351q-66 0 -111 3h-20q-31 0 -37 -37q0 -35 24 -35q6 0 19 2q23 2 62.5 5t121.5 3h8q82 0 120 -3t63 -5q10 -2 16 -2 q29 0 35 35v6q2 2 2 4q0 27 -27 27h-18q-45 -2 -113 -3v1250q0 39 -31 39q-29 0 -47 -27l-786 -1262q-63 0 -109 3h-20q-31 0 -37 -37zM301 487l371 596v-596h-371zM614 1448q0 -10 11 -10q12 0 18 10q14 35 42 59.5t50 24.5q27 0 90 -47q37 -27 59.5 -40t45.5 -13 q57 0 100 48t57 134q0 14 -12 14t-16 -14q-12 -35 -38.5 -60.5t-55.5 -25.5q-33 0 -95 49q-35 25 -57 38t-47 13q-49 0 -93 -51t-59 -129z" />
<glyph unicode="&#xc4;" horiz-adv-x="1058" d="M-213 29q0 -35 25 -35q6 0 16 2q25 2 56.5 5t99.5 3q63 0 96 -3l55 -5q10 -2 17 -2q31 0 36 35q0 37 -24 37h-21q-43 -2 -106 -3l217 351h418v-351q-66 0 -111 3h-20q-31 0 -37 -37q0 -35 24 -35q6 0 19 2q23 2 62.5 5t121.5 3h8q82 0 120 -3t63 -5q10 -2 16 -2 q29 0 35 35v6q2 2 2 4q0 27 -27 27h-18q-45 -2 -113 -3v1250q0 39 -31 39q-29 0 -47 -27l-786 -1262q-63 0 -109 3h-20q-31 0 -37 -37zM301 487l371 596v-596h-371zM649 1507q0 -72 60 -71q31 0 56.5 21.5t29.5 49.5v9q2 2 2 6q0 25 -17.5 42t-44.5 17q-29 0 -54.5 -21.5 t-31.5 -52.5zM954 1507q0 -72 62 -71q31 0 55.5 21.5t28.5 49.5v9q2 2 2 6q0 25 -16.5 42t-43.5 17q-31 0 -55 -21.5t-33 -52.5z" />
<glyph unicode="&#xc5;" horiz-adv-x="1058" d="M-213 29q0 -35 25 -35q6 0 16 2q25 2 56.5 5t99.5 3q63 0 96 -3l55 -5q10 -2 17 -2q31 0 36 35q0 37 -24 37h-21q-43 -2 -106 -3l217 351h418v-351q-66 0 -111 3h-20q-31 0 -37 -37q0 -35 24 -35q6 0 19 2q23 2 62.5 5t121.5 3h8q82 0 120 -3t63 -5q10 -2 16 -2 q29 0 35 35v6q2 2 2 4q0 27 -27 27h-18q-45 -2 -113 -3v1250q0 39 -31 39q-29 0 -47 -27l-786 -1262q-63 0 -109 3h-20q-31 0 -37 -37zM301 487l371 596v-596h-371zM739 1559q0 -55 35 -90t90 -35q63 0 115.5 45t64.5 108q0 4 3 12v15q0 53 -36 89t-91 36q-63 0 -115.5 -45 t-63.5 -107q0 -6 -2 -14v-14zM805 1573l2 6v8q6 35 35.5 58.5t62.5 23.5q31 0 52.5 -19.5t21.5 -47.5l-2 -9v-6q-8 -35 -37 -60.5t-63 -25.5q-31 0 -51.5 20.5t-20.5 51.5z" />
<glyph unicode="&#xc6;" horiz-adv-x="1536" d="M-190 29q0 -35 24 -35q4 0 16 2q23 4 55 6t103 2h19q72 0 101.5 -2t51.5 -6q12 -2 17 -2q12 0 23 10t13 25q0 37 -22 37h-18q-43 -2 -109 -3h-14l264 351h389l-61 -351q-68 0 -119 3h-23q-31 0 -37 -37q0 -35 25 -35q6 0 18 2q27 2 68 5t123 3h53l422 -4q18 0 72 -4 q35 -4 41 -4q12 0 23 10t13 25l11 63q6 37 15 75t28 122q10 43 12 51q0 31 -29 31q-35 0 -39 -31q-23 -127 -76 -194.5t-139 -67.5h-317l100 573h168q88 0 88 -104q0 -25 -6 -53v-5v-4q0 -23 23 -22q25 0 32 31v14q2 31 6.5 71.5t16.5 108.5q10 68 20.5 108t20.5 70 q4 12 4 17v4q2 2 2 4q0 23 -25 22q-25 0 -32 -30q-29 -158 -135 -158h-168l90 516h266q68 0 100.5 -42t32.5 -120q0 -43 -10 -100q0 -31 29 -31q31 0 38 31q2 27 13.5 112t19.5 136l10 61q0 37 -22 37q-6 0 -43 -4q-55 -4 -74 -4l-391 -4q-37 0 -51.5 -6.5t-30.5 -28.5 l-915 -1213h-17q-61 0 -100 3h-19q-33 0 -38 -37zM389 487l451 596l-107 -596h-344z" />
<glyph unicode="&#xc7;" horiz-adv-x="1032" d="M68 475q0 -211 89 -346t236 -158l-131 -112q-16 -14 -16 -27q0 -14 16 -14q20 4 41 4q45 0 74 -18.5t29 -53.5q-8 -53 -63.5 -95t-121.5 -58q-29 -8 -28 -23q0 -12 22 -12q115 18 202 64t101 124q0 4 2 14v15q0 55 -41 85t-104 30l82 71q100 2 169.5 37t143.5 104 q20 -14 21 -61v-14q-2 -6 -3 -13v-4v-6q0 -23 23 -22q16 0 23.5 9t9.5 21l74 418q0 33 -23 33q-16 0 -23.5 -9t-9.5 -24q-14 -82 -51 -153.5t-88 -124t-113.5 -81t-128.5 -28.5q-125 0 -191.5 78t-66.5 258q0 117 29 274q59 332 168.5 471.5t275.5 139.5q113 0 182.5 -83 t69.5 -216q0 -41 -8 -88q0 -33 23 -33q14 0 21 8t11 25l74 415v4q2 6 2 7q0 20 -24 20q-16 0 -22.5 -7t-8.5 -20l-2 -4q-14 -70 -58 -77q-47 61 -105 95t-157 34q-98 0 -195.5 -49.5t-181.5 -141.5t-145 -220t-88 -280q-16 -94 -16 -182z" />
<glyph unicode="&#xc8;" horiz-adv-x="1001" d="M-35 29q0 -35 27 -35q6 0 18 2q23 2 63 5t120 3l489 -4q16 0 63 -4q29 -4 39 -4t20.5 10t12.5 25l10 63q8 39 20.5 97.5t22.5 101.5q10 49 11 49q0 31 -25 31q-31 0 -35 -31q-23 -125 -72 -193.5t-126 -68.5h-340l100 573h178q76 0 76 -98q0 -27 -6 -59q0 -31 20 -31 t29 31v8q4 27 10 69.5t19 116.5q12 74 21 118t15 68l3 9v4l2 6q0 20 -21 20q-25 0 -29 -30q-29 -158 -125 -158h-180l92 516h295q117 0 117 -154q0 -49 -12 -108q0 -31 26 -31q27 0 35 31q2 16 12.5 98t20.5 150l12 61q0 37 -20 37q-4 0 -39 -4q-50 -4 -66 -4l-446 -4 q-82 0 -120 3t-62 5q-10 2 -17 2q-12 0 -22.5 -10.5t-12.5 -24.5v-6q-2 -2 -2 -4q0 -27 25 -27h20q45 2 113 2l-209 -1188q-66 0 -110 3h-21q-29 0 -39 -37zM559 1636q0 -23 14 -37q8 -8 41 -24q47 -25 91.5 -54.5t95.5 -80.5q4 -4 12 -4t16.5 7t8.5 15t-7 12 q-49 49 -78.5 92.5t-54.5 90.5q-18 35 -26 41q-12 14 -37 14q-33 0 -53 -22q-23 -20 -23 -50z" />
<glyph unicode="&#xc9;" horiz-adv-x="1001" d="M-35 29q0 -35 27 -35q6 0 18 2q23 2 63 5t120 3l489 -4q16 0 63 -4q29 -4 39 -4t20.5 10t12.5 25l10 63q8 39 20.5 97.5t22.5 101.5q10 49 11 49q0 31 -25 31q-31 0 -35 -31q-23 -125 -72 -193.5t-126 -68.5h-340l100 573h178q76 0 76 -98q0 -27 -6 -59q0 -31 20 -31 t29 31v8q4 27 10 69.5t19 116.5q12 74 21 118t15 68l3 9v4l2 6q0 20 -21 20q-25 0 -29 -30q-29 -158 -125 -158h-180l92 516h295q117 0 117 -154q0 -49 -12 -108q0 -31 26 -31q27 0 35 31q2 16 12.5 98t20.5 150l12 61q0 37 -20 37q-4 0 -39 -4q-50 -4 -66 -4l-446 -4 q-82 0 -120 3t-62 5q-10 2 -17 2q-12 0 -22.5 -10.5t-12.5 -24.5v-6q-2 -2 -2 -4q0 -27 25 -27h20q45 2 113 2l-209 -1188q-66 0 -110 3h-21q-29 0 -39 -37zM604 1452q0 -18 19 -18q6 0 12 4q70 51 124 80.5t109 54.5q39 16 50 24q33 23 32 58q0 16 -10 28q-14 23 -45 23 q-23 0 -41 -14q-10 -6 -37 -37q-43 -49 -87 -91t-116 -96q-10 -6 -10 -16z" />
<glyph unicode="&#xca;" horiz-adv-x="1001" d="M-35 29q0 -35 27 -35q6 0 18 2q23 2 63 5t120 3l489 -4q16 0 63 -4q29 -4 39 -4t20.5 10t12.5 25l10 63q8 39 20.5 97.5t22.5 101.5q10 49 11 49q0 31 -25 31q-31 0 -35 -31q-23 -125 -72 -193.5t-126 -68.5h-340l100 573h178q76 0 76 -98q0 -27 -6 -59q0 -31 20 -31 t29 31v8q4 27 10 69.5t19 116.5q12 74 21 118t15 68l3 9v4l2 6q0 20 -21 20q-25 0 -29 -30q-29 -158 -125 -158h-180l92 516h295q117 0 117 -154q0 -49 -12 -108q0 -31 26 -31q27 0 35 31q2 16 12.5 98t20.5 150l12 61q0 37 -20 37q-4 0 -39 -4q-50 -4 -66 -4l-446 -4 q-82 0 -120 3t-62 5q-10 2 -17 2q-12 0 -22.5 -10.5t-12.5 -24.5v-6q-2 -2 -2 -4q0 -27 25 -27h20q45 2 113 2l-209 -1188q-66 0 -110 3h-21q-29 0 -39 -37zM502 1446q0 -12 14 -12h4q4 2 6 2l219 125l175 -125h4l2 -2q8 0 15 6t7 12v4l-2 2l-151 207q-14 18 -27 18 q-12 0 -35 -18l-225 -207q-6 -6 -6 -12z" />
<glyph unicode="&#xcb;" horiz-adv-x="1001" d="M-35 29q0 -35 27 -35q6 0 18 2q23 2 63 5t120 3l489 -4q16 0 63 -4q29 -4 39 -4t20.5 10t12.5 25l10 63q8 39 20.5 97.5t22.5 101.5q10 49 11 49q0 31 -25 31q-31 0 -35 -31q-23 -125 -72 -193.5t-126 -68.5h-340l100 573h178q76 0 76 -98q0 -27 -6 -59q0 -31 20 -31 t29 31v8q4 27 10 69.5t19 116.5q12 74 21 118t15 68l3 9v4l2 6q0 20 -21 20q-25 0 -29 -30q-29 -158 -125 -158h-180l92 516h295q117 0 117 -154q0 -49 -12 -108q0 -31 26 -31q27 0 35 31q2 16 12.5 98t20.5 150l12 61q0 37 -20 37q-4 0 -39 -4q-50 -4 -66 -4l-446 -4 q-82 0 -120 3t-62 5q-10 2 -17 2q-12 0 -22.5 -10.5t-12.5 -24.5v-6q-2 -2 -2 -4q0 -27 25 -27h20q45 2 113 2l-209 -1188q-66 0 -110 3h-21q-29 0 -39 -37zM520 1507q0 -72 60 -71q31 0 56.5 21.5t29.5 49.5v9q2 2 2 6q0 25 -17.5 42t-44.5 17q-29 0 -54.5 -21.5 t-31.5 -52.5zM825 1507q0 -72 62 -71q31 0 55.5 21.5t28.5 49.5v9q2 2 2 6q0 25 -16.5 42t-43.5 17q-31 0 -55 -21.5t-33 -52.5z" />
<glyph unicode="&#xcc;" horiz-adv-x="630" d="M-35 29q0 -35 27 -35q6 0 18 2q23 2 63 5t120 3h8q82 0 119.5 -3l62.5 -5q10 -2 16 -2q31 0 37 35q0 37 -24 37h-21q-42 -3 -110 -3l206 1188q68 0 113 -2h21q27 0 36 37q0 35 -26 35q-6 0 -17 -2q-25 -2 -63.5 -5t-120.5 -3h-8q-82 0 -120 3t-62 5q-10 2 -17 2 q-12 0 -22.5 -10.5t-12.5 -24.5v-6q-2 -2 -2 -4q0 -27 25 -27h20q45 2 113 2l-209 -1188q-66 0 -110 3h-21q-29 0 -39 -37zM340 1636q0 -23 14 -37q8 -8 41 -24q47 -25 91 -54.5t96 -80.5q4 -4 12 -4t16 7t8 15t-6 12q-49 49 -78.5 92.5t-54.5 90.5q-18 35 -26 41 q-12 14 -37 14q-33 0 -54 -22q-23 -20 -22 -50z" />
<glyph unicode="&#xcd;" horiz-adv-x="630" d="M-35 29q0 -35 27 -35q6 0 18 2q23 2 63 5t120 3h8q82 0 119.5 -3l62.5 -5q10 -2 16 -2q31 0 37 35q0 37 -24 37h-21q-42 -3 -110 -3l206 1188q68 0 113 -2h21q27 0 36 37q0 35 -26 35q-6 0 -17 -2q-25 -2 -63.5 -5t-120.5 -3h-8q-82 0 -120 3t-62 5q-10 2 -17 2 q-12 0 -22.5 -10.5t-12.5 -24.5v-6q-2 -2 -2 -4q0 -27 25 -27h20q45 2 113 2l-209 -1188q-66 0 -110 3h-21q-29 0 -39 -37zM397 1452q0 -18 19 -18q6 0 12 4q70 51 124 80.5t110 54.5q39 16 49 24q33 23 32 58q0 16 -10 28q-14 23 -45 23q-23 0 -41 -14q-10 -6 -37 -37 q-43 -49 -87 -91t-115 -96q-10 -6 -11 -16z" />
<glyph unicode="&#xce;" horiz-adv-x="630" d="M-35 29q0 -35 27 -35q6 0 18 2q23 2 63 5t120 3h8q82 0 119.5 -3l62.5 -5q10 -2 16 -2q31 0 37 35q0 37 -24 37h-21q-42 -3 -110 -3l206 1188q68 0 113 -2h21q27 0 36 37q0 35 -26 35q-6 0 -17 -2q-25 -2 -63.5 -5t-120.5 -3h-8q-82 0 -120 3t-62 5q-10 2 -17 2 q-12 0 -22.5 -10.5t-12.5 -24.5v-6q-2 -2 -2 -4q0 -27 25 -27h20q45 2 113 2l-209 -1188q-66 0 -110 3h-21q-29 0 -39 -37zM274 1446q0 -12 15 -12h4q4 2 6 2l219 125l174 -125h4l2 -2q8 0 15.5 6t7.5 12v4l-2 2l-152 207q-14 18 -26 18t-35 -18l-225 -207q-6 -6 -7 -12z " />
<glyph unicode="&#xcf;" horiz-adv-x="630" d="M-35 29q0 -35 27 -35q6 0 18 2q23 2 63 5t120 3h8q82 0 119.5 -3l62.5 -5q10 -2 16 -2q31 0 37 35q0 37 -24 37h-21q-42 -3 -110 -3l206 1188q68 0 113 -2h21q27 0 36 37q0 35 -26 35q-6 0 -17 -2q-25 -2 -63.5 -5t-120.5 -3h-8q-82 0 -120 3t-62 5q-10 2 -17 2 q-12 0 -22.5 -10.5t-12.5 -24.5v-6q-2 -2 -2 -4q0 -27 25 -27h20q45 2 113 2l-209 -1188q-66 0 -110 3h-21q-29 0 -39 -37zM285 1507q0 -72 59 -71q31 0 56.5 21.5t29.5 49.5v9q2 2 2 6q0 25 -17 42t-44 17q-29 0 -54.5 -21.5t-31.5 -52.5zM590 1507q0 -72 61 -71 q31 0 55.5 21.5t28.5 49.5v9q2 2 2 6q0 25 -16 42t-43 17q-31 0 -55.5 -21.5t-32.5 -52.5z" />
<glyph unicode="&#xd0;" horiz-adv-x="1200" d="M-35 29q0 -35 27 -35q6 0 18 2q23 2 63 5t120 3q43 0 129 -4q113 -4 182 -4q98 0 195.5 47t181.5 136t144 211t85 267q14 84 14 166q0 223 -108.5 358.5t-280.5 135.5q-84 0 -213 -4q-76 -2 -100 -2q-82 0 -120 3t-62 5q-10 2 -17 2q-12 0 -22.5 -10.5t-12.5 -24.5v-6 q-2 -2 -2 -4q0 -27 25 -27h20q45 2 113 2l-92 -528q-51 0 -76.5 2t-50.5 4q-14 2 -23 2q-14 0 -28.5 -13t-16.5 -34v-6l-2 -6q0 -33 33 -33q8 0 23 2q18 2 45 3t82 3l-103 -584q-66 0 -110 3h-21q-29 0 -39 -37zM283 80l98 567q55 0 87 -2t52 -4q14 -2 23 -2q41 0 47 45v6 l2 6q0 35 -33 35q-8 0 -24 -2q-23 -2 -54 -4t-86 -2l90 512q29 2 95.5 3t142.5 1q123 0 185.5 -72.5t62.5 -240.5q0 -113 -29 -269q-55 -317 -158.5 -449t-265.5 -132q-84 0 -146.5 2t-88.5 2z" />
<glyph unicode="&#xd1;" horiz-adv-x="1208" d="M-49 29q0 -35 24 -35q6 0 17 2q25 2 56.5 5t98.5 3q63 0 96 -3t56 -5q10 -2 16 -2q31 0 37 35q0 37 -24 37h-21q-43 -2 -110 -3l188 1061l410 -1110q2 -2 2 -6q16 -35 34 -35q27 0 35 58l215 1220q68 0 113 -2h20q27 0 37 37q0 35 -26 35q-6 0 -17 -2q-23 -2 -54.5 -4 t-98.5 -4q-63 0 -96 3t-56 5q-10 2 -16 2q-31 0 -37 -35q0 -37 24 -37h21q45 2 111 2l-162 -929l-342 917q-29 76 -56 76q-10 0 -34 -2q-25 -2 -35 -2q-63 0 -96 3t-56 5q-10 2 -16 2q-31 0 -37 -35q0 -37 25 -37h20q45 2 111 2l-209 -1188q-66 0 -111 3h-20q-31 0 -37 -37z M553 1448q0 -10 10 -10q12 0 19 10q14 35 41.5 59.5t50.5 24.5q27 0 90 -47q37 -27 59.5 -40t44.5 -13q57 0 100.5 48t57.5 134q0 14 -12 14t-17 -14q-12 -35 -38.5 -60.5t-55.5 -25.5q-33 0 -94 49q-35 25 -57.5 38t-46.5 13q-49 0 -93.5 -51t-58.5 -129z" />
<glyph unicode="&#xd2;" horiz-adv-x="1169" d="M68 475q0 -231 108.5 -370.5t282.5 -139.5q102 0 201.5 49t185.5 142.5t147 221t88 279.5q16 92 17 177q0 233 -109.5 373.5t-286.5 140.5q-100 0 -199.5 -49.5t-184.5 -141.5t-146 -220t-88 -280q-16 -94 -16 -182zM221 365q0 119 31 292q59 338 162.5 474.5 t275.5 136.5q127 0 189.5 -74t62.5 -246q0 -117 -31 -291q-59 -336 -162.5 -473t-273.5 -137q-129 0 -191.5 74t-62.5 244zM627 1634q0 -23 14 -37q8 -8 41 -24q47 -25 91 -54.5t95 -80.5q4 -4 13 -4q8 0 16 7t8 15t-6 12q-49 49 -78.5 92.5t-54.5 90.5q-18 35 -27 41 q-12 14 -37 14q-33 0 -53 -23q-23 -20 -22 -49z" />
<glyph unicode="&#xd3;" horiz-adv-x="1169" d="M68 475q0 -231 108.5 -370.5t282.5 -139.5q102 0 201.5 49t185.5 142.5t147 221t88 279.5q16 92 17 177q0 233 -109.5 373.5t-286.5 140.5q-100 0 -199.5 -49.5t-184.5 -141.5t-146 -220t-88 -280q-16 -94 -16 -182zM221 365q0 119 31 292q59 338 162.5 474.5 t275.5 136.5q127 0 189.5 -74t62.5 -246q0 -117 -31 -291q-59 -336 -162.5 -473t-273.5 -137q-129 0 -191.5 74t-62.5 244zM672 1452q0 -18 18 -18q6 0 12 4q70 51 124.5 80.5t109.5 54.5q39 16 49 24q33 23 33 58q0 16 -10 28q-14 23 -45 23q-23 0 -41 -14q-10 -6 -37 -37 q-43 -49 -87 -91t-116 -96q-10 -6 -10 -16z" />
<glyph unicode="&#xd4;" horiz-adv-x="1169" d="M68 475q0 -231 108.5 -370.5t282.5 -139.5q102 0 201.5 49t185.5 142.5t147 221t88 279.5q16 92 17 177q0 233 -109.5 373.5t-286.5 140.5q-100 0 -199.5 -49.5t-184.5 -141.5t-146 -220t-88 -280q-16 -94 -16 -182zM221 365q0 119 31 292q59 338 162.5 474.5 t275.5 136.5q127 0 189.5 -74t62.5 -246q0 -117 -31 -291q-59 -336 -162.5 -473t-273.5 -137q-129 0 -191.5 74t-62.5 244zM565 1446q0 -12 15 -12h4q4 2 6 2l219 125l174 -125h4l2 -2q8 0 15.5 6t7.5 12v4l-2 2l-152 207q-14 18 -27 18q-12 0 -34 -18l-226 -207 q-6 -6 -6 -12z" />
<glyph unicode="&#xd5;" horiz-adv-x="1169" d="M68 475q0 -231 108.5 -370.5t282.5 -139.5q102 0 201.5 49t185.5 142.5t147 221t88 279.5q16 92 17 177q0 233 -109.5 373.5t-286.5 140.5q-100 0 -199.5 -49.5t-184.5 -141.5t-146 -220t-88 -280q-16 -94 -16 -182zM221 365q0 119 31 292q59 338 162.5 474.5 t275.5 136.5q127 0 189.5 -74t62.5 -246q0 -117 -31 -291q-59 -336 -162.5 -473t-273.5 -137q-129 0 -191.5 74t-62.5 244zM578 1448q0 -10 10 -10q12 0 18 10q14 35 42 59.5t50 24.5q27 0 90 -47q37 -27 59.5 -40t45.5 -13q57 0 100 48t58 134q0 14 -13 14q-12 0 -16 -14 q-12 -35 -38.5 -60.5t-55.5 -25.5q-33 0 -94 49q-35 25 -57.5 38t-47.5 13q-49 0 -93 -51t-58 -129z" />
<glyph unicode="&#xd6;" horiz-adv-x="1169" d="M68 475q0 -231 108.5 -370.5t282.5 -139.5q102 0 201.5 49t185.5 142.5t147 221t88 279.5q16 92 17 177q0 233 -109.5 373.5t-286.5 140.5q-100 0 -199.5 -49.5t-184.5 -141.5t-146 -220t-88 -280q-16 -94 -16 -182zM221 365q0 119 31 292q59 338 162.5 474.5 t275.5 136.5q127 0 189.5 -74t62.5 -246q0 -117 -31 -291q-59 -336 -162.5 -473t-273.5 -137q-129 0 -191.5 74t-62.5 244zM594 1507q0 -72 59 -71q31 0 56.5 21.5t29.5 49.5v9q2 2 2 6q0 25 -17 42t-44 17q-29 0 -54.5 -21.5t-31.5 -52.5zM899 1507q0 -72 62 -71 q31 0 55 21.5t28 49.5v9q2 2 3 6q0 25 -16.5 42t-43.5 17q-31 0 -55.5 -21.5t-32.5 -52.5z" />
<glyph unicode="&#xd7;" horiz-adv-x="0" />
<glyph unicode="&#xd8;" horiz-adv-x="1169" d="M12 -39q0 -18 19 -29q12 -8 26 -8q20 0 37 19q6 6 23 34q41 61 73 109q109 -121 269 -121q102 0 201.5 49t185.5 142.5t147.5 221.5t87.5 279q16 90 17 177q0 203 -86 340q35 47 57.5 74.5t50.5 58.5q16 20 23 28q8 12 8 27q0 20 -16 33q-10 6 -23 6q-25 0 -41 -21 q-4 -4 -12 -16q-10 -16 -35 -51t-57 -80q-104 115 -265 115q-100 0 -199.5 -49.5t-184.5 -141.5t-146 -220t-88 -280q-16 -92 -16 -178q0 -201 82 -334q-57 -76 -111 -135q-12 -14 -19 -22q-8 -12 -8 -27zM221 369q0 115 31 288q59 338 162.5 474.5t275.5 136.5 q160 0 217 -117l-676 -899q-10 51 -10 117zM254 170l678 899q10 -53 10 -121q0 -121 -31 -291q-59 -336 -162.5 -473t-273.5 -137q-166 0 -221 123z" />
<glyph unicode="&#xd9;" horiz-adv-x="1153" d="M139 260q0 -141 88 -218t230 -77q162 0 286.5 98.5t157.5 282.5l160 905q68 0 110 -2h21q31 0 37 37q0 35 -25 35q-6 0 -18 -2q-27 -2 -57.5 -4t-96.5 -4q-63 0 -96 3l-55 5q-10 2 -17 2q-31 0 -37 -35q0 -37 25 -37h20q45 2 111 2l-158 -905q-23 -133 -109.5 -216 t-209.5 -83q-98 0 -162.5 51.5t-64.5 149.5q0 29 6 59l166 944q68 0 110 -2h21q29 0 39 37q0 35 -27 35q-6 0 -16 -2q-25 -2 -65 -5t-120 -3h-8q-82 0 -120 3t-62 5q-10 2 -17 2q-31 0 -36 -35q0 -37 24 -37h21q45 2 110 2l-158 -905q-8 -43 -8 -86zM561 1636q0 -23 14 -37 q8 -8 41 -24q47 -25 91.5 -54.5t95.5 -80.5q4 -4 12 -4t16.5 7t8.5 15t-6 12q-49 49 -79 92.5t-55 90.5q-18 35 -26 41q-12 14 -37 14q-33 0 -53 -22q-23 -20 -23 -50z" />
<glyph unicode="&#xda;" horiz-adv-x="1153" d="M139 260q0 -141 88 -218t230 -77q162 0 286.5 98.5t157.5 282.5l160 905q68 0 110 -2h21q31 0 37 37q0 35 -25 35q-6 0 -18 -2q-27 -2 -57.5 -4t-96.5 -4q-63 0 -96 3l-55 5q-10 2 -17 2q-31 0 -37 -35q0 -37 25 -37h20q45 2 111 2l-158 -905q-23 -133 -109.5 -216 t-209.5 -83q-98 0 -162.5 51.5t-64.5 149.5q0 29 6 59l166 944q68 0 110 -2h21q29 0 39 37q0 35 -27 35q-6 0 -16 -2q-25 -2 -65 -5t-120 -3h-8q-82 0 -120 3t-62 5q-10 2 -17 2q-31 0 -36 -35q0 -37 24 -37h21q45 2 110 2l-158 -905q-8 -43 -8 -86zM715 1452q0 -18 18 -18 q6 0 12 4q70 51 124.5 80.5t109.5 54.5q39 16 49 24q33 23 33 58q0 16 -10 28q-14 23 -45 23q-23 0 -41 -14q-10 -6 -37 -37q-43 -49 -87 -91t-116 -96q-10 -6 -10 -16z" />
<glyph unicode="&#xdb;" horiz-adv-x="1153" d="M139 260q0 -141 88 -218t230 -77q162 0 286.5 98.5t157.5 282.5l160 905q68 0 110 -2h21q31 0 37 37q0 35 -25 35q-6 0 -18 -2q-27 -2 -57.5 -4t-96.5 -4q-63 0 -96 3l-55 5q-10 2 -17 2q-31 0 -37 -35q0 -37 25 -37h20q45 2 111 2l-158 -905q-23 -133 -109.5 -216 t-209.5 -83q-98 0 -162.5 51.5t-64.5 149.5q0 29 6 59l166 944q68 0 110 -2h21q29 0 39 37q0 35 -27 35q-6 0 -16 -2q-25 -2 -65 -5t-120 -3h-8q-82 0 -120 3t-62 5q-10 2 -17 2q-31 0 -36 -35q0 -37 24 -37h21q45 2 110 2l-158 -905q-8 -43 -8 -86zM547 1446q0 -12 14 -12 h4q4 2 6 2l220 125l174 -125h4l2 -2q8 0 15 6t7 12v4l-2 2l-151 207q-14 18 -27 18q-12 0 -35 -18l-225 -207q-6 -6 -6 -12z" />
<glyph unicode="&#xdc;" horiz-adv-x="1153" d="M139 260q0 -141 88 -218t230 -77q162 0 286.5 98.5t157.5 282.5l160 905q68 0 110 -2h21q31 0 37 37q0 35 -25 35q-6 0 -18 -2q-27 -2 -57.5 -4t-96.5 -4q-63 0 -96 3l-55 5q-10 2 -17 2q-31 0 -37 -35q0 -37 25 -37h20q45 2 111 2l-158 -905q-23 -133 -109.5 -216 t-209.5 -83q-98 0 -162.5 51.5t-64.5 149.5q0 29 6 59l166 944q68 0 110 -2h21q29 0 39 37q0 35 -27 35q-6 0 -16 -2q-25 -2 -65 -5t-120 -3h-8q-82 0 -120 3t-62 5q-10 2 -17 2q-31 0 -36 -35q0 -37 24 -37h21q45 2 110 2l-158 -905q-8 -43 -8 -86zM584 1505q0 -72 59 -71 q31 0 56.5 21.5t29.5 49.5v8q2 2 2 7q0 25 -17 42t-44 17q-29 0 -54.5 -21.5t-31.5 -52.5zM889 1505q0 -72 61 -71q31 0 55.5 21.5t28.5 49.5v8q2 2 2 7q0 25 -16 42t-43 17q-31 0 -55.5 -21.5t-32.5 -52.5z" />
<glyph unicode="&#xdd;" horiz-adv-x="899" d="M18 1286q0 -37 25 -37h20q43 2 107 2l201 -673l-88 -515q-68 0 -113 3h-20q-27 0 -37 -37q0 -35 26 -35q6 0 17 2q25 2 63.5 5t120.5 3h8q82 0 120 -3t62 -5q10 -2 17 -2q33 0 35 35v6q2 2 2 4q0 27 -25 27h-20q-45 -2 -113 -3l98 564l408 624q51 0 94 -2h25q27 0 36 37 q0 35 -26 35q-6 0 -17 -2q-23 -2 -54.5 -4t-98.5 -4q-63 0 -96 3t-56 5q-10 2 -16 2q-31 0 -37 -35q0 -37 25 -37h22q53 2 121 2l-365 -563l-165 563q61 0 106 -2h21q31 0 36 37q0 35 -24 35q-6 0 -17 -2q-25 -2 -64.5 -5t-119.5 -3h-10q-80 0 -118 3t-62 5q-10 2 -17 2 q-31 0 -37 -35zM559 1452q0 -18 19 -18q6 0 12 4q70 51 124 80.5t109 54.5q39 16 49 24q33 23 33 58q0 16 -10 28q-14 23 -45 23q-23 0 -41 -14q-10 -6 -37 -37q-43 -49 -87 -91t-116 -96q-10 -6 -10 -16z" />
<glyph unicode="&#xde;" horiz-adv-x="886" d="M-213 -508q0 -35 23 -35q4 0 18 2q25 4 61.5 6.5t116.5 2.5h4q80 0 115 -2.5t59 -6.5q12 -2 17 -2q33 0 39 35q0 37 -25 37h-20q-43 -2 -111 -2l104 588q23 -70 72 -110t115 -40q133 0 239.5 122t139.5 314q12 66 12 123q0 143 -63.5 227.5t-174.5 84.5q-63 0 -126.5 -39 t-112.5 -109l106 598q0 35 -24 35q-10 0 -37 -4q-45 -4 -62 -4q-72 0 -112 4h-21q-29 0 -35 -37v-6q-2 -2 -2 -4q0 -25 27 -25q6 0 18 2q41 2 113 2l-305 -1722q-66 0 -111 2h-20q-12 0 -23.5 -10.5t-13.5 -26.5zM225 274q0 57 13 127q31 172 106.5 269.5t167.5 97.5 q59 0 89 -41t30 -135q-1 -76 -21 -191q-35 -197 -89 -281.5t-136 -84.5q-74 0 -117 62.5t-43 176.5z" />
<glyph unicode="&#xdf;" horiz-adv-x="1067" d="M-215 -422q0 -51 37 -88t106 -37q88 0 150.5 77t85.5 206l217 1229q31 184 91 254.5t149 70.5q47 0 74.5 -27.5t27.5 -88.5q0 -27 -6 -62q-12 -74 -44 -130t-85 -130q-57 -74 -84 -127t-27 -123q0 -88 49 -140t142 -108q76 -45 111.5 -79.5t35.5 -88.5q0 -72 -50 -114.5 t-122 -42.5q-63 0 -113.5 28.5t-72.5 77.5q27 4 50 27.5t23 52.5q0 23 -17 42t-46 19q-37 0 -64.5 -26.5t-27.5 -79.5q0 -74 72.5 -140.5t191.5 -66.5q115 0 197 70.5t82 189.5q0 88 -48.5 140.5t-138.5 113.5q-78 49 -114.5 88t-36.5 94q0 47 27.5 90.5t88.5 110.5 q61 70 97 122t47 116q4 27 4 51q0 86 -55.5 142.5t-155.5 56.5q-137 0 -240.5 -93.5t-140.5 -289.5l-236 -1346q-10 -51 -35.5 -85t-56.5 -34q-53 0 -59 37q53 16 67 70q0 74 -61 74q-31 0 -54.5 -23t-29.5 -57v-11q-2 -6 -2 -12z" />
<glyph unicode="&#xe0;" horiz-adv-x="989" d="M25 279q0 -143 63.5 -228.5t173.5 -85.5q66 0 132.5 41t111.5 113q0 -66 39 -100.5t96 -34.5q55 0 98 29.5t72 77.5t47.5 103.5t28.5 110.5v6q2 2 2 4q0 29 -27 29q-35 0 -39 -39q-23 -117 -59.5 -183.5t-85.5 -66.5q-16 0 -30.5 11.5t-14.5 44.5q0 16 4 36l117 654 q0 8 -13 8q-6 0 -18 -2q-23 -4 -35 -4q-14 0 -31 4q-12 2 -18 2q-14 0 -14 -8l-21 -109q-23 70 -70 107t-108 37q-55 0 -116.5 -32t-118 -89.5t-97.5 -138t-57 -175.5q-12 -66 -12 -122zM162 213q0 76 18 188q35 186 101.5 276.5t134.5 90.5q72 0 111.5 -58.5t39.5 -168.5 q0 -64 -14 -140q-31 -172 -105.5 -269t-166.5 -97q-59 0 -89 42t-30 136zM387 1120q0 -23 14 -37q8 -8 41 -24q47 -25 91.5 -54.5t95.5 -80.5q4 -4 12 -4t16.5 7t8.5 15t-7 12q-49 49 -78.5 92.5t-54.5 90.5q-18 35 -26 41q-12 14 -37 14q-33 0 -53 -23q-23 -20 -23 -49z " />
<glyph unicode="&#xe1;" horiz-adv-x="989" d="M25 279q0 -143 63.5 -228.5t173.5 -85.5q66 0 132.5 41t111.5 113q0 -66 39 -100.5t96 -34.5q55 0 98 29.5t72 77.5t47.5 103.5t28.5 110.5v6q2 2 2 4q0 29 -27 29q-35 0 -39 -39q-23 -117 -59.5 -183.5t-85.5 -66.5q-16 0 -30.5 11.5t-14.5 44.5q0 16 4 36l117 654 q0 8 -13 8q-6 0 -18 -2q-23 -4 -35 -4q-14 0 -31 4q-12 2 -18 2q-14 0 -14 -8l-21 -109q-23 70 -70 107t-108 37q-55 0 -116.5 -32t-118 -89.5t-97.5 -138t-57 -175.5q-12 -66 -12 -122zM162 213q0 76 18 188q35 186 101.5 276.5t134.5 90.5q72 0 111.5 -58.5t39.5 -168.5 q0 -64 -14 -140q-31 -172 -105.5 -269t-166.5 -97q-59 0 -89 42t-30 136zM469 940q0 -18 18 -18q6 0 13 4q70 51 124 80.5t109 54.5q39 16 49 24q33 23 33 58q0 16 -10 28q-14 23 -45 23q-23 0 -41 -14q-10 -6 -37 -37q-43 -49 -87 -91t-116 -96q-10 -6 -10 -16z" />
<glyph unicode="&#xe2;" horiz-adv-x="989" d="M25 279q0 -143 63.5 -228.5t173.5 -85.5q66 0 132.5 41t111.5 113q0 -66 39 -100.5t96 -34.5q55 0 98 29.5t72 77.5t47.5 103.5t28.5 110.5v6q2 2 2 4q0 29 -27 29q-35 0 -39 -39q-23 -117 -59.5 -183.5t-85.5 -66.5q-16 0 -30.5 11.5t-14.5 44.5q0 16 4 36l117 654 q0 8 -13 8q-6 0 -18 -2q-23 -4 -35 -4q-14 0 -31 4q-12 2 -18 2q-14 0 -14 -8l-21 -109q-23 70 -70 107t-108 37q-55 0 -116.5 -32t-118 -89.5t-97.5 -138t-57 -175.5q-12 -66 -12 -122zM162 213q0 76 18 188q35 186 101.5 276.5t134.5 90.5q72 0 111.5 -58.5t39.5 -168.5 q0 -64 -14 -140q-31 -172 -105.5 -269t-166.5 -97q-59 0 -89 42t-30 136zM346 934q0 -12 14 -12h5q4 2 6 2l219 125l174 -125h4l2 -2q8 0 15.5 6t7.5 12v4l-2 2l-152 207q-14 18 -27 18q-12 0 -34 -18l-226 -207q-6 -6 -6 -12z" />
<glyph unicode="&#xe3;" horiz-adv-x="989" d="M25 279q0 -143 63.5 -228.5t173.5 -85.5q66 0 132.5 41t111.5 113q0 -66 39 -100.5t96 -34.5q55 0 98 29.5t72 77.5t47.5 103.5t28.5 110.5v6q2 2 2 4q0 29 -27 29q-35 0 -39 -39q-23 -117 -59.5 -183.5t-85.5 -66.5q-16 0 -30.5 11.5t-14.5 44.5q0 16 4 36l117 654 q0 8 -13 8q-6 0 -18 -2q-23 -4 -35 -4q-14 0 -31 4q-12 2 -18 2q-14 0 -14 -8l-21 -109q-23 70 -70 107t-108 37q-55 0 -116.5 -32t-118 -89.5t-97.5 -138t-57 -175.5q-12 -66 -12 -122zM162 213q0 76 18 188q35 186 101.5 276.5t134.5 90.5q72 0 111.5 -58.5t39.5 -168.5 q0 -64 -14 -140q-31 -172 -105.5 -269t-166.5 -97q-59 0 -89 42t-30 136zM352 938q0 -10 10 -10q12 0 19 10q14 35 42 59.5t50 24.5q27 0 90 -47q37 -27 59.5 -40t45.5 -13q57 0 100 48t57 134q0 14 -12 14t-16 -14q-12 -35 -39 -60.5t-56 -25.5q-33 0 -94 49 q-35 25 -57.5 38t-46.5 13q-49 0 -93 -51t-59 -129z" />
<glyph unicode="&#xe4;" horiz-adv-x="989" d="M25 279q0 -143 63.5 -228.5t173.5 -85.5q66 0 132.5 41t111.5 113q0 -66 39 -100.5t96 -34.5q55 0 98 29.5t72 77.5t47.5 103.5t28.5 110.5v6q2 2 2 4q0 29 -27 29q-35 0 -39 -39q-23 -117 -59.5 -183.5t-85.5 -66.5q-16 0 -30.5 11.5t-14.5 44.5q0 16 4 36l117 654 q0 8 -13 8q-6 0 -18 -2q-23 -4 -35 -4q-14 0 -31 4q-12 2 -18 2q-14 0 -14 -8l-21 -109q-23 70 -70 107t-108 37q-55 0 -116.5 -32t-118 -89.5t-97.5 -138t-57 -175.5q-12 -66 -12 -122zM162 213q0 76 18 188q35 186 101.5 276.5t134.5 90.5q72 0 111.5 -58.5t39.5 -168.5 q0 -64 -14 -140q-31 -172 -105.5 -269t-166.5 -97q-59 0 -89 42t-30 136zM360 991q0 -72 60 -71q31 0 56.5 21.5t29.5 49.5v8q2 2 2 7q0 25 -17.5 42t-44.5 17q-29 0 -54 -21.5t-32 -52.5zM666 991q0 -72 61 -71q31 0 55.5 21.5t28.5 49.5v8q2 2 2 7q0 25 -16 42t-43 17 q-31 0 -55.5 -21.5t-32.5 -52.5z" />
<glyph unicode="&#xe5;" horiz-adv-x="989" d="M25 279q0 -143 63.5 -228.5t173.5 -85.5q66 0 132.5 41t111.5 113q0 -66 39 -100.5t96 -34.5q55 0 98 29.5t72 77.5t47.5 103.5t28.5 110.5v6q2 2 2 4q0 29 -27 29q-35 0 -39 -39q-23 -117 -59.5 -183.5t-85.5 -66.5q-16 0 -30.5 11.5t-14.5 44.5q0 16 4 36l117 654 q0 8 -13 8q-6 0 -18 -2q-23 -4 -35 -4q-14 0 -31 4q-12 2 -18 2q-14 0 -14 -8l-21 -109q-23 70 -70 107t-108 37q-55 0 -116.5 -32t-118 -89.5t-97.5 -138t-57 -175.5q-12 -66 -12 -122zM162 213q0 76 18 188q35 186 101.5 276.5t134.5 90.5q72 0 111.5 -58.5t39.5 -168.5 q0 -64 -14 -140q-31 -172 -105.5 -269t-166.5 -97q-59 0 -89 42t-30 136zM446 1049q0 -55 35 -90t90 -35q63 0 115.5 45t65.5 108q0 4 2 13v14q0 53 -36 89t-91 36q-63 0 -115.5 -45t-62.5 -107q0 -6 -3 -14v-14zM512 1063l2 6v8q6 35 35.5 58.5t62.5 23.5q31 0 52.5 -19.5 t21.5 -47.5l-2 -9v-6q-8 -35 -37 -60.5t-63 -25.5q-31 0 -51.5 20.5t-20.5 51.5z" />
<glyph unicode="&#xe6;" horiz-adv-x="1138" d="M-27 119q0 -70 42 -108t110 -38q76 0 156.5 46t156.5 124q29 -78 89.5 -128t148.5 -50q96 0 178 46t154 165q6 10 9 20.5t3 14.5q0 31 -29 31q-23 0 -41 -35q-41 -86 -102.5 -128t-134.5 -42q-158 0 -158 221q0 43 6 92q74 6 149.5 24.5t144.5 53.5t119 91t62 132 q0 4 2 15v14q0 70 -53 113t-139 43q-61 0 -128 -29t-126 -84q-39 113 -197 113q-41 0 -86 -14.5t-84 -39t-65.5 -57.5t-32.5 -70v-8q-2 -6 -2 -10q0 -29 17.5 -48.5t45.5 -19.5q33 0 59.5 26t33.5 60q0 57 -29 74q41 45 133 45q98 0 98 -92q0 -20 -4 -45l-35 -201 q-84 0 -160.5 -16.5t-142 -49t-108.5 -86t-56 -122.5q-4 -23 -4 -43zM117 164q0 4 2 12v12q18 94 93 141.5t222 47.5q-10 -49 -10 -121q0 -41 2 -72q-78 -63 -130 -92t-95 -29q-37 0 -60.5 28t-23.5 73zM571 414q33 170 98.5 263t166.5 93q80 0 79 -92v-14q-2 -10 -2 -17 q-18 -106 -127 -170q-45 -27 -101.5 -43t-113.5 -20z" />
<glyph unicode="&#xe7;" horiz-adv-x="735" d="M23 -426q0 -12 24 -12q115 18 202 64t101 124q0 4 2 14v11q0 57 -42 88t-105 31l84 71q86 0 156.5 43t142.5 160q6 8 11 22.5t5 22.5q0 10 -6 19.5t-20 9.5q-20 0 -39 -35q-90 -170 -215 -170q-76 0 -116 50t-40 161q0 66 14 153q37 199 101.5 284t167.5 85 q51 0 87.5 -22.5t45.5 -65.5q-31 0 -58.5 -25.5t-31.5 -56.5v-8q-2 -6 -2 -8q0 -29 20 -48.5t49 -19.5q35 0 62.5 26.5t35.5 69.5q0 8 3 17v16q0 84 -66 137.5t-156 53.5q-145 0 -256.5 -120t-146.5 -315q-10 -59 -10 -116q0 -127 52 -209.5t146 -102.5l-133 -114 q-16 -14 -16 -27q0 -14 18 -14q20 4 41 4q45 0 74 -18.5t29 -53.5q-10 -53 -64.5 -95t-120.5 -58q-31 -8 -30 -23z" />
<glyph unicode="&#xe8;" horiz-adv-x="751" d="M27 295q0 -150 72.5 -240t189.5 -90q96 0 178 46t154 165q4 6 7 17.5t3 17.5q0 31 -27 31q-23 0 -41 -35q-41 -86 -103.5 -128t-135.5 -42q-156 0 -156 221q0 43 6 92q74 6 149.5 24.5t144.5 53.5t118 90t63 133q0 4 2 15v14q0 70 -53 113t-139 43q-63 0 -131 -31 t-127.5 -87t-103.5 -137t-60 -180q-10 -55 -10 -106zM184 414q33 170 98.5 263t166.5 93q37 0 58 -25.5t21 -66.5v-14q-2 -12 -2 -17q-20 -106 -119.5 -164.5t-222.5 -68.5zM360 1120q1 -23 15 -37q8 -8 41 -24q47 -25 91 -54.5t95 -80.5q4 -4 12 -4t16.5 7t8.5 15t-6 12 q-49 49 -79 92.5t-54 90.5q-18 35 -27 41q-12 14 -37 14q-33 0 -53 -23q-23 -20 -23 -49z" />
<glyph unicode="&#xe9;" horiz-adv-x="751" d="M27 295q0 -150 72.5 -240t189.5 -90q96 0 178 46t154 165q4 6 7 17.5t3 17.5q0 31 -27 31q-23 0 -41 -35q-41 -86 -103.5 -128t-135.5 -42q-156 0 -156 221q0 43 6 92q74 6 149.5 24.5t144.5 53.5t118 90t63 133q0 4 2 15v14q0 70 -53 113t-139 43q-63 0 -131 -31 t-127.5 -87t-103.5 -137t-60 -180q-10 -55 -10 -106zM184 414q33 170 98.5 263t166.5 93q37 0 58 -25.5t21 -66.5v-14q-2 -12 -2 -17q-20 -106 -119.5 -164.5t-222.5 -68.5zM406 940q0 -18 18 -18q6 0 12 4q70 51 124 80.5t110 54.5q39 16 49 24q33 23 33 58q-1 16 -11 28 q-14 23 -45 23q-23 0 -41 -14q-10 -6 -37 -37q-43 -49 -87 -91t-115 -96q-10 -6 -10 -16z" />
<glyph unicode="&#xea;" horiz-adv-x="751" d="M27 295q0 -150 72.5 -240t189.5 -90q96 0 178 46t154 165q4 6 7 17.5t3 17.5q0 31 -27 31q-23 0 -41 -35q-41 -86 -103.5 -128t-135.5 -42q-156 0 -156 221q0 43 6 92q74 6 149.5 24.5t144.5 53.5t118 90t63 133q0 4 2 15v14q0 70 -53 113t-139 43q-63 0 -131 -31 t-127.5 -87t-103.5 -137t-60 -180q-10 -55 -10 -106zM184 414q33 170 98.5 263t166.5 93q37 0 58 -25.5t21 -66.5v-14q-2 -12 -2 -17q-20 -106 -119.5 -164.5t-222.5 -68.5zM317 934q0 -12 15 -12h4q4 2 6 2l219 125l174 -125h4l2 -2q8 0 15.5 6t7.5 12v4l-2 2l-152 207 q-14 18 -26 18t-35 -18l-225 -207q-6 -6 -7 -12z" />
<glyph unicode="&#xeb;" horiz-adv-x="751" d="M27 295q0 -150 72.5 -240t189.5 -90q96 0 178 46t154 165q4 6 7 17.5t3 17.5q0 31 -27 31q-23 0 -41 -35q-41 -86 -103.5 -128t-135.5 -42q-156 0 -156 221q0 43 6 92q74 6 149.5 24.5t144.5 53.5t118 90t63 133q0 4 2 15v14q0 70 -53 113t-139 43q-63 0 -131 -31 t-127.5 -87t-103.5 -137t-60 -180q-10 -55 -10 -106zM184 414q33 170 98.5 263t166.5 93q37 0 58 -25.5t21 -66.5v-14q-2 -12 -2 -17q-20 -106 -119.5 -164.5t-222.5 -68.5zM319 991q0 -72 60 -71q31 0 56.5 21.5t29.5 49.5v8q2 2 2 7q0 25 -17 42t-44 17q-29 0 -54.5 -21.5 t-32.5 -52.5zM625 991q0 -72 61 -71q31 0 55.5 21.5t28.5 49.5v8q2 2 2 7q0 25 -16 42t-43 17q-31 0 -55.5 -21.5t-32.5 -52.5z" />
<glyph unicode="&#xec;" horiz-adv-x="546" d="M12 760q0 -27 25 -27q6 0 20 2q23 2 44.5 3t68.5 1l-102 -589q-4 -18 -5 -37q0 -61 39 -95t95 -34q55 0 98 29.5t72.5 78.5t48 103.5t28.5 109.5q0 39 -26 39q-31 0 -39 -39q-20 -117 -58 -183.5t-88 -66.5q-18 0 -31.5 11.5t-13.5 46.5q1 14 5 34l110 627q0 37 -22 37 q-6 0 -37 -4q-45 -4 -64 -4q-66 0 -110 2h-21q-31 0 -35 -35v-6q-2 -2 -2 -4zM135 1120q1 -23 15 -37q8 -8 40 -24q47 -25 91.5 -54.5t95.5 -80.5q4 -4 12 -4t16.5 7t8.5 15t-6 12q-49 49 -79 92.5t-55 90.5q-18 35 -26 41q-12 14 -37 14q-33 0 -53 -23q-23 -20 -23 -49z " />
<glyph unicode="&#xed;" horiz-adv-x="546" d="M12 760q0 -27 25 -27q6 0 20 2q23 2 44.5 3t68.5 1l-102 -589q-4 -18 -5 -37q0 -61 39 -95t95 -34q55 0 98 29.5t72.5 78.5t48 103.5t28.5 109.5q0 39 -26 39q-31 0 -39 -39q-20 -117 -58 -183.5t-88 -66.5q-18 0 -31.5 11.5t-13.5 46.5q1 14 5 34l110 627q0 37 -22 37 q-6 0 -37 -4q-45 -4 -64 -4q-66 0 -110 2h-21q-31 0 -35 -35v-6q-2 -2 -2 -4zM217 940q0 -18 19 -18q6 0 12 4q70 51 124 80.5t109 54.5q39 16 49 24q33 23 33 58q0 16 -10 28q-14 23 -45 23q-23 0 -41 -14q-10 -6 -37 -37q-43 -49 -87 -91t-116 -96q-10 -6 -10 -16z" />
<glyph unicode="&#xee;" horiz-adv-x="546" d="M12 760q0 -27 25 -27q6 0 20 2q23 2 44.5 3t68.5 1l-102 -589q-4 -18 -5 -37q0 -61 39 -95t95 -34q55 0 98 29.5t72.5 78.5t48 103.5t28.5 109.5q0 39 -26 39q-31 0 -39 -39q-20 -117 -58 -183.5t-88 -66.5q-18 0 -31.5 11.5t-13.5 46.5q1 14 5 34l110 627q0 37 -22 37 q-6 0 -37 -4q-45 -4 -64 -4q-66 0 -110 2h-21q-31 0 -35 -35v-6q-2 -2 -2 -4zM72 932q0 -12 14 -12h4q4 2 6 2l219 125l174 -125h5l2 -2q8 0 15 6t7 12v4l-2 2l-151 207q-14 18 -27 18q-12 0 -35 -18l-225 -207q-6 -6 -6 -12z" />
<glyph unicode="&#xef;" horiz-adv-x="546" d="M12 760q0 -27 25 -27q6 0 20 2q23 2 44.5 3t68.5 1l-102 -589q-4 -18 -5 -37q0 -61 39 -95t95 -34q55 0 98 29.5t72.5 78.5t48 103.5t28.5 109.5q0 39 -26 39q-31 0 -39 -39q-20 -117 -58 -183.5t-88 -66.5q-18 0 -31.5 11.5t-13.5 46.5q1 14 5 34l110 627q0 37 -22 37 q-6 0 -37 -4q-45 -4 -64 -4q-66 0 -110 2h-21q-31 0 -35 -35v-6q-2 -2 -2 -4zM115 991q0 -72 59 -71q31 0 56.5 21.5t29.5 49.5v8q2 2 2 7q0 25 -17 42t-44 17q-29 0 -54.5 -21.5t-31.5 -52.5zM420 991q0 -72 61 -71q31 0 55.5 21.5t28.5 49.5v8q2 2 2 7q0 25 -16 42t-43 17 q-31 0 -55.5 -21.5t-32.5 -52.5z" />
<glyph unicode="&#xf0;" horiz-adv-x="950" d="M39 270q0 -133 80 -219t215 -86q70 0 141.5 25.5t137 85t118.5 166t80 258.5q12 70 12 141q0 137 -39 271.5t-110 236.5q43 23 65.5 32t51.5 19l24 12q25 12 25 39q0 10 -4 21q-8 25 -31 24q-10 0 -21 -6q-8 -4 -22 -12q-25 -16 -49.5 -29.5t-81.5 -44.5 q-113 127 -260 152q-51 0 -52 -33q0 -29 37 -35q115 -18 187 -131q-61 -33 -90 -45t-47 -20q-14 -6 -23 -11q-27 -14 -27 -45v-8q2 -6 2 -8q12 -25 35 -25q10 0 21 6q4 2 16 11q23 14 53.5 31.5t96.5 52.5q88 -176 88 -486q-33 57 -88.5 90t-141.5 33q-139 0 -249.5 -100.5 t-141.5 -282.5q-8 -41 -8 -80zM180 223q1 55 13 129q27 145 91 230.5t158 85.5q102 0 156.5 -59.5t54.5 -149.5q0 -29 -6 -58q-31 -170 -103.5 -269t-197.5 -99q-90 0 -128 50t-38 140z" />
<glyph unicode="&#xf1;" horiz-adv-x="1030" d="M12 760q0 -27 25 -27q6 0 20 2q23 2 44.5 3t68.5 1l-131 -735q0 -10 12 -10q6 0 19 2q20 4 34 4q12 0 31 -4q10 -2 19 -2q14 0 14 10l63 358q14 76 47 147t79 125t96.5 85t95.5 31q88 0 88 -91q0 -27 -8 -65l-78 -444q-4 -18 -4 -37q0 -61 39 -95t96 -34q55 0 98 29.5 t72 77.5t47.5 103.5t28.5 110.5v6q2 2 2 4q0 29 -27 29q-35 0 -39 -39q-23 -117 -59.5 -183.5t-85.5 -66.5q-18 0 -31.5 11.5t-13.5 44.5q0 16 4 36l67 385q10 53 11 99q0 96 -44 150.5t-137 54.5q-43 0 -87 -19.5t-86 -53.5t-74.5 -76t-55.5 -83l31 170q0 37 -22 37 q-6 0 -37 -4q-45 -4 -64 -4q-66 0 -110 2h-21q-31 0 -35 -35v-6q-2 -2 -2 -4zM356 938q0 -10 11 -10q12 0 18 10q14 35 42 59.5t50 24.5q27 0 90 -47q37 -27 59.5 -40t45.5 -13q57 0 100 48t57 134q0 14 -12 14t-16 -14q-12 -35 -38.5 -60.5t-55.5 -25.5q-33 0 -95 49 q-35 25 -57.5 38t-46.5 13q-49 0 -93 -51t-59 -129z" />
<glyph unicode="&#xf2;" d="M27 297q0 -150 76.5 -241t197.5 -91q70 0 137.5 31t126 90t98.5 140t56 175q10 53 10 105q0 150 -77 240t-197 90q-70 0 -137.5 -31t-125 -89.5t-98.5 -138t-57 -176.5q-10 -53 -10 -104zM162 223q0 72 18 178q37 201 98.5 285t165.5 84q76 0 112 -44t36 -144 q-1 -72 -19 -181q-35 -201 -95 -284.5t-165 -83.5q-78 0 -114.5 45t-36.5 145zM342 1120q0 -23 14 -37q8 -8 41 -24q47 -25 91 -54.5t96 -80.5q4 -4 12 -4t16.5 7t8.5 15t-7 12q-49 49 -78.5 92.5t-54.5 90.5q-18 35 -26 41q-12 14 -37 14q-33 0 -53 -23q-23 -20 -23 -49z " />
<glyph unicode="&#xf3;" d="M27 297q0 -150 76.5 -241t197.5 -91q70 0 137.5 31t126 90t98.5 140t56 175q10 53 10 105q0 150 -77 240t-197 90q-70 0 -137.5 -31t-125 -89.5t-98.5 -138t-57 -176.5q-10 -53 -10 -104zM162 223q0 72 18 178q37 201 98.5 285t165.5 84q76 0 112 -44t36 -144 q-1 -72 -19 -181q-35 -201 -95 -284.5t-165 -83.5q-78 0 -114.5 45t-36.5 145zM446 940q0 -18 19 -18q6 0 12 4q70 51 124 80.5t110 54.5q39 16 49 24q33 23 33 58q-1 16 -11 28q-14 23 -45 23q-23 0 -41 -14q-10 -6 -37 -37q-43 -49 -87 -91t-115 -96q-10 -6 -11 -16z" />
<glyph unicode="&#xf4;" d="M27 297q0 -150 76.5 -241t197.5 -91q70 0 137.5 31t126 90t98.5 140t56 175q10 53 10 105q0 150 -77 240t-197 90q-70 0 -137.5 -31t-125 -89.5t-98.5 -138t-57 -176.5q-10 -53 -10 -104zM162 223q0 72 18 178q37 201 98.5 285t165.5 84q76 0 112 -44t36 -144 q-1 -72 -19 -181q-35 -201 -95 -284.5t-165 -83.5q-78 0 -114.5 45t-36.5 145zM326 934q0 -12 14 -12h4q4 2 6 2l219 125l174 -125h5l2 -2q8 0 15 6t7 12v4l-2 2l-152 207q-14 18 -26 18t-35 -18l-225 -207q-6 -6 -6 -12z" />
<glyph unicode="&#xf5;" d="M27 297q0 -150 76.5 -241t197.5 -91q70 0 137.5 31t126 90t98.5 140t56 175q10 53 10 105q0 150 -77 240t-197 90q-70 0 -137.5 -31t-125 -89.5t-98.5 -138t-57 -176.5q-10 -53 -10 -104zM162 223q0 72 18 178q37 201 98.5 285t165.5 84q76 0 112 -44t36 -144 q-1 -72 -19 -181q-35 -201 -95 -284.5t-165 -83.5q-78 0 -114.5 45t-36.5 145zM301 938q0 -10 10 -10q12 0 19 10q14 35 41.5 59.5t50.5 24.5q27 0 90 -47q37 -27 59.5 -40t44.5 -13q57 0 100.5 48t57.5 134q0 14 -12 14t-17 -14q-12 -35 -38.5 -60.5t-55.5 -25.5 q-33 0 -94 49q-35 25 -57.5 38t-46.5 13q-49 0 -93.5 -51t-58.5 -129z" />
<glyph unicode="&#xf6;" d="M27 297q0 -150 76.5 -241t197.5 -91q70 0 137.5 31t126 90t98.5 140t56 175q10 53 10 105q0 150 -77 240t-197 90q-70 0 -137.5 -31t-125 -89.5t-98.5 -138t-57 -176.5q-10 -53 -10 -104zM162 223q0 72 18 178q37 201 98.5 285t165.5 84q76 0 112 -44t36 -144 q-1 -72 -19 -181q-35 -201 -95 -284.5t-165 -83.5q-78 0 -114.5 45t-36.5 145zM315 991q0 -72 60 -71q31 0 56.5 21.5t29.5 49.5v8q2 2 2 7q0 25 -17.5 42t-44.5 17q-29 0 -54 -21.5t-32 -52.5zM621 991q0 -72 61 -71q31 0 55.5 21.5t28.5 49.5v8q2 2 2 7q0 25 -16 42 t-43 17q-31 0 -55.5 -21.5t-32.5 -52.5z" />
<glyph unicode="&#xf7;" horiz-adv-x="937" d="M72 500q0 -35 32 -35q4 0 25 2q27 2 73 4t124 2h219q78 0 122 -2t72 -4q16 -2 25 -2q37 0 47 45q0 47 -33 47q-8 0 -24 -2q-27 -2 -73 -4t-122 -2h-219q-76 0 -122 2t-75 4q-14 2 -24 2q-14 0 -28.5 -13.5t-16.5 -33.5v-6zM305 213q0 -31 20.5 -51.5t51.5 -20.5 q37 0 67.5 26.5t36.5 63.5v9l2 6q0 31 -21.5 52t-53.5 21q-35 0 -66 -26.5t-35 -61.5v-8q-2 -6 -2 -10zM403 774q0 -31 21.5 -51.5t52.5 -20.5q35 0 66 27t37 64q0 2 2 8v8q0 31 -21.5 51.5t-52.5 20.5q-37 0 -66.5 -27t-35.5 -61v-9q-2 -6 -3 -10z" />
<glyph unicode="&#xf8;" d="M8 -39q0 -20 19 -29q10 -10 24 -10q20 0 37 19q4 6 18 26q29 47 33 53q68 -55 162 -55q70 0 137.5 31t126 90t98 140t56.5 175q10 55 10 105q0 127 -59 217q27 33 51 61l12 13q8 12 8 24q0 20 -18 35q-10 6 -23 6q-25 0 -38 -18q-2 -4 -17 -25q-8 -14 -27 -41 q-70 57 -163 58q-70 0 -137.5 -31t-125 -89.5t-98.5 -138t-57 -176.5q-8 -53 -8 -102q0 -133 59 -223q-18 -25 -45 -56q-23 -27 -27 -34q-8 -10 -8 -25zM164 195v30q0 76 16 176q37 201 98.5 285t165.5 84q90 0 125 -61q-10 -10 -37 -50l-8 -10l-356 -475v-2q-2 0 -2 -2 q0 8 -2 25zM190 88q14 23 35 49l359 473q0 2 4 6l2 5q0 -8 2 -21v-25q0 -70 -19 -174q-35 -201 -95 -284.5t-165 -83.5q-90 0 -123 55z" />
<glyph unicode="&#xf9;" horiz-adv-x="1003" d="M12 760q0 -27 25 -27q6 0 20 2q23 2 44.5 3t68.5 1l-82 -467q-10 -59 -10 -106q0 -94 40 -145.5t126 -51.5q41 0 83 20.5t82 54.5t71.5 75t51.5 82l-8 -51q-4 -18 -4 -37q0 -61 39 -95t94 -34t98.5 29.5t73 78.5t48 103.5t28.5 109.5v6q2 2 2 4q0 29 -26 29 q-33 0 -41 -39q-20 -117 -58.5 -183.5t-85.5 -66.5q-18 0 -31.5 10.5t-13.5 45.5q0 16 4 36l115 652q0 10 -12 10q-6 0 -17 -2q-20 -4 -35 -4q-14 0 -30 4q-12 2 -21 2q-8 0 -12 -10l-64 -357q-14 -74 -45.5 -145.5t-74.5 -127.5t-90.5 -89t-88.5 -33q-80 0 -79 88 q0 29 6 68l100 571q0 37 -22 37q-6 0 -37 -4q-45 -4 -64 -4q-66 0 -110 2h-21q-31 0 -35 -35v-6q-2 -2 -2 -4zM332 1124q0 -23 14 -37q8 -8 41 -24q47 -25 91 -54.5t95 -80.5q4 -4 13 -4q8 0 16 7t8 15t-6 12q-49 49 -78.5 92.5t-54.5 90.5q-18 35 -27 41q-12 14 -36 14 q-33 0 -54 -22q-23 -20 -22 -50z" />
<glyph unicode="&#xfa;" horiz-adv-x="1003" d="M12 760q0 -27 25 -27q6 0 20 2q23 2 44.5 3t68.5 1l-82 -467q-10 -59 -10 -106q0 -94 40 -145.5t126 -51.5q41 0 83 20.5t82 54.5t71.5 75t51.5 82l-8 -51q-4 -18 -4 -37q0 -61 39 -95t94 -34t98.5 29.5t73 78.5t48 103.5t28.5 109.5v6q2 2 2 4q0 29 -26 29 q-33 0 -41 -39q-20 -117 -58.5 -183.5t-85.5 -66.5q-18 0 -31.5 10.5t-13.5 45.5q0 16 4 36l115 652q0 10 -12 10q-6 0 -17 -2q-20 -4 -35 -4q-14 0 -30 4q-12 2 -21 2q-8 0 -12 -10l-64 -357q-14 -74 -45.5 -145.5t-74.5 -127.5t-90.5 -89t-88.5 -33q-80 0 -79 88 q0 29 6 68l100 571q0 37 -22 37q-6 0 -37 -4q-45 -4 -64 -4q-66 0 -110 2h-21q-31 0 -35 -35v-6q-2 -2 -2 -4zM467 938q0 -18 18 -18q6 0 13 4q70 51 124 80.5t109 54.5q39 16 49 24q33 23 33 58q0 16 -10 28q-14 23 -45 23q-23 0 -41 -14q-10 -6 -37 -37q-43 -49 -87 -91 t-116 -96q-10 -6 -10 -16z" />
<glyph unicode="&#xfb;" horiz-adv-x="1003" d="M12 760q0 -27 25 -27q6 0 20 2q23 2 44.5 3t68.5 1l-82 -467q-10 -59 -10 -106q0 -94 40 -145.5t126 -51.5q41 0 83 20.5t82 54.5t71.5 75t51.5 82l-8 -51q-4 -18 -4 -37q0 -61 39 -95t94 -34t98.5 29.5t73 78.5t48 103.5t28.5 109.5v6q2 2 2 4q0 29 -26 29 q-33 0 -41 -39q-20 -117 -58.5 -183.5t-85.5 -66.5q-18 0 -31.5 10.5t-13.5 45.5q0 16 4 36l115 652q0 10 -12 10q-6 0 -17 -2q-20 -4 -35 -4q-14 0 -30 4q-12 2 -21 2q-8 0 -12 -10l-64 -357q-14 -74 -45.5 -145.5t-74.5 -127.5t-90.5 -89t-88.5 -33q-80 0 -79 88 q0 29 6 68l100 571q0 37 -22 37q-6 0 -37 -4q-45 -4 -64 -4q-66 0 -110 2h-21q-31 0 -35 -35v-6q-2 -2 -2 -4zM309 934q0 -12 15 -12h4q4 2 6 2l219 125l174 -125h4l2 -2q8 0 15.5 6t7.5 12v4l-2 2l-152 207q-14 18 -27 18q-12 0 -34 -18l-226 -207q-6 -6 -6 -12z" />
<glyph unicode="&#xfc;" horiz-adv-x="1003" d="M12 760q0 -27 25 -27q6 0 20 2q23 2 44.5 3t68.5 1l-82 -467q-10 -59 -10 -106q0 -94 40 -145.5t126 -51.5q41 0 83 20.5t82 54.5t71.5 75t51.5 82l-8 -51q-4 -18 -4 -37q0 -61 39 -95t94 -34t98.5 29.5t73 78.5t48 103.5t28.5 109.5v6q2 2 2 4q0 29 -26 29 q-33 0 -41 -39q-20 -117 -58.5 -183.5t-85.5 -66.5q-18 0 -31.5 10.5t-13.5 45.5q0 16 4 36l115 652q0 10 -12 10q-6 0 -17 -2q-20 -4 -35 -4q-14 0 -30 4q-12 2 -21 2q-8 0 -12 -10l-64 -357q-14 -74 -45.5 -145.5t-74.5 -127.5t-90.5 -89t-88.5 -33q-80 0 -79 88 q0 29 6 68l100 571q0 37 -22 37q-6 0 -37 -4q-45 -4 -64 -4q-66 0 -110 2h-21q-31 0 -35 -35v-6q-2 -2 -2 -4zM330 991q0 -72 59 -71q31 0 56.5 21.5t29.5 49.5v8q2 2 2 7q0 25 -17 42t-44 17q-29 0 -54.5 -21.5t-31.5 -52.5zM635 991q0 -72 61 -71q31 0 55.5 21.5 t28.5 49.5v8q2 2 2 7q0 25 -16 42t-43 17q-31 0 -55.5 -21.5t-32.5 -52.5z" />
<glyph unicode="&#xfd;" d="M-203 -469q0 -31 22.5 -54.5t61.5 -23.5q88 0 179.5 92.5t170.5 245.5l422 834q23 41 40.5 61.5t37.5 28.5q0 -27 18.5 -47.5t45.5 -20.5q33 0 58.5 22.5t33.5 53.5q0 41 -20.5 66.5t-61.5 25.5q-63 0 -115.5 -50t-91.5 -128l-213 -418v432q0 88 -42 128t-110 40 q-55 0 -97 -29.5t-72.5 -77.5t-49 -103.5t-28.5 -110.5q0 -41 26 -41q31 0 39 41q20 117 58 183.5t88 66.5q25 0 41 -19.5t16 -73.5v-692l-74 -143q-20 -47 -50 -94.5t-62.5 -88t-63.5 -66.5t-51 -30q0 4 2 8v11q0 25 -19.5 44t-44.5 19q-33 0 -59.5 -22.5t-32.5 -55.5v-8 q-2 -4 -2 -6zM498 956q0 -18 18 -18q6 0 12 4q70 51 124.5 81t109.5 54q39 16 49 25q33 23 33 57q0 17 -10 29q-14 23 -46 22q-23 0 -40 -14q-10 -6 -37 -37q-43 -49 -87 -91t-116 -95q-10 -6 -10 -17z" />
<glyph unicode="&#xfe;" horiz-adv-x="933" d="M-35 29q0 -35 27 -35q6 0 18 2q23 2 63 5t120 3q76 0 111.5 -2t66.5 -6q12 -2 20 -2q29 0 35 35q0 37 -20 37h-21q-47 -2 -104 -3l38 234h125q195 0 319 105.5t155 279.5q8 45 8 88q0 139 -88 217t-258 78q-86 0 -123 -2l30 188q68 0 113 -2h21q27 0 36 37q0 35 -26 35 q-6 0 -17 -2q-25 -2 -63.5 -5t-120.5 -3h-8q-82 0 -120 3t-62 5q-10 2 -17 2q-12 0 -22.5 -10.5t-12.5 -24.5v-6q-2 -2 -2 -4q0 -27 25 -27h20q45 2 113 2l-209 -1188q-66 0 -110 3h-21q-29 0 -39 -37zM334 373l108 616h125q109 0 157 -41t48 -137q0 -53 -14 -129 q-31 -174 -96.5 -241.5t-204.5 -67.5h-123z" />
<glyph unicode="&#xff;" d="M-203 -469q0 -31 22.5 -54.5t61.5 -23.5q88 0 179.5 92.5t170.5 245.5l422 834q23 41 40.5 61.5t37.5 28.5q0 -27 18.5 -47.5t45.5 -20.5q33 0 58.5 22.5t33.5 53.5q0 41 -20.5 66.5t-61.5 25.5q-63 0 -115.5 -50t-91.5 -128l-213 -418v432q0 88 -42 128t-110 40 q-55 0 -97 -29.5t-72.5 -77.5t-49 -103.5t-28.5 -110.5q0 -41 26 -41q31 0 39 41q20 117 58 183.5t88 66.5q25 0 41 -19.5t16 -73.5v-692l-74 -143q-20 -47 -50 -94.5t-62.5 -88t-63.5 -66.5t-51 -30q0 4 2 8v11q0 25 -19.5 44t-44.5 19q-33 0 -59.5 -22.5t-32.5 -55.5v-8 q-2 -4 -2 -6zM383 997q0 -72 59 -71q31 0 56.5 21.5t29.5 49.5v9q2 2 2 6q0 25 -17 42t-44 17q-29 0 -54.5 -21.5t-31.5 -52.5zM688 997q0 -72 62 -71q31 0 55 21.5t29 49.5v9q2 2 2 6q0 25 -16.5 42t-43.5 17q-31 0 -55.5 -21.5t-32.5 -52.5z" />
<glyph unicode="&#x152;" horiz-adv-x="1552" d="M72 492q0 -223 107.5 -359.5t279.5 -136.5q72 0 198 6q64 2 91 2q51 0 233 -2q188 -2 250 -2q16 0 63 -4q33 -4 37 -4q29 0 35 35l10 63q6 37 16.5 86t28.5 125q8 35 9 37q0 31 -25 31q-33 0 -37 -31q-23 -127 -72 -194.5t-125 -67.5h-342l101 573h180q76 0 76 -100 q0 -27 -6 -57v-5q-2 -2 -2 -4q0 -23 20 -22q25 0 29 31q2 10 4 32q10 70 24 162q12 63 21.5 109.5t15.5 70.5q2 4 4 15q0 31 -20 30q-20 0 -29 -30q-29 -158 -125 -158h-178l90 516h295q117 0 117 -156q0 -47 -10 -106q0 -31 24 -31q27 0 35 31q2 8 10 70q6 59 12.5 102 t12.5 76l12 61q0 37 -20 37q-8 0 -41 -4q-47 -4 -64 -4q-59 0 -223 -2q-162 -2 -217 -2q-45 0 -117 2q-100 4 -168 4q-98 0 -196.5 -47t-181.5 -135t-142 -210t-86 -268q-14 -86 -14 -165zM225 391q0 111 27 266q57 317 159.5 449.5t266.5 132.5q82 0 136.5 -1t72.5 -3 l-203 -1155q-23 0 -80 -2t-131 -2q-123 0 -185.5 73.5t-62.5 241.5z" />
<glyph unicode="&#x153;" horiz-adv-x="1288" d="M27 297q0 -150 76.5 -241t197.5 -91q80 0 158 42t139 118q33 -76 92.5 -118t134.5 -42q96 0 178 46t154 165q4 6 8 17.5t4 17.5q0 31 -26 31q-23 0 -41 -35q-43 -86 -104.5 -128t-135.5 -42q-156 0 -155 217q0 45 6 96q74 6 149.5 24.5t144 53.5t118 91t61.5 132 q0 4 2 15v14q0 70 -52.5 113t-138.5 43q-76 0 -157 -43t-144 -121q-35 78 -97 121t-144 43q-70 0 -137.5 -31t-125 -89.5t-98.5 -138t-57 -176.5q-10 -53 -10 -104zM162 223q0 72 18 178q37 201 98.5 285t165.5 84q76 0 112 -44t36 -144q-1 -72 -19 -181 q-35 -201 -95 -284.5t-165 -83.5q-78 0 -114.5 45t-36.5 145zM723 414q33 170 98.5 263t165.5 93q78 0 78 -92v-14q-2 -8 -2 -17q-18 -106 -116.5 -164.5t-223.5 -68.5z" />
<glyph unicode="&#x178;" horiz-adv-x="899" d="M18 1286q0 -37 25 -37h20q43 2 107 2l201 -673l-88 -515q-68 0 -113 3h-20q-27 0 -37 -37q0 -35 26 -35q6 0 17 2q25 2 63.5 5t120.5 3h8q82 0 120 -3t62 -5q10 -2 17 -2q33 0 35 35v6q2 2 2 4q0 27 -25 27h-20q-45 -2 -113 -3l98 564l408 624q51 0 94 -2h25q27 0 36 37 q0 35 -26 35q-6 0 -17 -2q-23 -2 -54.5 -4t-98.5 -4q-63 0 -96 3t-56 5q-10 2 -16 2q-31 0 -37 -35q0 -37 25 -37h22q53 2 121 2l-365 -563l-165 563q61 0 106 -2h21q31 0 36 37q0 35 -24 35q-6 0 -17 -2q-25 -2 -64.5 -5t-119.5 -3h-10q-80 0 -118 3t-62 5q-10 2 -17 2 q-31 0 -37 -35zM467 1507q0 -72 59 -71q31 0 56.5 21.5t29.5 49.5v9q2 2 2 6q0 25 -17 42t-44 17q-29 0 -54.5 -21.5t-31.5 -52.5zM772 1507q0 -72 62 -71q31 0 55 21.5t29 49.5v9q2 2 2 6q0 25 -16.5 42t-43.5 17q-31 0 -55.5 -21.5t-32.5 -52.5z" />
<glyph unicode="&#x2c6;" horiz-adv-x="630" d="M268 1184q0 -12 15 -13h4l6 3l219 124l174 -124h4q2 -2 2 -3q8 0 15.5 6.5t7.5 12.5v4l-2 2l-152 207q-14 18 -26 18t-35 -18l-226 -207q-6 -6 -6 -12z" />
<glyph unicode="&#x2dc;" horiz-adv-x="552" d="M274 1247q0 -10 11 -10q12 0 18 10q14 35 42 59.5t50 24.5q27 0 90 -47q37 -27 59.5 -40t45.5 -13q57 0 100 48t58 134q0 14 -13 14q-12 0 -16 -14q-12 -35 -38.5 -60.5t-55.5 -25.5q-33 0 -95 49q-35 25 -57 38t-47 13q-49 0 -93 -51t-59 -129z" />
<glyph unicode="&#x2000;" horiz-adv-x="869" />
<glyph unicode="&#x2001;" horiz-adv-x="1739" />
<glyph unicode="&#x2002;" horiz-adv-x="869" />
<glyph unicode="&#x2003;" horiz-adv-x="1739" />
<glyph unicode="&#x2004;" horiz-adv-x="579" />
<glyph unicode="&#x2005;" horiz-adv-x="434" />
<glyph unicode="&#x2006;" horiz-adv-x="289" />
<glyph unicode="&#x2007;" horiz-adv-x="289" />
<glyph unicode="&#x2008;" horiz-adv-x="217" />
<glyph unicode="&#x2009;" horiz-adv-x="347" />
<glyph unicode="&#x200a;" horiz-adv-x="96" />
<glyph unicode="&#x2010;" horiz-adv-x="835" d="M137 498q0 -33 33 -33q8 0 23 2q27 2 68.5 4t113.5 2h14q72 0 113 -2t65 -4q14 -2 23 -2q39 0 49 45q0 47 -33 47q-8 0 -22 -2q-27 -2 -68 -4t-113 -2h-16q-70 0 -112 2t-68 4q-14 2 -23 2q-14 0 -28.5 -13.5t-16.5 -33.5v-6z" />
<glyph unicode="&#x2011;" horiz-adv-x="835" d="M137 498q0 -33 33 -33q8 0 23 2q27 2 68.5 4t113.5 2h14q72 0 113 -2t65 -4q14 -2 23 -2q39 0 49 45q0 47 -33 47q-8 0 -22 -2q-27 -2 -68 -4t-113 -2h-16q-70 0 -112 2t-68 4q-14 2 -23 2q-14 0 -28.5 -13.5t-16.5 -33.5v-6z" />
<glyph unicode="&#x2012;" horiz-adv-x="835" d="M137 498q0 -33 33 -33q8 0 23 2q27 2 68.5 4t113.5 2h14q72 0 113 -2t65 -4q14 -2 23 -2q39 0 49 45q0 47 -33 47q-8 0 -22 -2q-27 -2 -68 -4t-113 -2h-16q-70 0 -112 2t-68 4q-14 2 -23 2q-14 0 -28.5 -13.5t-16.5 -33.5v-6z" />
<glyph unicode="&#x2013;" horiz-adv-x="1075" d="M-2 473h1077v76h-1077v-76z" />
<glyph unicode="&#x2014;" horiz-adv-x="1366" d="M-2 473h1368v76h-1368v-76z" />
<glyph unicode="&#x2018;" horiz-adv-x="481" d="M227 1159q0 -43 15.5 -89t52.5 -105q6 -10 16 -11q18 0 19 21q0 8 -6 20q-41 72 -41 144q0 49 18 80v-7q-2 -4 -2 -8q0 -23 17.5 -38t43.5 -15q33 0 62 25.5t35 56.5q0 4 2 10v10q0 76 -84 76q-55 0 -94 -37t-50 -88q-4 -25 -4 -45z" />
<glyph unicode="&#x2019;" horiz-adv-x="481" d="M213 1233q0 -35 20.5 -58.5t49.5 -23.5q31 0 54 19.5t28 48.5v-7q2 -4 2 -8q0 -37 -28 -93t-79 -114q-14 -16 -14 -28t16 -13q12 0 21 9q72 76 103.5 130t39.5 109q0 4 2 13v14q0 41 -25.5 69.5t-72.5 28.5t-78 -27.5t-39 -68.5z" />
<glyph unicode="&#x201a;" horiz-adv-x="598" d="M25 55q0 -29 21.5 -51t51.5 -22q31 0 56.5 20.5t31.5 50.5v-6q2 -4 2 -8q0 -41 -29.5 -101.5t-82.5 -119.5q-16 -16 -17 -29q0 -14 19 -14q10 0 20 8q74 78 109 137.5t45 116.5q0 2 2 12v12q0 45 -26.5 77t-77.5 32t-83 -28.5t-40 -73.5v-7q-2 -4 -2 -6z" />
<glyph unicode="&#x201c;" horiz-adv-x="821" d="M227 1159q0 -43 15.5 -89t52.5 -105q6 -10 16 -11q18 0 19 21q0 8 -6 20q-41 72 -41 144q0 49 18 80v-7q-2 -4 -2 -8q0 -23 17.5 -38t43.5 -15q33 0 62 25.5t35 56.5q0 4 2 10v10q0 76 -84 76q-55 0 -94 -37t-50 -88q-4 -25 -4 -45zM573 1157q0 -43 16.5 -89t51.5 -103 q6 -10 16 -11q16 0 17 21q0 8 -6 20q-39 72 -39 146q0 47 16 78v-7v-6q0 -55 60 -55q33 0 62.5 25.5t33.5 56.5q0 4 2 10v12q0 74 -84 74q-55 0 -93 -37t-48 -88q-4 -27 -5 -47z" />
<glyph unicode="&#x201d;" horiz-adv-x="821" d="M213 1233q0 -35 20.5 -58.5t49.5 -23.5q31 0 54 19.5t28 48.5v-7q2 -4 2 -8q0 -37 -28 -93.5t-79 -113.5q-14 -16 -14 -28t16 -13q12 0 21 9q72 76 103.5 130t39.5 109q0 4 2 13v14q0 41 -25.5 69.5t-72.5 28.5t-78 -27.5t-39 -68.5zM557 1221q0 -29 20.5 -49.5 t49.5 -20.5q31 0 54.5 19.5t29.5 48.5q0 -45 -27 -104t-80 -118q-14 -16 -14 -28t16 -13q12 0 21 9q72 76 103.5 130t41.5 109q0 4 2 13v14q0 41 -25.5 69.5t-74.5 28.5q-45 0 -76 -27.5t-39 -68.5v-6q-2 -4 -2 -6z" />
<glyph unicode="&#x201e;" horiz-adv-x="856" d="M12 68q0 -37 20.5 -61.5t51.5 -24.5q33 0 57.5 20.5t30.5 50.5v-6q2 -4 2 -8q0 -43 -29 -102.5t-84 -118.5q-14 -16 -14 -29q0 -14 16 -14q10 0 21 8q74 78 107.5 136t46.5 118q0 2 2 12v14q0 45 -26 76t-77 31t-84 -28.5t-41 -73.5zM356 68q0 -37 20.5 -61.5t51.5 -24.5 t56.5 20.5t33.5 50.5v-6q2 -4 2 -8q0 -41 -29.5 -101.5t-84.5 -119.5q-14 -16 -15 -29q0 -14 17 -14q10 0 20 8q76 78 109.5 137.5t44.5 116.5q0 2 2 12v14q0 45 -26 76t-77 31t-83.5 -28.5t-41.5 -73.5z" />
<glyph unicode="&#x2022;" horiz-adv-x="552" d="M88 492q0 -57 37 -94.5t96 -37.5q66 0 119 46.5t66 111.5q0 4 2 14v13q0 55 -36.5 92t-95.5 37q-66 0 -120 -46t-66 -110q0 -4 -2 -14v-12z" />
<glyph unicode="&#x2026;" horiz-adv-x="1726" d="M74 63q0 -35 23.5 -57t58.5 -22q41 0 74.5 28.5t39.5 65.5v8q2 6 2 8q0 35 -23.5 58.5t-58.5 23.5q-41 0 -73.5 -28.5t-40.5 -69.5v-8q-2 -2 -2 -7zM649 61q0 -33 23.5 -55t58.5 -22q41 0 74 27.5t41 66.5v8q2 6 2 8q0 35 -24.5 58.5t-59.5 23.5q-39 0 -72 -28.5 t-41 -69.5v-8q-2 -6 -2 -9zM1223 63q0 -33 24.5 -56t59.5 -23q39 0 72.5 27.5t39.5 66.5v8q2 6 2 10q0 33 -23.5 56.5t-58.5 23.5q-41 0 -73.5 -28.5t-40.5 -69.5v-6q-2 -4 -2 -9z" />
<glyph unicode="&#x202f;" horiz-adv-x="347" />
<glyph unicode="&#x2039;" horiz-adv-x="989" d="M172 545q0 -14 16 -27l523 -416q14 -10 28 -10q20 0 21 19q-1 14 -15 28l-368 410l514 409q20 16 20 31q0 14 -16 15q-12 0 -29 -11l-667 -415q-27 -16 -27 -33z" />
<glyph unicode="&#x203a;" horiz-adv-x="989" d="M29 104q0 -12 16 -12q14 0 33 10l670 416q27 16 26 33q0 14 -16 27l-522 415q-12 10 -25 11q-23 0 -23 -23q0 -10 11 -23l370 -409l-516 -410q-25 -18 -24 -35z" />
<glyph unicode="&#x205f;" horiz-adv-x="434" />
<glyph unicode="&#x2122;" horiz-adv-x="1712" d="M135 1112q0 -25 23 -25q29 0 32 25q14 88 46 119t104 31h66l-97 -551q-53 0 -88 2h-18q-25 0 -29 -31q0 -29 19 -29q4 0 16 2q18 2 50 4.5t97 2.5h9q66 0 96.5 -2.5t48.5 -4.5q10 -2 14 -2q23 0 29 29q0 31 -21 31h-14q-37 -2 -92 -2l98 551h66q57 0 81.5 -18.5 t24.5 -65.5q0 -25 -8 -66q0 -25 25 -25q26 0 30 25q0 61 15 131l6 43v6q2 2 2 4q0 20 -21 21q-6 0 -32 -2q-45 -6 -62 -6h-356q-14 0 -57 6q-27 2 -33 2q-27 0 -33 -31l-8 -43q-10 -57 -27 -125zM752 686q0 -29 20 -29q6 0 14 2q18 2 40 3.5t67 1.5h4q33 0 59 -5 q10 -2 17 -2q25 0 28 29q0 29 -18 29h-18q-16 -2 -33 -2l74 426l118 -480q4 -25 29 -24q27 0 37 22l299 494l-78 -438q-23 0 -45 2h-18q-25 0 -31 -29q0 -29 20 -29q6 0 15 2q18 2 39.5 3.5t66.5 1.5q61 0 95 -1t53 -4q8 -2 12 -2q25 0 31 29q0 29 -19 29h-16q-37 -2 -92 -2 l96 549q55 0 90 -2h18q20 0 31 28q0 29 -20 29q-4 0 -17 -2q-20 -2 -52 -4t-97 -2h-29q-12 0 -20.5 -6.5t-22.5 -28.5l-287 -479l-120 481q-6 23 -11.5 29t-21.5 6q-10 0 -29 -2h-20h-4q-43 0 -65.5 2t-37.5 4q-10 2 -16 2q-23 0 -29 -29q0 -29 19 -28h18q29 2 74 2 l-95 -549q-49 0 -75 2h-17q-25 0 -30 -29z" />
<glyph unicode="&#xe000;" horiz-adv-x="819" d="M0 0v819h819v-819h-819z" />
</font>
</defs>
</svg>
